<svg width="24" height="24" viewBox="0 0 24 24" fill="none" xmlns="http://www.w3.org/2000/svg">
<path d="M5.31629 1.28706C5.88297 1.40418 6.33427 1.78492 6.61466 2.28795L7.50787 3.8904C7.83688 4.4806 8.11375 4.97729 8.29457 5.40906C8.48637 5.86708 8.60029 6.31873 8.54821 6.8181C8.49614 7.31746 8.29148 7.73589 8.00931 8.14448C7.7433 8.52966 7.36991 8.95853 6.92621 9.46816L5.6132 10.9764C5.37791 11.2466 5.26026 11.3818 5.24951 11.5507C5.23876 11.7196 5.33518 11.8638 5.52803 12.1523C7.17161 14.6114 9.38675 16.8273 11.8478 18.4723C12.1364 18.6652 12.2806 18.7616 12.4495 18.7508C12.6184 18.7401 12.7536 18.6224 13.0238 18.3872L14.5321 17.0741C15.0417 16.6304 15.4706 16.257 15.8558 15.991C16.2644 15.7088 16.6828 15.5041 17.1822 15.4521C17.6815 15.4 18.1332 15.5139 18.5912 15.7057C19.0229 15.8865 19.5196 16.1634 20.1097 16.4923L21.7123 17.3856C22.2153 17.666 22.5961 18.1173 22.7132 18.684C22.8316 19.2566 22.657 19.8322 22.2714 20.3052C20.8725 22.0215 18.6313 23.1144 16.28 22.6401C14.8348 22.3485 13.4088 21.8628 11.6841 20.8737C8.21872 18.8863 5.11165 15.7775 3.12658 12.3162C2.13746 10.5915 1.65174 9.1655 1.3602 7.72023C0.885904 5.36901 1.97874 3.12773 3.6951 1.72883C4.16814 1.34328 4.74368 1.16871 5.31629 1.28706Z" fill="#03071E"/>
</svg>
