<svg width="16" height="16" viewBox="0 0 16 16" fill="none" xmlns="http://www.w3.org/2000/svg">
<g clip-path="url(#clip0_383_8367)">
<path d="M8 15.0002C6.14348 15.0002 4.36301 14.2627 3.05025 12.95C1.7375 11.6372 1 9.85676 1 8.00024C1 6.14373 1.7375 4.36325 3.05025 3.0505C4.36301 1.73774 6.14348 1.00024 8 1.00024C9.85652 1.00024 11.637 1.73774 12.9497 3.0505C14.2625 4.36325 15 6.14373 15 8.00024C15 9.85676 14.2625 11.6372 12.9497 12.95C11.637 14.2627 9.85652 15.0002 8 15.0002ZM8 16.0002C10.1217 16.0002 12.1566 15.1574 13.6569 13.6571C15.1571 12.1568 16 10.122 16 8.00024C16 5.87851 15.1571 3.84368 13.6569 2.34339C12.1566 0.843099 10.1217 0.000244141 8 0.000244141C5.87827 0.000244141 3.84344 0.843099 2.34315 2.34339C0.842855 3.84368 0 5.87851 0 8.00024C0 10.122 0.842855 12.1568 2.34315 13.6571C3.84344 15.1574 5.87827 16.0002 8 16.0002Z" fill="#FC501D"/>
<path d="M10.9703 4.96759C10.9632 4.9745 10.9565 4.98185 10.9503 4.98959L7.47734 9.41459L5.38434 7.32059C5.24216 7.18811 5.05412 7.11599 4.85982 7.11942C4.66551 7.12285 4.48013 7.20156 4.34272 7.33897C4.2053 7.47639 4.12659 7.66177 4.12316 7.85607C4.11974 8.05037 4.19186 8.23842 4.32434 8.3806L6.97034 11.0276C7.04162 11.0987 7.1265 11.1548 7.21992 11.1924C7.31334 11.2301 7.41339 11.2485 7.51408 11.2467C7.61478 11.2448 7.71407 11.2227 7.80604 11.1816C7.898 11.1405 7.98074 11.0813 8.04934 11.0076L12.0413 6.01759C12.1773 5.87493 12.2516 5.68449 12.2482 5.48746C12.2449 5.29043 12.1641 5.10264 12.0234 4.96469C11.8827 4.82674 11.6933 4.7497 11.4963 4.75025C11.2992 4.75079 11.1103 4.82887 10.9703 4.96759Z" fill="#FC501D"/>
</g>
<defs>
<clipPath id="clip0_383_8367">
<rect width="16" height="16" fill="white" transform="translate(0 0.000244141)"/>
</clipPath>
</defs>
</svg>
