<svg width="16" height="16" viewBox="0 0 16 16" fill="none" xmlns="http://www.w3.org/2000/svg">
<g clip-path="url(#clip0_383_10725)">
<path d="M8 15.0005C6.14348 15.0005 4.36301 14.263 3.05025 12.9502C1.7375 11.6375 1 9.857 1 8.00049C1 6.14397 1.7375 4.3635 3.05025 3.05074C4.36301 1.73799 6.14348 1.00049 8 1.00049C9.85652 1.00049 11.637 1.73799 12.9497 3.05074C14.2625 4.3635 15 6.14397 15 8.00049C15 9.857 14.2625 11.6375 12.9497 12.9502C11.637 14.263 9.85652 15.0005 8 15.0005ZM8 16.0005C10.1217 16.0005 12.1566 15.1576 13.6569 13.6573C15.1571 12.1571 16 10.1222 16 8.00049C16 5.87876 15.1571 3.84392 13.6569 2.34363C12.1566 0.843343 10.1217 0.000488281 8 0.000488281C5.87827 0.000488281 3.84344 0.843343 2.34315 2.34363C0.842855 3.84392 0 5.87876 0 8.00049C0 10.1222 0.842855 12.1571 2.34315 13.6573C3.84344 15.1576 5.87827 16.0005 8 16.0005Z" fill="#FFAF01"/>
<path d="M10.9703 4.96784C10.9632 4.97474 10.9565 4.98209 10.9503 4.98984L7.47734 9.41484L5.38434 7.32084C5.24216 7.18836 5.05412 7.11624 4.85982 7.11966C4.66551 7.12309 4.48013 7.2018 4.34272 7.33922C4.2053 7.47663 4.12659 7.66202 4.12316 7.85632C4.11974 8.05062 4.19186 8.23866 4.32434 8.38084L6.97034 11.0278C7.04162 11.099 7.1265 11.1551 7.21992 11.1927C7.31334 11.2303 7.41339 11.2488 7.51408 11.2469C7.61478 11.245 7.71407 11.2229 7.80604 11.1818C7.898 11.1408 7.98074 11.0816 8.04934 11.0078L12.0413 6.01784C12.1773 5.87517 12.2516 5.68474 12.2482 5.48771C12.2449 5.29068 12.1641 5.10289 12.0234 4.96493C11.8827 4.82698 11.6933 4.74995 11.4963 4.75049C11.2992 4.75103 11.1103 4.82911 10.9703 4.96784Z" fill="#FFAF01"/>
</g>
<defs>
<clipPath id="clip0_383_10725">
<rect width="16" height="16" fill="white" transform="translate(0 0.000488281)"/>
</clipPath>
</defs>
</svg>
