<svg width="16" height="17" viewBox="0 0 16 17" fill="none" xmlns="http://www.w3.org/2000/svg">
<g clip-path="url(#clip0_383_8998)">
<path d="M8 15.8794C6.14348 15.8794 4.36301 15.1419 3.05025 13.8291C1.7375 12.5164 1 10.7359 1 8.87939C1 7.02288 1.7375 5.2424 3.05025 3.92965C4.36301 2.61689 6.14348 1.87939 8 1.87939C9.85652 1.87939 11.637 2.61689 12.9497 3.92965C14.2625 5.2424 15 7.02288 15 8.87939C15 10.7359 14.2625 12.5164 12.9497 13.8291C11.637 15.1419 9.85652 15.8794 8 15.8794ZM8 16.8794C10.1217 16.8794 12.1566 16.0365 13.6569 14.5362C15.1571 13.036 16 11.0011 16 8.87939C16 6.75766 15.1571 4.72283 13.6569 3.22254C12.1566 1.72225 10.1217 0.879395 8 0.879395C5.87827 0.879395 3.84344 1.72225 2.34315 3.22254C0.842855 4.72283 0 6.75766 0 8.87939C0 11.0011 0.842855 13.036 2.34315 14.5362C3.84344 16.0365 5.87827 16.8794 8 16.8794Z" fill="#FF6610"/>
<path d="M10.9699 5.84675C10.9627 5.85365 10.956 5.861 10.9499 5.86875L7.47685 10.2937L5.38385 8.19975C5.24168 8.06727 5.05363 7.99514 4.85933 7.99857C4.66503 8.002 4.47964 8.08071 4.34223 8.21812C4.20482 8.35554 4.1261 8.54092 4.12268 8.73522C4.11925 8.92952 4.19137 9.11757 4.32385 9.25975L6.96985 11.9067C7.04113 11.9779 7.12601 12.034 7.21943 12.0716C7.31285 12.1092 7.4129 12.1277 7.5136 12.1258C7.61429 12.1239 7.71359 12.1018 7.80555 12.0607C7.89751 12.0197 7.98025 11.9605 8.04885 11.8867L12.0409 6.89675C12.1768 6.75408 12.2511 6.56364 12.2477 6.36661C12.2444 6.16959 12.1636 5.98179 12.0229 5.84384C11.8822 5.70589 11.6928 5.62885 11.4958 5.6294C11.2987 5.62994 11.1098 5.70802 10.9699 5.84675Z" fill="#FF6610"/>
</g>
<defs>
<clipPath id="clip0_383_8998">
<rect width="16" height="16" fill="white" transform="translate(0 0.879395)"/>
</clipPath>
</defs>
</svg>
