<svg width="16" height="17" viewBox="0 0 16 17" fill="none" xmlns="http://www.w3.org/2000/svg">
<g clip-path="url(#clip0_374_4004)">
<path d="M8 15.8794C6.14348 15.8794 4.36301 15.1419 3.05025 13.8291C1.7375 12.5164 1 10.7359 1 8.87939C1 7.02288 1.7375 5.2424 3.05025 3.92965C4.36301 2.61689 6.14348 1.87939 8 1.87939C9.85652 1.87939 11.637 2.61689 12.9497 3.92965C14.2625 5.2424 15 7.02288 15 8.87939C15 10.7359 14.2625 12.5164 12.9497 13.8291C11.637 15.1419 9.85652 15.8794 8 15.8794ZM8 16.8794C10.1217 16.8794 12.1566 16.0365 13.6569 14.5362C15.1571 13.036 16 11.0011 16 8.87939C16 6.75766 15.1571 4.72283 13.6569 3.22254C12.1566 1.72225 10.1217 0.879395 8 0.879395C5.87827 0.879395 3.84344 1.72225 2.34315 3.22254C0.842855 4.72283 0 6.75766 0 8.87939C0 11.0011 0.842855 13.036 2.34315 14.5362C3.84344 16.0365 5.87827 16.8794 8 16.8794Z" fill="#FFD61E"/>
<path d="M10.97 5.84675C10.9629 5.85365 10.9562 5.861 10.95 5.86875L7.477 10.2937L5.384 8.19975C5.24183 8.06727 5.05378 7.99514 4.85948 7.99857C4.66518 8.002 4.47979 8.08071 4.34238 8.21812C4.20497 8.35554 4.12626 8.54092 4.12283 8.73522C4.1194 8.92952 4.19152 9.11757 4.324 9.25975L6.97 11.9067C7.04128 11.9779 7.12617 12.034 7.21959 12.0716C7.31301 12.1092 7.41305 12.1277 7.51375 12.1258C7.61445 12.1239 7.71374 12.1018 7.8057 12.0607C7.89766 12.0197 7.98041 11.9605 8.049 11.8867L12.041 6.89675C12.1769 6.75408 12.2513 6.56364 12.2479 6.36661C12.2445 6.16959 12.1638 5.98179 12.0231 5.84384C11.8823 5.70589 11.693 5.62885 11.4959 5.6294C11.2989 5.62994 11.11 5.70802 10.97 5.84675Z" fill="#FFD61E"/>
</g>
<defs>
<clipPath id="clip0_374_4004">
<rect width="16" height="16" fill="white" transform="translate(0 0.879395)"/>
</clipPath>
</defs>
</svg>
