<svg width="21" height="24" viewBox="0 0 21 24" fill="none" xmlns="http://www.w3.org/2000/svg">
<path d="M5.65576 8.21035C5.94708 11.3725 7.80099 13.8106 10.0457 13.8106C12.3271 13.8106 14.2056 11.2914 14.4487 8.05334C14.4789 7.84442 14.4953 7.6302 14.4984 7.41351L13.7865 8.23118C13.9118 7.95417 13.8546 7.54035 13.7193 7.10571H6.2415C6.24554 7.86058 6.35964 8.5396 6.35964 8.5396C6.09569 8.35585 5.85318 8.25978 5.65576 8.21035Z" fill="#FF6610"/>
<path d="M14.5711 21.5082H14.1908C13.9869 21.5082 13.8218 21.5088 13.8218 21.3051C13.8217 21.2132 13.856 21.1245 13.918 21.0565C13.9799 20.9885 14.065 20.9461 14.1566 20.9377V20.9392C14.1573 20.9496 14.1601 20.9597 14.1647 20.9691C14.1918 21.0375 14.2794 21.1665 14.331 21.2399L14.3419 21.0875C14.3266 21.0795 14.3139 21.0673 14.3052 21.0524C14.2992 21.0419 14.2959 21.03 14.2956 21.0179C14.2956 21.0179 14.3341 21.0353 14.3733 21.0353C14.4128 21.0353 14.451 21.0179 14.451 21.0179C14.4508 21.031 14.447 21.0438 14.4399 21.0549C14.4315 21.0687 14.4194 21.08 14.405 21.0875L14.4153 21.2361C14.4703 21.1649 14.5589 21.0455 14.5913 20.9768C14.5977 20.9669 14.6018 20.9556 14.6031 20.9439L14.6034 20.9395V20.938C14.695 20.9465 14.7801 20.9889 14.8421 21.0568C14.9041 21.1248 14.9385 21.2135 14.9385 21.3055C14.9401 21.5088 14.7747 21.5082 14.5711 21.5082ZM16.4013 21.5744H15.6695C15.6362 21.5721 15.6051 21.5573 15.5824 21.5329C15.5596 21.5086 15.547 21.4765 15.547 21.4432C15.547 21.4099 15.5596 21.3778 15.5824 21.3534C15.6051 21.3291 15.6362 21.3143 15.6695 21.312H16.4013C16.4361 21.312 16.4695 21.3258 16.4941 21.3504C16.5187 21.375 16.5325 21.4084 16.5325 21.4432C16.5325 21.478 16.5187 21.5113 16.4941 21.536C16.4695 21.5606 16.4361 21.5744 16.4013 21.5744ZM16.4013 20.8273H15.6695C15.6347 20.8273 15.6013 20.8135 15.5767 20.7889C15.5521 20.7642 15.5383 20.7309 15.5383 20.6961C15.5383 20.6613 15.5521 20.6279 15.5767 20.6033C15.6013 20.5787 15.6347 20.5649 15.6695 20.5649H16.4013C16.4346 20.5672 16.4657 20.582 16.4884 20.6063C16.5112 20.6307 16.5238 20.6628 16.5238 20.6961C16.5238 20.7294 16.5112 20.7615 16.4884 20.7858C16.4657 20.8102 16.4346 20.825 16.4013 20.8273Z" fill="#FF6610"/>
<path d="M16.4015 20.5644H15.6697C15.6364 20.5667 15.6053 20.5816 15.5826 20.6059C15.5598 20.6303 15.5472 20.6623 15.5472 20.6957C15.5472 20.729 15.5598 20.761 15.5826 20.7854C15.6053 20.8097 15.6364 20.8246 15.6697 20.8269H16.4015C16.4363 20.8269 16.4697 20.813 16.4943 20.7884C16.5189 20.7638 16.5327 20.7304 16.5327 20.6957C16.5327 20.6609 16.5189 20.6275 16.4943 20.6029C16.4697 20.5783 16.4363 20.5644 16.4015 20.5644ZM16.4015 21.3109H15.6697C15.6348 21.3109 15.6013 21.3248 15.5767 21.3494C15.552 21.3741 15.5382 21.4076 15.5382 21.4424C15.5382 21.4773 15.552 21.5108 15.5767 21.5354C15.6013 21.5601 15.6348 21.574 15.6697 21.574H16.4015C16.4364 21.574 16.4699 21.5601 16.4945 21.5354C16.5192 21.5108 16.533 21.4773 16.533 21.4424C16.533 21.4076 16.5192 21.3741 16.4945 21.3494C16.4699 21.3248 16.4364 21.3109 16.4015 21.3109ZM14.1024 20.6192L14.1027 20.6273C14.1207 20.8284 14.2389 20.9842 14.3813 20.9842C14.5259 20.9842 14.6449 20.8244 14.6602 20.6192C14.6652 20.5891 14.6652 20.5584 14.6602 20.5284C14.6393 20.386 14.5224 20.2762 14.3813 20.2762C14.2398 20.2762 14.1226 20.386 14.1024 20.5287C14.0988 20.5498 14.0978 20.5713 14.0993 20.5927C14.0997 20.6016 14.1007 20.6104 14.1024 20.6192ZM14.2072 20.4591C14.2072 20.4591 14.4021 20.5539 14.5333 20.4591C14.5333 20.4591 14.6114 20.5822 14.5896 20.6307L14.6291 20.585C14.6288 20.5969 14.6278 20.6089 14.626 20.6207C14.6126 20.8007 14.5078 20.9406 14.381 20.9406C14.2563 20.9406 14.1531 20.8051 14.1366 20.6291C14.1478 20.6322 14.1612 20.6372 14.1758 20.6478C14.1761 20.6481 14.1481 20.4818 14.2072 20.4591Z" fill="#FF6610"/>
<path d="M14.6397 20.9423C14.6282 20.9405 14.6167 20.9386 14.6048 20.9377V20.9392L14.6045 20.9436C14.6034 20.9554 14.5993 20.9667 14.5927 20.9765C14.5604 21.0452 14.4715 21.1643 14.4167 21.2358L14.4062 21.0875C14.4204 21.0798 14.4324 21.0686 14.441 21.0549C14.448 21.0438 14.4519 21.031 14.4522 21.0179C14.4522 21.0179 14.4139 21.0353 14.3745 21.0353C14.3356 21.0353 14.2967 21.0179 14.2967 21.0179C14.2967 21.03 14.3005 21.0415 14.3064 21.0524C14.3149 21.0674 14.3277 21.0796 14.3431 21.0875L14.3322 21.2399C14.2806 21.1668 14.1929 21.0375 14.1658 20.9691C14.1618 20.9612 14.1593 20.9527 14.1584 20.9439L14.1578 20.9392V20.9377C14.0661 20.9461 13.981 20.9884 13.919 21.0564C13.857 21.1244 13.8228 21.2132 13.8229 21.3052C13.8229 21.5088 13.988 21.5082 14.192 21.5082H14.5722C14.7758 21.5082 14.9412 21.5088 14.9412 21.3052C14.9406 21.2191 14.9103 21.136 14.8553 21.0698C14.8003 21.0037 14.7241 20.9586 14.6397 20.9423ZM6.03294 13.8553C6.033 13.8556 6.0331 13.8559 6.03325 13.8562L6.0345 13.8628C6.05253 14.0154 6.09761 14.1634 6.16912 14.3061V14.3055C6.09979 14.1308 6.05346 13.98 6.03325 13.8562L6.03294 13.8553ZM6.02331 13.7717C6.02268 13.763 6.02144 13.7527 6.02113 13.7446H6.02051C6.02082 13.754 6.02331 13.7639 6.02362 13.7732L6.02331 13.7717Z" fill="#FF6610"/>
<path d="M14.6942 13.8314C14.4881 13.7928 14.2803 13.764 14.0714 13.7449H14.0705C14.0704 13.751 14.0699 13.757 14.069 13.763L14.0677 13.772L14.0674 13.7773C14.0665 13.7888 14.0649 13.8 14.0634 13.8115C14.0618 13.823 14.0615 13.8335 14.0593 13.8457L14.059 13.8463V13.8472C14.0332 14.003 13.9595 14.2041 13.8482 14.4398L13.8479 14.4407C13.2656 15.6728 11.6716 17.8237 10.6851 19.1068L10.4982 16.4358C10.7563 16.2994 10.9727 16.0957 11.1244 15.8463C11.2481 15.6427 11.3252 15.4151 11.3252 15.1844C11.3252 15.1844 10.6322 15.4907 9.92587 15.4907C9.21919 15.4907 8.5265 15.1844 8.5265 15.1844C8.5265 15.3977 8.5921 15.6076 8.69967 15.7994C8.85168 16.07 9.07861 16.291 9.35319 16.4358L9.16136 19.1767C8.23332 17.8566 6.65704 15.5323 6.16986 14.3061C6.09791 14.1652 6.05179 14.0125 6.03368 13.8553C6.03026 13.828 6.0256 13.8012 6.02436 13.7732C6.02405 13.7639 6.02125 13.754 6.02094 13.7446C5.96964 13.7493 5.91865 13.7561 5.86766 13.7624C5.81699 13.7683 5.766 13.7729 5.71594 13.7798L5.70724 13.781C2.48193 14.2306 0 16.9988 0 20.3476C0 24.0097 2.96881 24.001 6.63093 24.001H13.4602C17.1223 24.001 20.0915 24.0097 20.0915 20.3476C20.0915 17.107 17.7662 14.4096 14.6942 13.8314ZM17.0297 21.7631C17.0297 21.9919 16.8441 22.1775 16.6149 22.1775H13.7982C13.6882 22.1775 13.5828 22.1339 13.5051 22.0562C13.4274 21.9784 13.3837 21.873 13.3837 21.7631V20.023C13.3837 19.7942 13.5693 19.6086 13.7982 19.6086H16.6156C16.8444 19.6086 17.0297 19.7942 17.0297 20.023V21.7631Z" fill="#FF6610"/>
<path d="M4.85118 7.10554H4.97398C4.97336 7.14254 4.97212 7.17892 4.97212 7.21591C4.97278 7.48709 4.9921 7.75791 5.02995 8.02644L5.04176 8.16945C5.36199 11.7896 7.47955 14.5862 10.0454 14.5862C12.6439 14.5862 14.7836 11.7168 15.0603 8.02861C15.0985 7.76372 15.1187 7.49231 15.1187 7.21622C15.1187 7.17923 15.1172 7.14254 15.1162 7.10585H15.2611C15.6799 7.10585 16.6823 6.76635 16.6823 6.34756C16.6823 5.92847 15.6796 5.58927 15.2611 5.58927H15.258C14.9794 3.6595 13.7358 1.76548 11.9569 0.922314L11.8546 2.27754L11.7827 3.15273L11.6506 3.15055L11.7193 2.17494L11.8151 0.812255L11.8347 0.531821L11.003 0.496378L11.0024 0.529333L10.9573 1.96228L10.9212 3.11822L10.9191 3.18631L10.8528 5.30977H10.7092L10.8015 1.93555L10.841 0.494513L10.855 0.000488281H9.0322L9.04681 0.5455L9.08598 1.97192L9.17708 5.30977H9.03344L8.96722 3.18506L8.96504 3.11697L8.93022 2.00612L8.88607 0.589959L8.88296 0.494513L8.01896 0.53151L8.04726 0.935683L8.14053 2.26666L8.2024 3.15024L8.07026 3.15242L8.00528 2.37174L7.9058 1.04916C6.25366 1.95233 5.12073 3.7509 4.85491 5.58896H4.8518C4.43301 5.58896 3.43066 5.92815 3.43066 6.34725C3.43004 6.76604 4.43239 7.10554 4.85118 7.10554ZM6.24122 7.10554H13.7191C13.8546 7.5405 13.9115 7.954 13.7862 8.23132L14.4982 7.41334C14.4955 7.62747 14.4789 7.8412 14.4484 8.05317C14.2056 11.2912 12.3271 13.8102 10.0454 13.8102C7.80071 13.8102 5.94649 11.3721 5.65548 8.20987C5.85291 8.2593 6.09541 8.35537 6.35905 8.53942C6.35905 8.53911 6.24495 7.8601 6.24122 7.10554Z" fill="#FF6610"/>
</svg>
