<svg width="24" height="24" viewBox="0 0 24 24" fill="none" xmlns="http://www.w3.org/2000/svg">
<g clip-path="url(#clip0_383_8222)">
<path d="M12 5.24999H16.125C16.125 4.42171 16.7953 3.74999 17.625 3.74999H21.75C22.9922 3.74999 24 4.7578 24 5.99999C24 7.24218 22.9922 8.24999 21.75 8.24999H17.625C16.7953 8.24999 16.125 7.57968 16.125 6.74999H12V10.5C12 11.0203 11.7328 11.5031 11.2875 11.775C10.8469 12.0516 10.2937 12.075 9.82969 11.8406L0.829219 7.34061C0.321 7.08749 0 6.56718 0 5.99999C0 5.4328 0.321 4.91249 0.829219 4.65843L9.82969 0.158332C10.2937 -0.0741207 10.8469 -0.0492769 11.2875 0.224004C11.7328 0.497332 12 0.980145 12 1.49999V5.24999ZM10.5 10.5V1.49999L1.5 5.99999L10.5 10.5ZM21.75 5.24999H17.625V6.74999H21.75C22.1625 6.74999 22.5 6.41249 22.5 5.99999C22.5 5.58749 22.1625 5.24999 21.75 5.24999ZM15 10.5H22.5C23.3297 10.5 24 11.1703 24 12V22.5C24 23.3297 23.3297 24 22.5 24H1.5C0.671719 24 0 23.3297 0 22.5V18C0 17.1703 0.671719 16.5 1.5 16.5H13.5V12C13.5 11.1703 14.1703 10.5 15 10.5ZM12 18V22.5H22.5V18H12ZM10.5 18H1.5V22.5H10.5V18ZM22.5 12H15V16.5H22.5V12Z" fill="#FC501D"/>
</g>
<defs>
<clipPath id="clip0_383_8222">
<rect width="24" height="24" fill="white"/>
</clipPath>
</defs>
</svg>
