<svg width="24" height="24" viewBox="0 0 24 24" fill="none" xmlns="http://www.w3.org/2000/svg">
<path d="M5.10975 1.8045L4.05375 2.859L5.625 4.4295L6.6795 3.375L5.10975 1.8045ZM18.891 1.8045L17.3198 3.375L18.375 4.4295L19.9455 2.85975L18.891 1.8045ZM12 2.2725C11.7525 2.2755 11.502 2.28975 11.25 2.3205C11.2425 2.3205 11.235 2.319 11.2275 2.3205C8.1855 2.66925 5.7645 5.127 5.34375 8.1555C5.00775 10.593 6.01275 12.8033 7.6875 14.2268C8.37256 14.8114 8.83592 15.6137 9 16.4993V20.9993H10.71C10.971 21.447 11.4473 21.7493 12 21.7493C12.5527 21.7493 13.029 21.447 13.29 20.9993H15V17.9993H15.0705V17.1083C15.0705 16.0088 15.642 14.9003 16.5705 14.0385C17.8125 12.795 18.75 11.0288 18.75 9C18.75 5.295 15.7005 2.238 12 2.2725ZM12 3.7725C14.8988 3.732 17.25 6.105 17.25 9C17.25 10.5705 16.5225 11.9535 15.5153 12.96L15.5392 12.984C14.5383 13.907 13.891 15.1506 13.7092 16.5H10.4287C10.2637 15.2145 9.7125 13.9703 8.67075 13.0778C7.3455 11.9528 6.55575 10.2578 6.81975 8.34375C7.1475 5.98125 9.0645 4.0815 11.4135 3.82125C11.6074 3.79422 11.8027 3.77819 11.9985 3.77325L12 3.7725ZM1.5 9V10.5H3.75V9H1.5ZM20.25 9V10.5H22.5V9H20.25ZM5.625 15.0705L4.0545 16.6403L5.10975 17.6955L6.67875 16.125L5.625 15.0705ZM18.375 15.0705L17.3205 16.125L18.8903 17.6955L19.9455 16.6403L18.375 15.0705ZM10.5 18H13.5V19.5H10.5V18Z" fill="#FFAF01"/>
</svg>
