<svg width="24" height="24" viewBox="0 0 24 24" fill="none" xmlns="http://www.w3.org/2000/svg">
<path d="M14.6741 9.03955L12.9888 10.0181L19.834 14.2439C19.8489 14.2538 19.8637 14.2637 19.8785 14.2736L21.8061 13.1566L14.6741 9.03955Z" fill="#FF6610"/>
<path d="M1.95218 16.7153L1.94727 18.7506L9.07919 22.8677L9.08414 20.8324L2.99506 17.3183L1.95218 16.7153Z" fill="#FF6610"/>
<path d="M20.1602 14.6886C20.175 14.7479 20.1849 14.8121 20.1849 14.8764V16.6942L22.0432 15.6168L22.0531 13.5864L20.1602 14.6886Z" fill="#FF6610"/>
<path d="M11.6492 18.9693L9.9984 11.7583L7.63098 13.1323L5.61941 15.4898C5.33739 15.8152 4.86021 15.8211 4.57653 15.5689C4.42331 15.4404 4.33435 15.2625 4.31954 15.0648V15.0598L2.19922 16.2905L9.33118 20.4076L11.6492 19.0583V18.9693Z" fill="#FF6610"/>
<path d="M11.5306 10.8638L11.3428 10.9774L13.0084 18.2725L18.4253 15.1192L11.5306 10.8638Z" fill="#FF6610"/>
<path d="M18.7021 15.5356L13.1221 18.7778C13.1319 18.8174 13.1319 18.8519 13.1319 18.8865V20.7983L18.7861 17.5116C18.7317 17.4127 18.7021 15.5356 18.7021 15.5356Z" fill="#FF6610"/>
<path d="M11.649 21.7994V19.6333L9.57819 20.8343L9.57324 22.8647" fill="#FF6610"/>
<path d="M10.7349 1.78076L9.61294 1.1333L8.22412 1.93397L9.34606 2.58638L10.7349 1.78076Z" fill="#FF6610"/>
<path d="M9.03997 2.98251C8.99414 2.95586 7.78169 2.25071 7.85872 2.2955L7.10254 4.24282L8.28376 4.92488L9.03997 2.98251Z" fill="#FF6610"/>
<path d="M7.94212 6.42567L8.84165 6.94956L8.21398 5.46189L7.31445 4.93799L7.94212 6.42567Z" fill="#FF6610"/>
<path d="M12.5041 10.3034H12.4991C12.2797 10.1685 10.5257 9.09017 10.6259 9.15179V9.14687C10.889 8.93022 11.1103 8.499 11.1103 8.11389C11.1103 7.97552 11.0015 7.86677 10.8632 7.86677C10.7248 7.86677 10.616 7.97552 10.616 8.11389C10.616 8.3239 10.4839 8.5862 10.3442 8.73664C10.1787 8.91592 9.96858 9.02506 9.96858 8.77124C9.96858 8.71689 9.97848 8.65755 9.99329 8.59332C10.0371 8.41821 10.1967 8.12355 10.4085 8.01009C10.4875 7.96563 10.5369 7.88161 10.5369 7.79262V6.57014L11.0312 6.28519L11.906 3.16156L11.1548 2.11377L9.54354 3.04295V3.0479L8.67367 5.28189V5.28683C8.70181 5.35336 9.52538 7.30042 9.47434 7.17977L10.0427 6.85379V7.6592C9.56427 8.02551 9.2623 8.88515 9.65226 9.25559C2.86171 17.1957 8.92034 10.1111 4.86799 14.8504C4.77903 14.9542 4.79384 15.1074 4.89764 15.1964C4.9931 15.2823 5.14797 15.2779 5.24362 15.1717C5.28266 15.126 10.0529 9.54002 10.0131 9.58673C10.0234 9.63207 10.4584 11.5448 10.448 11.4994C10.7903 12.9975 9.56837 7.65014 12.1432 18.918C12.1432 18.9909 12.1432 21.5867 12.1432 21.5402C12.1432 21.6737 12.2516 21.7873 12.3904 21.7873C12.5288 21.7873 12.6375 21.6786 12.6375 21.5402C12.6375 18.71 12.6405 18.8658 12.6326 18.834C10.3553 8.89068 11.0769 12.0412 10.8928 11.2375C10.8824 11.1922 10.6259 10.0662 10.5369 9.67572C11.7028 10.3972 12.0719 10.6255 12.0148 10.5901C12.7365 11.0351 9.37581 8.96273 19.1961 15.0185C19.1961 15.0825 19.1961 17.5461 19.1961 17.4429C19.1961 17.5839 19.3154 17.69 19.4432 17.69C19.5816 17.69 19.6903 17.5764 19.6903 17.4429C19.6903 16.8379 19.6903 15.4943 19.6903 14.8801C19.6903 14.7911 19.6459 14.712 19.5767 14.6676C10.6707 9.17209 12.8533 10.5189 12.5041 10.3034Z" fill="#FF6610"/>
</svg>
