<svg width="24" height="24" viewBox="0 0 24 24" fill="none" xmlns="http://www.w3.org/2000/svg">
<path fill-rule="evenodd" clip-rule="evenodd" d="M12 2.00049C6.47715 2.00049 2 6.47764 2 12.0005C2 17.5233 6.47715 22.0005 12 22.0005C17.5228 22.0005 22 17.5233 22 12.0005C22 6.47764 17.5228 2.00049 12 2.00049ZM13 7.00049C13 6.44821 12.5523 6.00049 12 6.00049C11.4477 6.00049 11 6.44821 11 7.00049V12.0005C11 12.3518 11.1843 12.6773 11.4855 12.858L13.9855 14.358C14.4591 14.6421 15.0733 14.4886 15.3575 14.015C15.6416 13.5414 15.4881 12.9272 15.0145 12.643L13 11.4343V7.00049Z" fill="#FF6610"/>
</svg>
