<svg width="40" height="41" viewBox="0 0 40 41" fill="none" xmlns="http://www.w3.org/2000/svg">
<g clip-path="url(#clip0_383_7799)">
<mask id="mask0_383_7799" style="mask-type:luminance" maskUnits="userSpaceOnUse" x="1" y="0" width="40" height="41">
<path d="M39.6364 16.8641H21V24.5914H31.7273C30.7273 29.5005 26.5455 32.3187 21 32.3187C14.4545 32.3187 9.18182 27.046 9.18182 20.5005C9.18182 13.955 14.4545 8.68231 21 8.68231C23.8182 8.68231 26.3636 9.68231 28.3636 11.3187L34.1818 5.50049C30.6364 2.40958 26.0909 0.500488 21 0.500488C9.90909 0.500488 1 9.40958 1 20.5005C1 31.5914 9.90909 40.5005 21 40.5005C31 40.5005 40.0909 33.2278 40.0909 20.5005C40.0909 19.3187 39.9091 18.0459 39.6364 16.8641Z" fill="white"/>
</mask>
<g mask="url(#mask0_383_7799)">
<path d="M-0.8125 32.3165V8.68018L14.642 20.4984L-0.8125 32.3165Z" fill="#FBBC05"/>
</g>
<mask id="mask1_383_7799" style="mask-type:luminance" maskUnits="userSpaceOnUse" x="1" y="0" width="40" height="41">
<path d="M39.6364 16.8641H21V24.5914H31.7273C30.7273 29.5005 26.5455 32.3187 21 32.3187C14.4545 32.3187 9.18182 27.046 9.18182 20.5005C9.18182 13.955 14.4545 8.68231 21 8.68231C23.8182 8.68231 26.3636 9.68231 28.3636 11.3187L34.1818 5.50049C30.6364 2.40958 26.0909 0.500488 21 0.500488C9.90909 0.500488 1 9.40958 1 20.5005C1 31.5914 9.90909 40.5005 21 40.5005C31 40.5005 40.0909 33.2278 40.0909 20.5005C40.0909 19.3187 39.9091 18.0459 39.6364 16.8641Z" fill="white"/>
</mask>
<g mask="url(#mask1_383_7799)">
<path d="M-0.8125 8.68018L14.6421 20.4984L21.0057 14.9529L42.8239 11.4075V-1.31982H-0.8125V8.68018Z" fill="#EA4335"/>
</g>
<mask id="mask2_383_7799" style="mask-type:luminance" maskUnits="userSpaceOnUse" x="1" y="0" width="40" height="41">
<path d="M39.6364 16.8641H21V24.5914H31.7273C30.7273 29.5005 26.5455 32.3187 21 32.3187C14.4545 32.3187 9.18182 27.046 9.18182 20.5005C9.18182 13.955 14.4545 8.68231 21 8.68231C23.8182 8.68231 26.3636 9.68231 28.3636 11.3187L34.1818 5.50049C30.6364 2.40958 26.0909 0.500488 21 0.500488C9.90909 0.500488 1 9.40958 1 20.5005C1 31.5914 9.90909 40.5005 21 40.5005C31 40.5005 40.0909 33.2278 40.0909 20.5005C40.0909 19.3187 39.9091 18.0459 39.6364 16.8641Z" fill="white"/>
</mask>
<g mask="url(#mask2_383_7799)">
<path d="M-0.8125 32.3166L26.4602 11.4075L33.6421 12.3165L42.8239 -1.31982V42.3166H-0.8125V32.3166Z" fill="#34A853"/>
</g>
<mask id="mask3_383_7799" style="mask-type:luminance" maskUnits="userSpaceOnUse" x="1" y="0" width="40" height="41">
<path d="M39.6364 16.8641H21V24.5914H31.7273C30.7273 29.5005 26.5455 32.3187 21 32.3187C14.4545 32.3187 9.18182 27.046 9.18182 20.5005C9.18182 13.955 14.4545 8.68231 21 8.68231C23.8182 8.68231 26.3636 9.68231 28.3636 11.3187L34.1818 5.50049C30.6364 2.40958 26.0909 0.500488 21 0.500488C9.90909 0.500488 1 9.40958 1 20.5005C1 31.5914 9.90909 40.5005 21 40.5005C31 40.5005 40.0909 33.2278 40.0909 20.5005C40.0909 19.3187 39.9091 18.0459 39.6364 16.8641Z" fill="white"/>
</mask>
<g mask="url(#mask3_383_7799)">
<path d="M42.8182 42.3166L14.6364 20.4984L11 17.7711L42.8182 8.68018V42.3166Z" fill="#4285F4"/>
</g>
</g>
<defs>
<clipPath id="clip0_383_7799">
<rect width="40" height="40" fill="white" transform="translate(0 0.500488)"/>
</clipPath>
</defs>
</svg>
