<svg width="24" height="24" viewBox="0 0 24 24" fill="none" xmlns="http://www.w3.org/2000/svg">
<g clip-path="url(#clip0_383_10431)">
<path fill-rule="evenodd" clip-rule="evenodd" d="M12.0006 1.20361C8.23381 1.20361 4.64013 3.60348 3.13594 7.39109C1.73604 10.916 2.49388 13.9157 4.07175 16.4844C5.36542 18.5904 7.25226 20.4699 8.95449 22.1656L8.9553 22.1664C9.27963 22.4895 9.59725 22.8059 9.90278 23.1159L9.90441 23.1176C10.4705 23.6884 11.2225 24.0036 12.0006 24.0036C12.7787 24.0036 13.5307 23.6884 14.0968 23.1175C14.3858 22.8261 14.6853 22.5287 14.9909 22.2254C16.7117 20.5175 18.625 18.6186 19.9322 16.4859C21.5083 13.9146 22.2634 10.9116 20.8652 7.39109C19.361 3.60348 15.7674 1.20361 12.0006 1.20361ZM11.9991 7.30129C9.82422 7.30129 8.06116 9.20043 8.06116 11.5431C8.06116 13.8858 9.82422 15.785 11.9991 15.785C14.1739 15.785 15.937 13.8858 15.937 11.5431C15.937 9.20043 14.1739 7.30129 11.9991 7.30129Z" fill="#03071E"/>
</g>
<defs>
<clipPath id="clip0_383_10431">
<rect width="24" height="24" fill="white" transform="translate(0 0.000488281)"/>
</clipPath>
</defs>
</svg>
