<svg width="24" height="24" viewBox="0 0 24 24" fill="none" xmlns="http://www.w3.org/2000/svg">
<path fill-rule="evenodd" clip-rule="evenodd" d="M14.6823 2.78729C12.7265 2.73821 11.2735 2.73822 9.3177 2.78729L9.24285 2.78917C7.73349 2.827 6.49161 2.85813 5.49064 3.03223C4.42828 3.21702 3.53876 3.57689 2.78536 4.33222C2.0359 5.08359 1.67705 5.95908 1.49526 7.00464C1.32465 7.98586 1.29883 9.19671 1.26758 10.6622L1.26597 10.7376C1.24467 11.7356 1.24468 12.2655 1.26599 13.2634L1.2676 13.3388C1.29884 14.8043 1.32466 16.0151 1.49527 16.9964C1.67707 18.0419 2.03592 18.9174 2.78537 19.6688C3.53878 20.4241 4.42829 20.784 5.49066 20.9688C6.49162 21.1429 7.7335 21.174 9.24286 21.2118L9.31772 21.2137C11.2735 21.2628 12.7265 21.2628 14.6823 21.2137L14.7571 21.2118C16.2665 21.174 17.5084 21.1428 18.5094 20.9687C19.5717 20.784 20.4612 20.4241 21.2146 19.6688C21.9641 18.9174 22.323 18.0419 22.5047 16.9963C22.6754 16.0151 22.7012 14.8043 22.7324 13.3388L22.734 13.2634C22.7553 12.2654 22.7553 11.7356 22.734 10.7376L22.7324 10.6623C22.7012 9.19675 22.6753 7.98586 22.5047 7.00464C22.3229 5.95908 21.9641 5.08359 21.2146 4.33222C20.7913 3.90776 20.3249 3.60818 19.809 3.39437C19.7305 3.35152 19.6464 3.31921 19.5587 3.29859C19.2289 3.18232 18.8796 3.09664 18.5093 3.03224C17.5084 2.85813 16.2665 2.827 14.7571 2.78916L14.6823 2.78729ZM20.6798 8.85078C20.6604 8.44527 20.6507 8.24252 20.5039 8.16157C20.3571 8.08062 20.1765 8.1829 19.8155 8.38745L15.5798 10.7875C14.2801 11.5239 13.181 12.0005 11.9998 12.0005C10.8186 12.0005 9.71946 11.5239 8.41985 10.7875L4.18445 8.38767C3.82343 8.18311 3.64292 8.08083 3.49608 8.16178C3.34924 8.24273 3.33957 8.44549 3.32023 8.85101C3.29416 9.39752 3.28003 10.0311 3.26403 10.7802C3.24333 11.7497 3.24334 12.2513 3.26405 13.2208C3.29736 14.7808 3.32261 15.8398 3.46432 16.6548C3.59776 17.4223 3.82038 17.8782 4.20122 18.26C4.5781 18.6379 5.04027 18.8643 5.83355 19.0023C6.67174 19.1481 7.76497 19.1781 9.36791 19.2183C11.2902 19.2665 12.7098 19.2665 14.6321 19.2183C16.235 19.1781 17.3283 19.1481 18.1665 19.0023C18.9597 18.8643 19.4219 18.6379 19.7988 18.26C20.1796 17.8782 20.4023 17.4223 20.5357 16.6548C20.6774 15.8398 20.7027 14.7808 20.736 13.2208C20.7567 12.2513 20.7567 11.7497 20.736 10.7802C20.72 10.031 20.7058 9.39735 20.6798 8.85078Z" fill="#03071E"/>
</svg>
