<svg width="40" height="36" viewBox="0 0 40 36" fill="none" xmlns="http://www.w3.org/2000/svg">
<path d="M0 31.7505V21.7505C0 11.0459 4.98219 3.28767 15.1427 0.565166C16.3322 0.246416 17.5 1.14618 17.5 2.37759V5.02563C17.5 5.81134 17.0134 6.5204 16.2745 6.78735C11.1184 8.64985 8.125 12.215 8.125 18.0005H13.75C15.8211 18.0005 17.5 19.6794 17.5 21.7505V31.7505C17.5 33.8216 15.8211 35.5005 13.75 35.5005H3.75C1.67891 35.5005 0 33.8216 0 31.7505ZM26.25 35.5005H36.25C38.3211 35.5005 40 33.8216 40 31.7505V21.7505C40 19.6794 38.3211 18.0005 36.25 18.0005H30.625C30.625 12.215 33.6184 8.64985 38.7745 6.78735C39.5134 6.5204 40 5.81134 40 5.02563V2.37759C40 1.14618 38.8322 0.246416 37.6427 0.565166C27.4822 3.28767 22.5 11.0459 22.5 21.7505V31.7505C22.5 33.8216 24.1789 35.5005 26.25 35.5005Z" fill="#FC501D"/>
</svg>
