<svg width="36" height="23" viewBox="0 0 36 23" fill="none" xmlns="http://www.w3.org/2000/svg">
<path d="M28.1083 14.8156C31.6521 14.8156 34.525 11.9468 34.525 8.40784C34.525 4.86892 31.6521 2.00006 28.1083 2.00006C24.5644 2.00006 21.6916 4.86892 21.6916 8.40784C21.6916 11.9468 24.5644 14.8156 28.1083 14.8156Z" stroke="#03071E" stroke-width="2.30441" stroke-miterlimit="10" stroke-linecap="round" stroke-linejoin="round"/>
<path d="M34.5251 8.40625C34.5251 15.4548 28.7501 21.2218 21.6917 21.2218" stroke="#03071E" stroke-width="2.30441" stroke-miterlimit="10" stroke-linecap="round" stroke-linejoin="round"/>
<path d="M7.76669 14.8157C11.3105 14.8157 14.1834 11.9468 14.1834 8.40791C14.1834 4.86898 11.3105 2.00012 7.76669 2.00012C4.22285 2.00012 1.35001 4.86898 1.35001 8.40791C1.35001 11.9468 4.22285 14.8157 7.76669 14.8157Z" stroke="#03071E" stroke-width="2.30441" stroke-miterlimit="10" stroke-linecap="round" stroke-linejoin="round"/>
<path d="M14.1834 8.40625C14.1834 15.4548 8.40836 21.2218 1.35001 21.2218" stroke="#03071E" stroke-width="2.30441" stroke-miterlimit="10" stroke-linecap="round" stroke-linejoin="round"/>
</svg>
