<svg width="21" height="24" viewBox="0 0 21 24" fill="none" xmlns="http://www.w3.org/2000/svg">
<path d="M5.65564 8.20962C5.94696 11.3718 7.80087 13.8099 10.0456 13.8099C12.327 13.8099 14.2055 11.2907 14.4486 8.05261C14.4787 7.84368 14.4952 7.62947 14.4983 7.41277L13.7864 8.23045C13.9117 7.95343 13.8544 7.53962 13.7192 7.10498H6.24138C6.24542 7.85985 6.35952 8.53886 6.35952 8.53886C6.09557 8.35512 5.85306 8.25905 5.65564 8.20962Z" fill="#FFD61E"/>
<path d="M14.5711 21.5077H14.1908C13.9869 21.5077 13.8218 21.5084 13.8218 21.3047C13.8217 21.2127 13.856 21.124 13.918 21.0561C13.9799 20.9881 14.0651 20.9457 14.1566 20.9372V20.9388C14.1573 20.9492 14.1601 20.9593 14.1647 20.9686C14.1918 21.037 14.2795 21.1661 14.3311 21.2394L14.3419 21.0871C14.3266 21.0791 14.3139 21.0669 14.3053 21.0519C14.2992 21.0414 14.2959 21.0296 14.2956 21.0174C14.2956 21.0174 14.3342 21.0348 14.3733 21.0348C14.4128 21.0348 14.4511 21.0174 14.4511 21.0174C14.4509 21.0306 14.447 21.0434 14.4399 21.0544C14.4315 21.0683 14.4195 21.0796 14.4051 21.0871L14.4153 21.2357C14.4704 21.1645 14.559 21.0451 14.5913 20.9764C14.5978 20.9665 14.6018 20.9552 14.6031 20.9434L14.6034 20.9391V20.9375C14.695 20.9461 14.7801 20.9884 14.8421 21.0564C14.9041 21.1244 14.9385 21.213 14.9386 21.305C14.9401 21.5084 14.7747 21.5077 14.5711 21.5077ZM16.4014 21.574H15.6695C15.6363 21.5717 15.6051 21.5568 15.5824 21.5325C15.5597 21.5081 15.547 21.4761 15.547 21.4428C15.547 21.4094 15.5597 21.3774 15.5824 21.353C15.6051 21.3287 15.6363 21.3138 15.6695 21.3116H16.4014C16.4362 21.3116 16.4695 21.3254 16.4941 21.35C16.5187 21.3746 16.5326 21.408 16.5326 21.4428C16.5326 21.4776 16.5187 21.5109 16.4941 21.5355C16.4695 21.5601 16.4362 21.574 16.4014 21.574ZM16.4014 20.8269H15.6695C15.6347 20.8269 15.6013 20.813 15.5767 20.7884C15.5521 20.7638 15.5383 20.7305 15.5383 20.6957C15.5383 20.6609 15.5521 20.6275 15.5767 20.6029C15.6013 20.5783 15.6347 20.5645 15.6695 20.5645H16.4014C16.4346 20.5667 16.4657 20.5816 16.4885 20.6059C16.5112 20.6303 16.5238 20.6623 16.5238 20.6957C16.5238 20.729 16.5112 20.761 16.4885 20.7854C16.4657 20.8097 16.4346 20.8246 16.4014 20.8269Z" fill="#FFD61E"/>
<path d="M16.4014 20.5641H15.6695C15.6363 20.5664 15.6051 20.5812 15.5824 20.6055C15.5597 20.6299 15.547 20.662 15.547 20.6953C15.547 20.7286 15.5597 20.7607 15.5824 20.785C15.6051 20.8094 15.6363 20.8242 15.6695 20.8265H16.4014C16.4362 20.8265 16.4695 20.8127 16.4941 20.7881C16.5188 20.7635 16.5326 20.7301 16.5326 20.6953C16.5326 20.6605 16.5188 20.6271 16.4941 20.6025C16.4695 20.5779 16.4362 20.5641 16.4014 20.5641ZM16.4014 21.3106H15.6695C15.6346 21.3106 15.6012 21.3244 15.5765 21.3491C15.5519 21.3737 15.538 21.4072 15.538 21.4421C15.538 21.477 15.5519 21.5104 15.5765 21.5351C15.6012 21.5597 15.6346 21.5736 15.6695 21.5736H16.4014C16.4363 21.5736 16.4697 21.5597 16.4944 21.5351C16.519 21.5104 16.5329 21.477 16.5329 21.4421C16.5329 21.4072 16.519 21.3737 16.4944 21.3491C16.4697 21.3244 16.4363 21.3106 16.4014 21.3106ZM14.1023 20.6188L14.1026 20.6269C14.1206 20.828 14.2387 20.9838 14.3811 20.9838C14.5257 20.9838 14.6448 20.824 14.66 20.6188C14.665 20.5887 14.665 20.5581 14.66 20.528C14.6392 20.3856 14.5223 20.2759 14.3811 20.2759C14.2397 20.2759 14.1225 20.3856 14.1023 20.5283C14.0987 20.5495 14.0976 20.571 14.0991 20.5924C14.0995 20.6013 14.1006 20.6101 14.1023 20.6188ZM14.207 20.4587C14.207 20.4587 14.402 20.5535 14.5332 20.4587C14.5332 20.4587 14.6112 20.5818 14.5894 20.6303L14.6289 20.5846C14.6287 20.5966 14.6276 20.6085 14.6258 20.6204C14.6124 20.8004 14.5077 20.9403 14.3808 20.9403C14.2561 20.9403 14.1529 20.8047 14.1365 20.6288C14.1476 20.6319 14.161 20.6368 14.1756 20.6474C14.1759 20.6477 14.148 20.4814 14.207 20.4587Z" fill="#FFD61E"/>
<path d="M14.6398 20.9418C14.6283 20.94 14.6168 20.9381 14.605 20.9372V20.9387L14.6046 20.9431C14.6035 20.9549 14.5994 20.9662 14.5928 20.976C14.5605 21.0448 14.4716 21.1638 14.4169 21.2353L14.4063 21.087C14.4205 21.0793 14.4325 21.0681 14.4411 21.0544C14.4481 21.0433 14.452 21.0305 14.4523 21.0174C14.4523 21.0174 14.4141 21.0348 14.3746 21.0348C14.3357 21.0348 14.2969 21.0174 14.2969 21.0174C14.2969 21.0295 14.3006 21.041 14.3065 21.0519C14.315 21.0669 14.3278 21.0791 14.3432 21.087L14.3323 21.2394C14.2807 21.1663 14.193 21.037 14.166 20.9686C14.1619 20.9607 14.1594 20.9522 14.1585 20.9434L14.1579 20.9387V20.9372C14.0663 20.9456 13.9811 20.9879 13.9191 21.0559C13.8572 21.1239 13.8229 21.2127 13.823 21.3047C13.823 21.5083 13.9881 21.5077 14.1921 21.5077H14.5723C14.776 21.5077 14.9414 21.5083 14.9414 21.3047C14.9408 21.2187 14.9104 21.1355 14.8554 21.0694C14.8004 21.0032 14.7242 20.9582 14.6398 20.9418ZM6.03307 13.8548C6.03312 13.8551 6.03322 13.8555 6.03338 13.8558L6.03462 13.8623C6.05265 14.0149 6.09773 14.1629 6.16924 14.3056V14.305C6.09991 14.1303 6.05359 13.9795 6.03338 13.8558L6.03307 13.8548ZM6.02343 13.7712C6.02281 13.7625 6.02156 13.7522 6.02125 13.7441H6.02063C6.02094 13.7535 6.02343 13.7634 6.02374 13.7727L6.02343 13.7712Z" fill="#FFD61E"/>
<path d="M14.6942 13.8309C14.4881 13.7924 14.2803 13.7635 14.0714 13.7445H14.0705C14.0704 13.7505 14.0699 13.7565 14.069 13.7625L14.0677 13.7715L14.0674 13.7768C14.0665 13.7883 14.0649 13.7995 14.0634 13.811C14.0618 13.8225 14.0615 13.8331 14.0593 13.8452L14.059 13.8458V13.8467C14.0332 14.0025 13.9595 14.2037 13.8482 14.4393L13.8479 14.4403C13.2656 15.6724 11.6716 17.8232 10.6851 19.1063L10.4982 16.4353C10.7563 16.2989 10.9727 16.0952 11.1244 15.8458C11.2481 15.6422 11.3252 15.4146 11.3252 15.1839C11.3252 15.1839 10.6322 15.4902 9.92587 15.4902C9.21919 15.4902 8.5265 15.1839 8.5265 15.1839C8.5265 15.3972 8.5921 15.6071 8.69967 15.7989C8.85168 16.0695 9.07861 16.2905 9.35319 16.4353L9.16136 19.1762C8.23332 17.8561 6.65704 15.5318 6.16986 14.3056C6.09791 14.1647 6.05179 14.012 6.03368 13.8548C6.03026 13.8275 6.0256 13.8007 6.02436 13.7727C6.02405 13.7634 6.02125 13.7535 6.02094 13.7441C5.96964 13.7488 5.91865 13.7556 5.86766 13.7619C5.81699 13.7678 5.766 13.7724 5.71594 13.7793L5.70724 13.7805C2.48193 14.2301 0 16.9984 0 20.3471C0 24.0092 2.96881 24.0005 6.63093 24.0005H13.4602C17.1223 24.0005 20.0915 24.0092 20.0915 20.3471C20.0915 17.1066 17.7662 14.4092 14.6942 13.8309ZM17.0297 21.7626C17.0297 21.9915 16.8441 22.1771 16.6149 22.1771H13.7982C13.6882 22.1771 13.5828 22.1334 13.5051 22.0557C13.4274 21.978 13.3837 21.8725 13.3837 21.7626V20.0225C13.3837 19.7937 13.5693 19.6081 13.7982 19.6081H16.6156C16.8444 19.6081 17.0297 19.7937 17.0297 20.0225V21.7626Z" fill="#FFD61E"/>
<path d="M4.85136 7.10505H4.97417C4.97355 7.14205 4.9723 7.17843 4.9723 7.21542C4.97296 7.48661 4.99228 7.75742 5.03013 8.02595L5.04194 8.16896C5.36217 11.7891 7.47973 14.5857 10.0456 14.5857C12.6441 14.5857 14.7838 11.7164 15.0605 8.02812C15.0987 7.76323 15.1189 7.49182 15.1189 7.21574C15.1189 7.17874 15.1174 7.14205 15.1164 7.10537H15.2613C15.6801 7.10537 16.6824 6.76586 16.6824 6.34707C16.6824 5.92798 15.6798 5.58878 15.2613 5.58878H15.2582C14.9796 3.65901 13.736 1.76499 11.957 0.921826L11.8548 2.27705L11.7829 3.15224L11.6508 3.15006L11.7195 2.17445L11.8153 0.811766L11.8349 0.531332L11.0032 0.49589L11.0026 0.528845L10.9575 1.96179L10.9214 3.11773L10.9192 3.18582L10.853 5.30928H10.7094L10.8017 1.93506L10.8412 0.494024L10.8552 0H9.03238L9.04699 0.545012L9.08616 1.97143L9.17726 5.30928H9.03362L8.9674 3.18457L8.96522 3.11649L8.9304 2.00563L8.88625 0.589471L8.88314 0.494024L8.01915 0.531021L8.04744 0.935195L8.14071 2.26617L8.20258 3.14975L8.07045 3.15193L8.00547 2.37125L7.90598 1.04867C6.25384 1.95185 5.12091 3.75042 4.85509 5.58847H4.85198C4.4332 5.58847 3.43085 5.92767 3.43085 6.34676C3.43023 6.76555 4.43258 7.10505 4.85136 7.10505ZM6.24141 7.10505H13.7192C13.8548 7.54001 13.9117 7.95351 13.7864 8.23083L14.4984 7.41285C14.4957 7.62698 14.4791 7.84071 14.4486 8.05269C14.2058 11.2907 12.3273 13.8097 10.0456 13.8097C7.80089 13.8097 5.94667 11.3716 5.65567 8.20938C5.85309 8.25881 6.09559 8.35488 6.35924 8.53894C6.35924 8.53863 6.24514 7.85961 6.24141 7.10505Z" fill="#FFD61E"/>
</svg>
