<svg width="21" height="24" viewBox="0 0 21 24" fill="none" xmlns="http://www.w3.org/2000/svg">
<path d="M5.65527 8.20986C5.94659 11.372 7.8005 13.8101 10.0452 13.8101C12.3266 13.8101 14.2051 11.2909 14.4482 8.05286C14.4784 7.84393 14.4949 7.62972 14.498 7.41302L13.786 8.23069C13.9113 7.95368 13.8541 7.53987 13.7188 7.10522H6.24101C6.24506 7.8601 6.35916 8.53911 6.35916 8.53911C6.0952 8.35536 5.8527 8.25929 5.65527 8.20986Z" fill="#FC501D"/>
<path d="M14.5715 21.5077H14.1913C13.9874 21.5077 13.8223 21.5084 13.8223 21.3047C13.8222 21.2127 13.8565 21.124 13.9184 21.0561C13.9804 20.9881 14.0655 20.9457 14.1571 20.9372V20.9388C14.1578 20.9492 14.1605 20.9593 14.1652 20.9686C14.1922 21.037 14.2799 21.1661 14.3315 21.2394L14.3424 21.0871C14.3271 21.0791 14.3144 21.0669 14.3057 21.0519C14.2997 21.0414 14.2963 21.0296 14.2961 21.0174C14.2961 21.0174 14.3346 21.0348 14.3738 21.0348C14.4133 21.0348 14.4515 21.0174 14.4515 21.0174C14.4513 21.0306 14.4474 21.0434 14.4403 21.0544C14.432 21.0683 14.4199 21.0796 14.4055 21.0871L14.4158 21.2357C14.4708 21.1645 14.5594 21.0451 14.5917 20.9764C14.5982 20.9665 14.6023 20.9552 14.6036 20.9434L14.6039 20.9391V20.9375C14.6955 20.9461 14.7806 20.9884 14.8426 21.0564C14.9046 21.1244 14.939 21.213 14.939 21.305C14.9406 21.5084 14.7752 21.5077 14.5715 21.5077ZM16.4018 21.574H15.67C15.6367 21.5717 15.6056 21.5568 15.5829 21.5325C15.5601 21.5081 15.5475 21.4761 15.5475 21.4428C15.5475 21.4094 15.5601 21.3774 15.5829 21.353C15.6056 21.3287 15.6367 21.3138 15.67 21.3116H16.4018C16.4366 21.3116 16.47 21.3254 16.4946 21.35C16.5192 21.3746 16.533 21.408 16.533 21.4428C16.533 21.4776 16.5192 21.5109 16.4946 21.5355C16.47 21.5601 16.4366 21.574 16.4018 21.574ZM16.4018 20.8269H15.67C15.6352 20.8269 15.6018 20.813 15.5772 20.7884C15.5526 20.7638 15.5388 20.7305 15.5388 20.6957C15.5388 20.6609 15.5526 20.6275 15.5772 20.6029C15.6018 20.5783 15.6352 20.5645 15.67 20.5645H16.4018C16.4351 20.5667 16.4662 20.5816 16.4889 20.6059C16.5117 20.6303 16.5243 20.6623 16.5243 20.6957C16.5243 20.729 16.5117 20.761 16.4889 20.7854C16.4662 20.8097 16.4351 20.8246 16.4018 20.8269Z" fill="#FC501D"/>
<path d="M16.4015 20.5638H15.6697C15.6364 20.5661 15.6053 20.5809 15.5826 20.6053C15.5598 20.6297 15.5472 20.6617 15.5472 20.695C15.5472 20.7284 15.5598 20.7604 15.5826 20.7848C15.6053 20.8091 15.6364 20.824 15.6697 20.8262H16.4015C16.4363 20.8262 16.4697 20.8124 16.4943 20.7878C16.5189 20.7632 16.5327 20.7298 16.5327 20.695C16.5327 20.6602 16.5189 20.6269 16.4943 20.6023C16.4697 20.5777 16.4363 20.5638 16.4015 20.5638ZM16.4015 21.3103H15.6697C15.6348 21.3103 15.6013 21.3242 15.5767 21.3488C15.552 21.3735 15.5382 21.407 15.5382 21.4418C15.5382 21.4767 15.552 21.5102 15.5767 21.5348C15.6013 21.5595 15.6348 21.5733 15.6697 21.5733H16.4015C16.4364 21.5733 16.4699 21.5595 16.4945 21.5348C16.5192 21.5102 16.533 21.4767 16.533 21.4418C16.533 21.407 16.5192 21.3735 16.4945 21.3488C16.4699 21.3242 16.4364 21.3103 16.4015 21.3103ZM14.1024 20.6186L14.1027 20.6266C14.1207 20.8278 14.2389 20.9836 14.3813 20.9836C14.5259 20.9836 14.6449 20.8238 14.6602 20.6186C14.6652 20.5885 14.6652 20.5578 14.6602 20.5278C14.6393 20.3854 14.5224 20.2756 14.3813 20.2756C14.2398 20.2756 14.1226 20.3854 14.1024 20.5281C14.0988 20.5492 14.0978 20.5707 14.0993 20.5921C14.0997 20.601 14.1007 20.6098 14.1024 20.6186ZM14.2072 20.4584C14.2072 20.4584 14.4021 20.5533 14.5333 20.4584C14.5333 20.4584 14.6114 20.5816 14.5896 20.6301L14.6291 20.5844C14.6288 20.5963 14.6278 20.6083 14.626 20.6201C14.6126 20.8001 14.5078 20.94 14.381 20.94C14.2563 20.94 14.1531 20.8045 14.1366 20.6285C14.1478 20.6316 14.1612 20.6366 14.1758 20.6472C14.1761 20.6475 14.1481 20.4811 14.2072 20.4584Z" fill="#FC501D"/>
<path d="M14.6397 20.9418C14.6282 20.94 14.6167 20.9381 14.6048 20.9372V20.9387L14.6045 20.9431C14.6034 20.9549 14.5993 20.9662 14.5927 20.976C14.5604 21.0448 14.4715 21.1638 14.4167 21.2353L14.4062 21.087C14.4204 21.0793 14.4324 21.0681 14.441 21.0544C14.448 21.0433 14.4519 21.0305 14.4522 21.0174C14.4522 21.0174 14.4139 21.0348 14.3745 21.0348C14.3356 21.0348 14.2967 21.0174 14.2967 21.0174C14.2967 21.0295 14.3005 21.041 14.3064 21.0519C14.3149 21.0669 14.3277 21.0791 14.3431 21.087L14.3322 21.2394C14.2806 21.1663 14.1929 21.037 14.1658 20.9686C14.1618 20.9607 14.1593 20.9522 14.1584 20.9434L14.1578 20.9387V20.9372C14.0661 20.9456 13.981 20.9879 13.919 21.0559C13.857 21.1239 13.8228 21.2127 13.8229 21.3047C13.8229 21.5083 13.988 21.5077 14.192 21.5077H14.5722C14.7758 21.5077 14.9412 21.5083 14.9412 21.3047C14.9406 21.2187 14.9103 21.1355 14.8553 21.0694C14.8003 21.0032 14.7241 20.9582 14.6397 20.9418ZM6.03294 13.8548C6.033 13.8551 6.0331 13.8555 6.03325 13.8558L6.0345 13.8623C6.05253 14.0149 6.09761 14.1629 6.16912 14.3056V14.305C6.09979 14.1303 6.05346 13.9795 6.03325 13.8558L6.03294 13.8548ZM6.02331 13.7712C6.02268 13.7625 6.02144 13.7522 6.02113 13.7441H6.02051C6.02082 13.7535 6.02331 13.7634 6.02362 13.7727L6.02331 13.7712Z" fill="#FC501D"/>
<path d="M14.6942 13.8309C14.4881 13.7924 14.2803 13.7635 14.0714 13.7445H14.0705C14.0704 13.7505 14.0699 13.7565 14.069 13.7625L14.0677 13.7715L14.0674 13.7768C14.0665 13.7883 14.0649 13.7995 14.0634 13.811C14.0618 13.8225 14.0615 13.8331 14.0593 13.8452L14.059 13.8458V13.8467C14.0332 14.0025 13.9595 14.2037 13.8482 14.4393L13.8479 14.4403C13.2656 15.6724 11.6716 17.8232 10.6851 19.1063L10.4982 16.4353C10.7563 16.2989 10.9727 16.0952 11.1244 15.8458C11.2481 15.6422 11.3252 15.4146 11.3252 15.1839C11.3252 15.1839 10.6322 15.4902 9.92587 15.4902C9.21919 15.4902 8.5265 15.1839 8.5265 15.1839C8.5265 15.3972 8.5921 15.6071 8.69967 15.7989C8.85168 16.0695 9.07861 16.2905 9.35319 16.4353L9.16136 19.1762C8.23332 17.8561 6.65704 15.5318 6.16986 14.3056C6.09791 14.1647 6.05179 14.012 6.03368 13.8548C6.03026 13.8275 6.0256 13.8007 6.02436 13.7727C6.02405 13.7634 6.02125 13.7535 6.02094 13.7441C5.96964 13.7488 5.91865 13.7556 5.86766 13.7619C5.81699 13.7678 5.766 13.7724 5.71594 13.7793L5.70724 13.7805C2.48193 14.2301 0 16.9984 0 20.3471C0 24.0092 2.96881 24.0005 6.63093 24.0005H13.4602C17.1223 24.0005 20.0915 24.0092 20.0915 20.3471C20.0915 17.1066 17.7662 14.4092 14.6942 13.8309ZM17.0297 21.7626C17.0297 21.9915 16.8441 22.1771 16.6149 22.1771H13.7982C13.6882 22.1771 13.5828 22.1334 13.5051 22.0557C13.4274 21.978 13.3837 21.8725 13.3837 21.7626V20.0225C13.3837 19.7937 13.5693 19.6081 13.7982 19.6081H16.6156C16.8444 19.6081 17.0297 19.7937 17.0297 20.0225V21.7626Z" fill="#FC501D"/>
<path d="M4.85118 7.10505H4.97398C4.97336 7.14205 4.97212 7.17843 4.97212 7.21542C4.97278 7.48661 4.9921 7.75742 5.02995 8.02595L5.04176 8.16896C5.36199 11.7891 7.47955 14.5857 10.0454 14.5857C12.6439 14.5857 14.7836 11.7164 15.0603 8.02812C15.0985 7.76323 15.1187 7.49182 15.1187 7.21574C15.1187 7.17874 15.1172 7.14205 15.1162 7.10537H15.2611C15.6799 7.10537 16.6823 6.76586 16.6823 6.34707C16.6823 5.92798 15.6796 5.58878 15.2611 5.58878H15.258C14.9794 3.65901 13.7358 1.76499 11.9569 0.921826L11.8546 2.27705L11.7828 3.15224L11.6506 3.15006L11.7193 2.17445L11.8151 0.811766L11.8347 0.531332L11.003 0.49589L11.0024 0.528845L10.9573 1.96179L10.9212 3.11773L10.9191 3.18582L10.8528 5.30928H10.7092L10.8015 1.93506L10.841 0.494024L10.855 0H9.0322L9.04681 0.545012L9.08598 1.97143L9.17708 5.30928H9.03344L8.96722 3.18457L8.96504 3.11649L8.93022 2.00563L8.88607 0.589471L8.88296 0.494024L8.01896 0.531021L8.04726 0.935195L8.14053 2.26617L8.2024 3.14975L8.07026 3.15193L8.00528 2.37125L7.9058 1.04867C6.25366 1.95185 5.12073 3.75042 4.85491 5.58847H4.8518C4.43301 5.58847 3.43066 5.92767 3.43066 6.34676C3.43004 6.76555 4.43239 7.10505 4.85118 7.10505ZM6.24122 7.10505H13.7191C13.8546 7.54001 13.9115 7.95351 13.7862 8.23083L14.4982 7.41285C14.4955 7.62698 14.4789 7.84071 14.4484 8.05269C14.2056 11.2907 12.3271 13.8097 10.0454 13.8097C7.80071 13.8097 5.94649 11.3716 5.65548 8.20938C5.85291 8.25881 6.09541 8.35488 6.35906 8.53894C6.35906 8.53863 6.24495 7.85961 6.24122 7.10505Z" fill="#FC501D"/>
</svg>
