<svg width="21" height="24" viewBox="0 0 21 24" fill="none" xmlns="http://www.w3.org/2000/svg">
<path d="M6.10986 8.20986C6.40118 11.372 8.25509 13.8101 10.4998 13.8101C12.7812 13.8101 14.6597 11.2909 14.9028 8.05286C14.933 7.84393 14.9494 7.62972 14.9526 7.41302L14.2406 8.23069C14.3659 7.95368 14.3087 7.53987 14.1734 7.10522H6.6956C6.69964 7.8601 6.81375 8.53911 6.81375 8.53911C6.54979 8.35536 6.30729 8.25929 6.10986 8.20986Z" fill="#FF6610"/>
<path d="M15.0252 21.5077H14.6449C14.441 21.5077 14.2759 21.5084 14.2759 21.3047C14.2758 21.2127 14.3101 21.124 14.3721 21.0561C14.434 20.9881 14.5191 20.9457 14.6107 20.9372V20.9388C14.6114 20.9492 14.6142 20.9593 14.6188 20.9686C14.6459 21.037 14.7335 21.1661 14.7851 21.2394L14.796 21.0871C14.7807 21.0791 14.768 21.0669 14.7593 21.0519C14.7533 21.0414 14.75 21.0296 14.7497 21.0174C14.7497 21.0174 14.7882 21.0348 14.8274 21.0348C14.8669 21.0348 14.9051 21.0174 14.9051 21.0174C14.9049 21.0306 14.9011 21.0434 14.894 21.0544C14.8856 21.0683 14.8735 21.0796 14.8591 21.0871L14.8694 21.2357C14.9244 21.1645 15.013 21.0451 15.0454 20.9764C15.0518 20.9665 15.0559 20.9552 15.0572 20.9434L15.0575 20.9391V20.9375C15.1491 20.9461 15.2342 20.9884 15.2962 21.0564C15.3582 21.1244 15.3926 21.213 15.3926 21.305C15.3942 21.5084 15.2288 21.5077 15.0252 21.5077ZM16.8554 21.574H16.1236C16.0903 21.5717 16.0592 21.5568 16.0365 21.5325C16.0137 21.5081 16.0011 21.4761 16.0011 21.4428C16.0011 21.4094 16.0137 21.3774 16.0365 21.353C16.0592 21.3287 16.0903 21.3138 16.1236 21.3116H16.8554C16.8902 21.3116 16.9236 21.3254 16.9482 21.35C16.9728 21.3746 16.9866 21.408 16.9866 21.4428C16.9866 21.4776 16.9728 21.5109 16.9482 21.5355C16.9236 21.5601 16.8902 21.574 16.8554 21.574ZM16.8554 20.8269H16.1236C16.0888 20.8269 16.0554 20.813 16.0308 20.7884C16.0062 20.7638 15.9924 20.7305 15.9924 20.6957C15.9924 20.6609 16.0062 20.6275 16.0308 20.6029C16.0554 20.5783 16.0888 20.5645 16.1236 20.5645H16.8554C16.8887 20.5667 16.9198 20.5816 16.9425 20.6059C16.9653 20.6303 16.9779 20.6623 16.9779 20.6957C16.9779 20.729 16.9653 20.761 16.9425 20.7854C16.9198 20.8097 16.8887 20.8246 16.8554 20.8269Z" fill="#FF6610"/>
<path d="M16.8556 20.5638H16.1238C16.0905 20.5661 16.0594 20.5809 16.0367 20.6053C16.0139 20.6297 16.0013 20.6617 16.0013 20.695C16.0013 20.7284 16.0139 20.7604 16.0367 20.7848C16.0594 20.8091 16.0905 20.824 16.1238 20.8262H16.8556C16.8904 20.8262 16.9238 20.8124 16.9484 20.7878C16.973 20.7632 16.9868 20.7298 16.9868 20.695C16.9868 20.6602 16.973 20.6269 16.9484 20.6023C16.9238 20.5777 16.8904 20.5638 16.8556 20.5638ZM16.8556 21.3103H16.1238C16.0889 21.3103 16.0554 21.3242 16.0308 21.3488C16.0061 21.3735 15.9923 21.407 15.9923 21.4418C15.9923 21.4767 16.0061 21.5102 16.0308 21.5348C16.0554 21.5595 16.0889 21.5733 16.1238 21.5733H16.8556C16.8905 21.5733 16.924 21.5595 16.9486 21.5348C16.9733 21.5102 16.9871 21.4767 16.9871 21.4418C16.9871 21.407 16.9733 21.3735 16.9486 21.3488C16.924 21.3242 16.8905 21.3103 16.8556 21.3103ZM14.5565 20.6186L14.5568 20.6266C14.5748 20.8278 14.693 20.9836 14.8354 20.9836C14.98 20.9836 15.099 20.8238 15.1143 20.6186C15.1193 20.5885 15.1193 20.5578 15.1143 20.5278C15.0934 20.3854 14.9765 20.2756 14.8354 20.2756C14.6939 20.2756 14.5767 20.3854 14.5565 20.5281C14.5529 20.5492 14.5519 20.5707 14.5534 20.5921C14.5538 20.601 14.5548 20.6098 14.5565 20.6186ZM14.6613 20.4584C14.6613 20.4584 14.8562 20.5533 14.9874 20.4584C14.9874 20.4584 15.0655 20.5816 15.0437 20.6301L15.0832 20.5844C15.0829 20.5963 15.0819 20.6083 15.0801 20.6201C15.0667 20.8001 14.9619 20.94 14.8351 20.94C14.7104 20.94 14.6072 20.8045 14.5907 20.6285C14.6019 20.6316 14.6153 20.6366 14.6299 20.6472C14.6302 20.6475 14.6022 20.4811 14.6613 20.4584Z" fill="#FF6610"/>
<path d="M15.0938 20.9418C15.0823 20.94 15.0708 20.9381 15.0589 20.9372V20.9387L15.0586 20.9431C15.0575 20.9549 15.0534 20.9662 15.0468 20.976C15.0145 21.0448 14.9256 21.1638 14.8708 21.2353L14.8603 21.087C14.8745 21.0793 14.8865 21.0681 14.8951 21.0544C14.9021 21.0433 14.906 21.0305 14.9063 21.0174C14.9063 21.0174 14.868 21.0348 14.8286 21.0348C14.7897 21.0348 14.7508 21.0174 14.7508 21.0174C14.7508 21.0295 14.7546 21.041 14.7605 21.0519C14.769 21.0669 14.7818 21.0791 14.7972 21.087L14.7863 21.2394C14.7347 21.1663 14.647 21.037 14.6199 20.9686C14.6159 20.9607 14.6134 20.9522 14.6125 20.9434L14.6119 20.9387V20.9372C14.5202 20.9456 14.4351 20.9879 14.3731 21.0559C14.3111 21.1239 14.2769 21.2127 14.277 21.3047C14.277 21.5083 14.4421 21.5077 14.6461 21.5077H15.0263C15.2299 21.5077 15.3953 21.5083 15.3953 21.3047C15.3947 21.2187 15.3644 21.1355 15.3094 21.0694C15.2544 21.0032 15.1782 20.9582 15.0938 20.9418ZM6.48705 13.8548C6.4871 13.8551 6.4872 13.8555 6.48736 13.8558L6.4886 13.8623C6.50663 14.0149 6.55171 14.1629 6.62322 14.3056V14.305C6.55389 14.1303 6.50756 13.9795 6.48736 13.8558L6.48705 13.8548ZM6.47741 13.7712C6.47679 13.7625 6.47554 13.7522 6.47523 13.7441H6.47461C6.47492 13.7535 6.47741 13.7634 6.47772 13.7727L6.47741 13.7712Z" fill="#FF6610"/>
<path d="M15.1483 13.8309C14.9422 13.7924 14.7344 13.7635 14.5255 13.7445H14.5246C14.5245 13.7505 14.524 13.7565 14.5231 13.7625L14.5218 13.7715L14.5215 13.7768C14.5206 13.7883 14.519 13.7995 14.5175 13.811C14.5159 13.8225 14.5156 13.8331 14.5134 13.8452L14.5131 13.8458V13.8467C14.4873 14.0025 14.4136 14.2037 14.3023 14.4393L14.302 14.4403C13.7197 15.6724 12.1257 17.8232 11.1392 19.1063L10.9523 16.4353C11.2104 16.2989 11.4268 16.0952 11.5785 15.8458C11.7022 15.6422 11.7793 15.4146 11.7793 15.1839C11.7793 15.1839 11.0863 15.4902 10.38 15.4902C9.67329 15.4902 8.9806 15.1839 8.9806 15.1839C8.9806 15.3972 9.0462 15.6071 9.15377 15.7989C9.30578 16.0695 9.53271 16.2905 9.80729 16.4353L9.61547 19.1762C8.68742 17.8561 7.11115 15.5318 6.62396 14.3056C6.55201 14.1647 6.50589 14.012 6.48779 13.8548C6.48437 13.8275 6.4797 13.8007 6.47846 13.7727C6.47815 13.7634 6.47535 13.7535 6.47504 13.7441C6.42374 13.7488 6.37275 13.7556 6.32176 13.7619C6.27109 13.7678 6.2201 13.7724 6.17004 13.7793L6.16134 13.7805C2.93604 14.2301 0.454102 16.9984 0.454102 20.3471C0.454102 24.0092 3.42291 24.0005 7.08503 24.0005H13.9143C17.5764 24.0005 20.5456 24.0092 20.5456 20.3471C20.5456 17.1066 18.2203 14.4092 15.1483 13.8309ZM17.4838 21.7626C17.4838 21.9915 17.2982 22.1771 17.069 22.1771H14.2523C14.1424 22.1771 14.0369 22.1334 13.9592 22.0557C13.8815 21.978 13.8378 21.8725 13.8378 21.7626V20.0225C13.8378 19.7937 14.0234 19.6081 14.2523 19.6081H17.0697C17.2985 19.6081 17.4838 19.7937 17.4838 20.0225V21.7626Z" fill="#FF6610"/>
<path d="M5.30528 7.10505H5.42809C5.42746 7.14205 5.42622 7.17843 5.42622 7.21542C5.42688 7.48661 5.4462 7.75742 5.48405 8.02595L5.49586 8.16896C5.81609 11.7891 7.93365 14.5857 10.4995 14.5857C13.0981 14.5857 15.2377 11.7164 15.5144 8.02812C15.5526 7.76323 15.5728 7.49182 15.5728 7.21574C15.5728 7.17874 15.5713 7.14205 15.5703 7.10537H15.7152C16.134 7.10537 17.1364 6.76586 17.1364 6.34707C17.1364 5.92798 16.1337 5.58878 15.7152 5.58878H15.7121C15.4335 3.65901 14.1899 1.76499 12.411 0.921826L12.3087 2.27705L12.2369 3.15224L12.1047 3.15006L12.1734 2.17445L12.2692 0.811766L12.2888 0.531332L11.4571 0.49589L11.4565 0.528845L11.4114 1.96179L11.3753 3.11773L11.3732 3.18582L11.3069 5.30928H11.1633L11.2556 1.93506L11.2951 0.494024L11.3091 0H9.4863L9.50091 0.545012L9.54008 1.97143L9.63118 5.30928H9.48754L9.42132 3.18457L9.41914 3.11649L9.38432 2.00563L9.34017 0.589471L9.33706 0.494024L8.47307 0.531021L8.50136 0.935195L8.59463 2.26617L8.6565 3.14975L8.52436 3.15193L8.45939 2.37125L8.3599 1.04867C6.70776 1.95185 5.57483 3.75042 5.30901 5.58847H5.3059C4.88712 5.58847 3.88477 5.92767 3.88477 6.34676C3.88414 6.76555 4.88649 7.10505 5.30528 7.10505ZM6.69532 7.10505H14.1732C14.3087 7.54001 14.3656 7.95351 14.2403 8.23083L14.9523 7.41285C14.9496 7.62698 14.933 7.84071 14.9025 8.05269C14.6597 11.2907 12.7812 13.8097 10.4995 13.8097C8.25481 13.8097 6.40059 11.3716 6.10958 8.20938C6.30701 8.25881 6.54951 8.35488 6.81316 8.53894C6.81316 8.53863 6.69906 7.85961 6.69532 7.10505Z" fill="#FF6610"/>
</svg>
