<?xml version="1.0" encoding="UTF-8"?>
<svg version="1.1" xmlns="http://www.w3.org/2000/svg" width="1920" height="700">
<path d="M0 0 C633.6 0 1267.2 0 1920 0 C1920 392.47722772 1920 392.47722772 1909 404 C1898.11389801 414.39221456 1884.52242777 416.0485791 1870.26000977 418.31494141 C1868.38075656 418.62168247 1866.50165771 418.92937051 1864.62270164 419.23792648 C1859.5290149 420.07163958 1854.43326987 420.89208011 1849.33705211 421.71015882 C1843.89340415 422.58640322 1838.45177775 423.47503565 1833.00990295 424.36221313 C1822.73046666 426.0361632 1812.44931172 427.69929239 1802.16742879 429.35814106 C1791.50660741 431.07852624 1780.84753968 432.80961818 1770.1887449 434.54250801 C1749.30968253 437.93658226 1728.42817349 441.31543864 1707.54601377 444.69039553 C1706.46651679 444.86486329 1705.3870198 445.03933104 1704.27481079 445.21908569 C1702.64569506 445.48237985 1702.64569506 445.48237985 1700.98366791 445.75099307 C1678.56384589 449.37470449 1656.14512061 453.00519738 1633.7265625 456.63671875 C1632.52402871 456.83150354 1631.32149493 457.02628832 1630.08252072 457.22697568 C1578.06163479 465.65360049 1526.05165601 474.14636347 1474.04470062 482.65848398 C1455.68356301 485.66366127 1437.32232602 488.66823111 1418.9609375 491.671875 C1417.89841231 491.84569238 1416.83588713 492.01950976 1415.74116421 492.19859433 C1368.16116832 499.98188186 1320.57367539 507.71877146 1272.98406267 515.44301319 C1269.93757331 515.9374881 1266.89108656 516.43197913 1263.84460068 516.92647552 C1259.7787905 517.58642541 1255.71297971 518.24637151 1251.64716816 518.90631294 C1242.4536887 520.39855263 1233.2602122 521.89081061 1224.06674314 523.38311434 C1222.01396307 523.71632308 1219.96118212 524.0495264 1217.9084003 524.38272429 C1184.74369947 529.76586524 1151.58028821 535.15689579 1118.41796875 540.5546875 C1117.31508381 540.73420212 1116.21219886 540.91371674 1115.07589316 541.0986712 C1090.48767912 545.10091929 1065.89971936 549.10472838 1041.31190908 553.10945618 C1032.38389727 554.56359356 1023.45587303 556.01765459 1014.52784514 557.47169328 C1012.2856428 557.83686657 1010.04344147 558.20204611 1007.80124116 558.56723189 C974.07980008 564.05941278 940.35698932 569.543118 906.63322341 575.02100509 C897.77336336 576.4601918 888.91358489 577.89987983 880.05386353 579.33992004 C878.81816325 579.54076747 877.58246297 579.7416149 876.30931723 579.94854861 C870.13205487 580.95260356 863.95480331 581.95672493 857.77755928 582.96089268 C844.58379712 585.10555325 831.38975919 587.24850274 818.19536698 589.38928372 C809.24279969 590.84197587 800.29055405 592.29663893 791.33855522 593.75282997 C786.17951839 594.59196212 781.02033884 595.43018973 775.86075974 596.26598167 C771.12230289 597.03356817 766.38426827 597.80370891 761.64654422 598.57580507 C759.94066678 598.85335402 758.2346408 599.12999209 756.52844548 599.40558016 C748.57228931 600.69115145 740.62638959 602.01648013 732.71313477 603.54675293 C731.54669937 603.77203423 730.38026398 603.99731552 729.17848206 604.22942352 C718.33106738 606.85922053 710.11010807 613.26829881 704.31959534 622.65440369 C702.02843906 626.72696106 700.3323573 631.01801246 698.6015625 635.3515625 C698.0044899 636.81630508 698.0044899 636.81630508 697.39535522 638.31063843 C696.13151927 641.41261813 694.87732728 644.518358 693.625 647.625 C676.48071656 690.07846511 676.48071656 690.07846511 660 698 C654.07242 700.09651168 648.70743546 700.28359486 642.4525938 700.25726891 C641.39734443 700.26077498 640.34209505 700.26428105 639.25486842 700.26789337 C635.70718812 700.27722168 632.15967145 700.27228028 628.61198425 700.26742554 C626.0474426 700.27116106 623.48290209 700.27576219 620.91836339 700.28115618 C615.3364462 700.29145868 609.7545637 700.29429954 604.17263794 700.29224396 C595.87199846 700.28919465 587.57139737 700.29751638 579.27076535 700.30799321 C563.58344782 700.32734 547.89614335 700.33296167 532.2088153 700.33410732 C520.09522002 700.33502621 507.98162988 700.33914182 495.86803627 700.34550858 C492.38188611 700.34730364 488.89573594 700.34908327 485.40958577 700.35085833 C484.54293444 700.35130043 483.6762831 700.35174252 482.7833696 700.35219802 C458.40458478 700.36450719 434.02580173 700.37239906 409.64701366 700.37151146 C408.72778888 700.3714803 407.80856409 700.37144914 406.86148401 700.37141704 C402.20240577 700.37125083 397.54332753 700.37105274 392.88424929 700.37084763 C391.95892917 700.37080774 391.03360905 700.37076785 390.08024893 700.37072675 C388.20902627 700.37064587 386.33780361 700.37056228 384.46658095 700.37047596 C355.35001512 700.36925031 326.23349586 700.38426594 297.11694336 700.41162109 C264.40952072 700.44233718 231.70212869 700.45955389 198.99469072 700.45769465 C195.50759749 700.45754539 192.02050426 700.45744797 188.53341103 700.45738602 C187.67479116 700.45736271 186.81617129 700.4573394 185.93153264 700.45731538 C172.11004566 700.45725382 158.28859909 700.47002919 144.46712412 700.48725055 C130.57833498 700.50419797 116.68960501 700.50618783 102.80081125 700.4930319 C94.54888073 700.48563695 86.29712986 700.48931693 78.04521834 700.50891658 C71.88496176 700.52231246 65.72489717 700.51482066 59.56464962 700.49917014 C57.07142575 700.49608697 54.5781825 700.49978185 52.08498146 700.51089029 C48.69797762 700.52498318 45.31190178 700.51444597 41.92492962 700.49777794 C40.95529782 700.5077143 39.98566603 700.51765066 38.98665145 700.52788812 C28.03637228 700.41383634 18.29428514 695.82221376 10.28125 688.41015625 C-145.31512218 519.71510988 0 229.49564201 0 0 Z " fill="#FEBE42" transform="translate(0,0)"/>
<path d="M0 0 C0.12752571 10.55939203 -0.2662926 21.03078168 -0.83984375 31.5703125 C-0.92739864 33.22548015 -1.01467837 34.88066237 -1.10169983 36.53585815 C-1.28353796 39.97992332 -1.46781274 43.4238459 -1.65405273 46.86767578 C-1.89091775 51.24901642 -2.12292693 55.63059701 -2.3532629 60.01228523 C-2.53281525 63.42186343 -2.71429269 66.83133699 -2.89639473 70.24077988 C-2.98252657 71.85525107 -3.0682357 73.46974488 -3.15348625 75.08426285 C-3.62960534 84.06935511 -4.17985484 93.03827827 -5 102 C-9.2499944 102.02782154 -13.49994266 102.04680886 -17.75 102.0625 C-19.55984375 102.07506836 -19.55984375 102.07506836 -21.40625 102.08789062 C-22.56640625 102.09111328 -23.7265625 102.09433594 -24.921875 102.09765625 C-25.99018555 102.10289307 -27.05849609 102.10812988 -28.15917969 102.11352539 C-30.62389235 102.01503008 -32.65245467 101.71565464 -35 101 C-35 100.34 -35 99.68 -35 99 C-33.68 99 -32.36 99 -31 99 C-31 98.34 -31 97.68 -31 97 C-32.32 96.67 -33.64 96.34 -35 96 C-33.02 95.505 -33.02 95.505 -31 95 C-30.67 93.35 -30.34 91.7 -30 90 C-31.32 89.67 -32.64 89.34 -34 89 C-32.68 89 -31.36 89 -30 89 C-30 87.35 -30 85.7 -30 84 C-31.32 83.34 -32.64 82.68 -34 82 C-32.35 82 -30.7 82 -29 82 C-29 81.34 -29 80.68 -29 80 C-30.65 80 -32.3 80 -34 80 C-33.01 79.01 -33.01 79.01 -32 78 C-31.01 78.33 -30.02 78.66 -29 79 C-29 78.34 -29 77.68 -29 77 C-29.66 76.67 -30.32 76.34 -31 76 C-29.515 75.505 -29.515 75.505 -28 75 C-28.33 74.01 -28.66 73.02 -29 72 C-28.505 71.01 -28.505 71.01 -28 70 C-28.99 69.67 -29.98 69.34 -31 69 C-30.01 69 -29.02 69 -28 69 C-28 68.34 -28 67.68 -28 67 C-28.99 66.67 -29.98 66.34 -31 66 C-30.01 65.505 -30.01 65.505 -29 65 C-29 64.01 -29 63.02 -29 62 C-28.34 62 -27.68 62 -27 62 C-27 61.34 -27 60.68 -27 60 C-27.99 59.67 -28.98 59.34 -30 59 C-29.01 59 -28.02 59 -27 59 C-27 58.34 -27 57.68 -27 57 C-27.99 56.67 -28.98 56.34 -30 56 C-28.02 55.505 -28.02 55.505 -26 55 C-26.495 53.515 -26.495 53.515 -27 52 C-26.67 51.34 -26.34 50.68 -26 50 C-26.99 49.67 -27.98 49.34 -29 49 C-28.01 49 -27.02 49 -26 49 C-26 48.34 -26 47.68 -26 47 C-26.66 46.67 -27.32 46.34 -28 46 C-26.515 45.505 -26.515 45.505 -25 45 C-25.495 43.515 -25.495 43.515 -26 42 C-25.67 41.34 -25.34 40.68 -25 40 C-25.66 39.67 -26.32 39.34 -27 39 C-26.34 39 -25.68 39 -25 39 C-25 38.34 -25 37.68 -25 37 C-25.66 36.67 -26.32 36.34 -27 36 C-25.515 35.505 -25.515 35.505 -24 35 C-24.495 33.515 -24.495 33.515 -25 32 C-24.67 31.34 -24.34 30.68 -24 30 C-24.66 29.67 -25.32 29.34 -26 29 C-25.34 29 -24.68 29 -24 29 C-24 28.34 -24 27.68 -24 27 C-24.66 26.67 -25.32 26.34 -26 26 C-25.01 25.67 -24.02 25.34 -23 25 C-23.33 24.01 -23.66 23.02 -24 22 C-23.67 21.34 -23.34 20.68 -23 20 C-23.66 19.67 -24.32 19.34 -25 19 C-24.67 17.68 -24.34 16.36 -24 15 C-23.34 15 -22.68 15 -22 15 C-22 13.68 -22 12.36 -22 11 C-23.98 11.33 -25.96 11.66 -28 12 C-25.169731 8.85452512 -22.84649722 7.26740511 -18.8671875 5.859375 C-17.41119141 5.33730469 -17.41119141 5.33730469 -15.92578125 4.8046875 C-14.41564453 4.28261719 -14.41564453 4.28261719 -12.875 3.75 C-11.86050781 3.38648438 -10.84601563 3.02296875 -9.80078125 2.6484375 C-2.32342575 0 -2.32342575 0 0 0 Z " fill="#FEBE42" transform="translate(290,598)"/>
<path d="M0 0 C0 1.32 0 2.64 0 4 C-0.66 4.33 -1.32 4.66 -2 5 C-1.835 5.556875 -1.67 6.11375 -1.5 6.6875 C-0.95958649 9.18691249 -0.92917935 11.45045662 -1 14 C-1.66 14.33 -2.32 14.66 -3 15 C-2.835 15.556875 -2.67 16.11375 -2.5 16.6875 C-1.95958649 19.18691249 -1.92917935 21.45045662 -2 24 C-2.66 24.33 -3.32 24.66 -4 25 C-3.835 25.556875 -3.67 26.11375 -3.5 26.6875 C-2.95958649 29.18691249 -2.92917935 31.45045662 -3 34 C-3.99 34.495 -3.99 34.495 -5 35 C-4.835 35.556875 -4.67 36.11375 -4.5 36.6875 C-3.95958649 39.18691249 -3.92917935 41.45045662 -4 44 C-4.99 44.495 -4.99 44.495 -6 45 C-5.79375 45.53625 -5.5875 46.0725 -5.375 46.625 C-4.87155011 49.81351598 -5.98918349 51.96755048 -7 55 C-6.67156616 57.06381575 -6.67156616 57.06381575 -6 59 C-5.96213099 60.66623639 -5.95372155 62.33397597 -6 64 C-6.99 64.495 -6.99 64.495 -8 65 C-7.67 65.99 -7.34 66.98 -7 68 C-8.32 68 -9.64 68 -11 68 C-9.02 68.495 -9.02 68.495 -7 69 C-7 69.66 -7 70.32 -7 71 C-8.485 71.495 -8.485 71.495 -10 72 C-9.34 72.33 -8.68 72.66 -8 73 C-7.97284617 74.74991334 -7.95353449 76.49994945 -7.9375 78.25 C-7.92589844 79.22453125 -7.91429687 80.1990625 -7.90234375 81.203125 C-7.98804423 83.65758678 -8.29293934 85.66168914 -9 88 C-10.32 88 -11.64 88 -13 88 C-13 88.66 -13 89.32 -13 90 C-11.68 89.67 -10.36 89.34 -9 89 C-9 89.66 -9 90.32 -9 91 C-11.64 91 -14.28 91 -17 91 C-16.86027432 86.81227299 -16.71212919 82.62488393 -16.5625 78.4375 C-16.52318359 77.25607422 -16.48386719 76.07464844 -16.44335938 74.85742188 C-16.2362496 69.16986877 -15.98031568 63.61004186 -15 58 C-15.66 58 -16.32 58 -17 58 C-17.33 61.96 -17.66 65.92 -18 70 C-18.99 70 -19.98 70 -21 70 C-21 64.72 -21 59.44 -21 54 C-21.165 56.578125 -21.33 59.15625 -21.5 61.8125 C-21.55220703 62.62050049 -21.60441406 63.42850098 -21.65820312 64.26098633 C-21.84275737 67.17979955 -22 70.07461547 -22 73 C-22.495 74.485 -22.495 74.485 -23 76 C-23.66 76 -24.32 76 -25 76 C-25 75.34 -25 74.68 -25 74 C-30.94 74.99 -30.94 74.99 -37 76 C-36.505 74.515 -36.505 74.515 -36 73 C-38.97 73.99 -38.97 73.99 -42 75 C-41.67 75.66 -41.34 76.32 -41 77 C-41.66 77.99 -42.32 78.98 -43 80 C-43 79.34 -43 78.68 -43 78 C-44.11375 78.515625 -45.2275 79.03125 -46.375 79.5625 C-47.57125 80.036875 -48.7675 80.51125 -50 81 C-50.66 80.67 -51.32 80.34 -52 80 C-52 80.99 -52 81.98 -52 83 C-54.475 83.495 -54.475 83.495 -57 84 C-58.125 82.25 -58.125 82.25 -59 80 C-58.125 77.75 -58.125 77.75 -57 76 C-60.71279469 74.76240177 -64.31306346 74.64391103 -68.1875 74.4375 C-69.31188477 74.37272461 -69.31188477 74.37272461 -70.45898438 74.30664062 C-72.30578375 74.20077315 -74.15286834 74.0999024 -76 74 C-75.505 73.01 -75.505 73.01 -75 72 C-73.84552368 72.07686035 -73.84552368 72.07686035 -72.66772461 72.15527344 C-58.30209802 73.05319223 -45.67067213 73.80432369 -32 69 C-31.01 69 -30.02 69 -29 69 C-29 68.01 -29 67.02 -29 66 C-33.95 66.99 -33.95 66.99 -39 68 C-39 67.34 -39 66.68 -39 66 C-38.04287109 65.83564453 -38.04287109 65.83564453 -37.06640625 65.66796875 C-35.82697266 65.43013672 -35.82697266 65.43013672 -34.5625 65.1875 C-33.32693359 64.96126953 -33.32693359 64.96126953 -32.06640625 64.73046875 C-31.04353516 64.36888672 -31.04353516 64.36888672 -30 64 C-29.67 63.01 -29.34 62.02 -29 61 C-32.63 61.99 -36.26 62.98 -40 64 C-39.505 63.01 -39.505 63.01 -39 62 C-36.71484375 61.3671875 -36.71484375 61.3671875 -33.9375 60.875 C-33.01839844 60.70742188 -32.09929687 60.53984375 -31.15234375 60.3671875 C-30.44207031 60.24601563 -29.73179687 60.12484375 -29 60 C-29 59.01 -29 58.02 -29 57 C-31.97 57.66 -34.94 58.32 -38 59 C-38.33 58.34 -38.66 57.68 -39 57 C-37.73160474 56.49384702 -36.46016898 55.99530901 -35.1875 55.5 C-34.47980469 55.2215625 -33.77210938 54.943125 -33.04296875 54.65625 C-31 54 -31 54 -28 54 C-28 51.03 -28 48.06 -28 45 C-26.865625 44.87625 -25.73125 44.7525 -24.5625 44.625 C-21.39646738 44.23447925 -18.32484251 43.66998263 -15.21484375 42.9609375 C-14.42070068 42.78095215 -13.62655762 42.6009668 -12.80834961 42.41552734 C-12.21159424 42.27840332 -11.61483887 42.1412793 -11 42 C-11.00523682 41.43079834 -11.01047363 40.86159668 -11.01586914 40.27514648 C-11.03682887 37.66260917 -11.04972004 35.05008963 -11.0625 32.4375 C-11.07087891 31.54224609 -11.07925781 30.64699219 -11.08789062 29.72460938 C-11.10630748 24.69680691 -10.84493701 19.95652023 -10 15 C-10 14.67 -10 14.34 -10 14 C-10 11 -10 11 -9 10 C-9 9.34 -9 8.68 -9 8 C-8.34 7.67 -7.68 7.34 -7 7 C-7.99 6.505 -7.99 6.505 -9 6 C-8.67 5.01 -8.34 4.02 -8 3 C-7.01 3.495 -7.01 3.495 -6 4 C-5.67 3.01 -5.34 2.02 -5 1 C-2 0 -2 0 0 0 Z " fill="#EEB340" transform="translate(268,609)"/>
<path d="M0 0 C-0.33 0.33 -0.66 0.66 -1 1 C-0.34 1.66 0.32 2.32 1 3 C0.01 3.66 -0.98 4.32 -2 5 C1.3 4.34 4.6 3.68 8 3 C7.67 4.65 7.34 6.3 7 8 C4.625 9.375 4.625 9.375 2 10 C-1 9 -1 9 -3 8 C-3 9.65 -3 11.3 -3 13 C0.3 12.34 3.6 11.68 7 11 C4.3144406 13.6855594 1.62378672 14.06049974 -2 15 C-2 16.65 -2 18.3 -2 20 C-0.02 19.67 1.96 19.34 4 19 C3.01 19.33 2.02 19.66 1 20 C1 20.66 1 21.32 1 22 C0.01 22 -0.98 22 -2 22 C-2 23.65 -2 25.3 -2 27 C-1.2575 26.649375 -0.515 26.29875 0.25 25.9375 C3 25 3 25 7 26 C4.03 26.66 1.06 27.32 -2 28 C-2 29.98 -2 31.96 -2 34 C0.475 33.505 0.475 33.505 3 33 C2.34 33.66 1.68 34.32 1 35 C0.01 35 -0.98 35 -2 35 C-2 35.66 -2 36.32 -2 37 C-1.34 37.33 -0.68 37.66 0 38 C0 38.66 0 39.32 0 40 C0.66 40.33 1.32 40.66 2 41 C0.515 41.495 0.515 41.495 -1 42 C-0.67 42.99 -0.34 43.98 0 45 C-0.08767087 47.74607776 -0.22956735 50.45091508 -0.4375 53.1875 C-0.48970703 53.93708984 -0.54191406 54.68667969 -0.59570312 55.45898438 C-0.72513784 57.30637082 -0.86186518 59.15324371 -1 61 C-0.01 61 0.98 61 2 61 C2 61.66 2 62.32 2 63 C1.34 63 0.68 63 0 63 C0.185625 63.86625 0.37125 64.7325 0.5625 65.625 C1.00849377 69.06552335 0.63948401 71.61784012 0 75 C1.03930664 74.72212646 2.07861328 74.44425293 3.14941406 74.15795898 C7.0083838 73.12891734 10.87058557 72.11250095 14.73388672 71.09985352 C16.40504252 70.65993059 18.07530388 70.21659511 19.74462891 69.76977539 C22.14518514 69.1278658 24.54869745 68.49832412 26.953125 67.87109375 C27.69806213 67.66906845 28.44299927 67.46704315 29.21051025 67.25889587 C32.8845123 66.31334879 35.37978774 65.88675322 39 67 C38.34 67 37.68 67 37 67 C37 67.66 37 68.32 37 69 C37.99 69 38.98 69 40 69 C40.33 68.34 40.66 67.68 41 67 C41 67.99 41 68.98 41 70 C36.91175612 71.10686415 32.82236709 72.20936826 28.73193359 73.30810547 C27.34490414 73.68130157 25.95817641 74.05562118 24.57177734 74.43115234 C16.76160861 76.54581897 8.97257801 78.57657996 1 80 C0.67 81.98 0.34 83.96 0 86 C0.58265625 85.81824219 1.1653125 85.63648438 1.765625 85.44921875 C6.61192522 83.96332482 11.4769686 82.55574056 16.375 81.25 C17.35210938 80.98703125 18.32921875 80.7240625 19.3359375 80.453125 C22.03996063 79.99320318 23.42084649 80.25681915 26 81 C22.39753737 82.00620969 18.79276877 83.00389587 15.1875 84 C14.16333984 84.28617187 13.13917969 84.57234375 12.08398438 84.8671875 C10.60961914 85.27324219 10.60961914 85.27324219 9.10546875 85.6875 C8.19949951 85.93886719 7.29353027 86.19023437 6.36010742 86.44921875 C4 87 4 87 1 87 C1.33 90.96 1.66 94.92 2 99 C3.77117188 98.54947266 3.77117188 98.54947266 5.578125 98.08984375 C7.13529623 97.70524122 8.69259468 97.32115351 10.25 96.9375 C11.02730469 96.73833984 11.80460937 96.53917969 12.60546875 96.33398438 C13.35957031 96.15029297 14.11367187 95.96660156 14.890625 95.77734375 C15.58188477 95.60452881 16.27314453 95.43171387 16.98535156 95.25366211 C19.25070809 94.96843363 20.8368312 95.31923805 23 96 C19.87605609 96.83732743 16.75068026 97.66917982 13.625 98.5 C12.29082031 98.85771484 12.29082031 98.85771484 10.9296875 99.22265625 C9.65351562 99.56103516 9.65351562 99.56103516 8.3515625 99.90625 C7.56604004 100.11572266 6.78051758 100.32519531 5.97119141 100.54101562 C4 101 4 101 2 101 C2 103.97 2 106.94 2 110 C2.66 110.33 3.32 110.66 4 111 C3.34 111 2.68 111 2 111 C2 112.98 2 114.96 2 117 C2.66 117.33 3.32 117.66 4 118 C3.34 118 2.68 118 2 118 C2 119.98 2 121.96 2 124 C6.95 123.505 6.95 123.505 12 123 C8.00889681 124.9955516 6.30013434 125.19546065 2 125 C1.67 126.98 1.34 128.96 1 131 C2.22396484 130.65388672 2.22396484 130.65388672 3.47265625 130.30078125 C11.68251915 128.04061225 19.93041237 126.06699637 28.25 124.25 C29.26199463 124.02739502 30.27398926 123.80479004 31.31665039 123.57543945 C32.26918701 123.37007568 33.22172363 123.16471191 34.203125 122.953125 C35.05551758 122.76911133 35.90791016 122.58509766 36.78613281 122.39550781 C39 122 39 122 42 122 C41.67 121.01 41.34 120.02 41 119 C37.37 119 33.74 119 30 119 C34.73529887 116.63235056 38.8049295 115.95698667 44 115 C43.505 120.94 43.505 120.94 43 127 C41.68 127 40.36 127 39 127 C39 126.34 39 125.68 39 125 C38.00742188 125.25394531 37.01484375 125.50789062 35.9921875 125.76953125 C10.5813679 132.22766871 10.5813679 132.22766871 3 132 C3.33 132.99 3.66 133.98 4 135 C3.01 135 2.02 135 1 135 C1 135.99 1 136.98 1 138 C2.33224609 137.65388672 2.33224609 137.65388672 3.69140625 137.30078125 C12.20170373 135.12812206 20.740351 133.10207456 29.3125 131.1875 C30.32062744 130.95651611 31.32875488 130.72553223 32.36743164 130.48754883 C33.7885022 130.17466919 33.7885022 130.17466919 35.23828125 129.85546875 C36.08430908 129.66621826 36.93033691 129.47696777 37.80200195 129.28198242 C40 129 40 129 43 130 C42.67 130.66 42.34 131.32 42 132 C39.62672835 132.67644984 37.31452685 133.23081528 34.90234375 133.7265625 C33.83905602 133.95537613 33.83905602 133.95537613 32.75428772 134.18881226 C30.48364253 134.67552307 28.21069762 135.15036842 25.9375 135.625 C24.40022501 135.95234819 22.86311311 136.28046335 21.32617188 136.609375 C17.55261822 137.41517092 13.77696017 138.21033222 10 139 C10 139.66 10 140.32 10 141 C9.01 141 8.02 141 7 141 C7 140.34 7 139.68 7 139 C5.68 139 4.36 139 3 139 C3 139.99 3 140.98 3 142 C2.34 142 1.68 142 1 142 C1 142.99 1 143.98 1 145 C1.66 145 2.32 145 3 145 C3 146.32 3 147.64 3 149 C2.34 149 1.68 149 1 149 C1 149.99 1 150.98 1 152 C1.78012451 151.82871582 2.56024902 151.65743164 3.36401367 151.48095703 C6.97095032 150.6914982 10.57920461 149.90822414 14.1875 149.125 C15.41404297 148.85558594 16.64058594 148.58617187 17.90429688 148.30859375 C25.90297074 146.57800996 33.89636616 145.14294026 42 144 C42.33 145.32 42.66 146.64 43 148 C42.01 148.33 41.02 148.66 40 149 C40 148.34 40 147.68 40 147 C38.79053711 147.26478149 38.79053711 147.26478149 37.55664062 147.53491211 C34.53055552 148.19561895 31.50379603 148.85312173 28.4765625 149.50854492 C26.53593015 149.92970241 24.59608149 150.35446589 22.65625 150.77929688 C16.44608532 152.12159809 10.324625 153.36913463 4 154 C4 154.66 4 155.32 4 156 C3.34 156 2.68 156 2 156 C2 157.32 2 158.64 2 160 C1.34 160 0.68 160 0 160 C-1.05643299 130.38762069 -2.0731458 100.77366576 -2.99127197 71.15664673 C-3.07834919 68.35251334 -3.16768547 65.54846778 -3.25921631 62.74447632 C-3.90750871 42.82087078 -4.11381802 22.93216137 -4 3 C-4.66 3 -5.32 3 -6 3 C-6 5.97 -6 8.94 -6 12 C-6.33 11.01 -6.66 10.02 -7 9 C-7.99 8.67 -8.98 8.34 -10 8 C-9.01 8 -8.02 8 -7 8 C-7 6.02 -7 4.04 -7 2 C-7.66 1.67 -8.32 1.34 -9 1 C-3.375 -1.125 -3.375 -1.125 0 0 Z M41 62 C41.66 63.32 42.32 64.64 43 66 C41.68 65.67 40.36 65.34 39 65 C39.66 65 40.32 65 41 65 C41 64.01 41 63.02 41 62 Z " fill="#EDB240" transform="translate(1019,396)"/>
<path d="M0 0 C-0.00523682 0.62455078 -0.01047363 1.24910156 -0.01586914 1.89257812 C-0.03684076 4.76170824 -0.04972376 7.63082215 -0.0625 10.5 C-0.07506836 11.97339844 -0.07506836 11.97339844 -0.08789062 13.4765625 C-0.10662869 19.09798056 0.23246816 24.43539412 1 30 C1.10996522 33.34294263 1.04647949 36.65347675 1 40 C-3.95 41.32 -8.9 42.64 -14 44 C-14.66 42.35 -15.32 40.7 -16 39 C-14.39318359 38.60167969 -14.39318359 38.60167969 -12.75390625 38.1953125 C-11.35666195 37.83896832 -9.95953236 37.48217418 -8.5625 37.125 C-7.85544922 36.95097656 -7.14839844 36.77695312 -6.41992188 36.59765625 C-4.59631043 36.12648392 -2.79556771 35.56876943 -1 35 C-0.505 34.01 -0.505 34.01 0 33 C-0.80824219 33.22816406 -1.61648438 33.45632813 -2.44921875 33.69140625 C-3.51785156 33.97886719 -4.58648438 34.26632812 -5.6875 34.5625 C-7.27111328 34.99755859 -7.27111328 34.99755859 -8.88671875 35.44140625 C-12.00695382 36.00124767 -13.97693234 35.84690764 -17 35 C-17 35.66 -17 36.32 -17 37 C-20.7478921 38.00801676 -24.49862967 39.00501289 -28.25 40 C-29.31347656 40.28617187 -30.37695312 40.57234375 -31.47265625 40.8671875 C-32.49746094 41.13789063 -33.52226563 41.40859375 -34.578125 41.6875 C-35.52075195 41.93886719 -36.46337891 42.19023437 -37.43457031 42.44921875 C-40 43 -40 43 -44 43 C-44 43.99 -44 44.98 -44 46 C-43.2886792 45.81824219 -42.5773584 45.63648438 -41.84448242 45.44921875 C-38.62641418 44.62912785 -35.40698696 43.81450268 -32.1875 43 C-31.06794922 42.71382813 -29.94839844 42.42765625 -28.79492188 42.1328125 C-27.72177734 41.86210937 -26.64863281 41.59140625 -25.54296875 41.3125 C-24.55321045 41.06113281 -23.56345215 40.80976563 -22.54370117 40.55078125 C-20 40 -20 40 -17 40 C-17.33 41.65 -17.66 43.3 -18 45 C-21.76926669 46.00597015 -25.54065412 47.00374802 -29.3125 48 C-30.9202832 48.42925781 -30.9202832 48.42925781 -32.56054688 48.8671875 C-33.58857422 49.13789063 -34.61660156 49.40859375 -35.67578125 49.6875 C-36.62364502 49.93886719 -37.57150879 50.19023437 -38.5480957 50.44921875 C-41 51 -41 51 -44 51 C-43.67 52.32 -43.34 53.64 -43 55 C-44.32 55 -45.64 55 -47 55 C-47 53.35 -47 51.7 -47 50 C-46.01 50 -45.02 50 -44 50 C-44 49.34 -44 48.68 -44 48 C-45.32 48 -46.64 48 -48 48 C-48 46.35 -48 44.7 -48 43 C-46.02 42.34 -44.04 41.68 -42 41 C-43.98 40.67 -45.96 40.34 -48 40 C-48 37.36 -48 34.72 -48 32 C-37.48310237 28.95118911 -26.95727467 25.93984165 -16.375 23.125 C-15.57666748 22.91012939 -14.77833496 22.69525879 -13.95581055 22.47387695 C-10.89171584 21.66711531 -8.18294205 21 -5 21 C-5.495 19.02 -5.495 19.02 -6 17 C-8.97 17.495 -8.97 17.495 -12 18 C-12 18.66 -12 19.32 -12 20 C-12.99 19.95875 -13.98 19.9175 -15 19.875 C-19.23835866 19.8576652 -22.93193985 20.85808838 -27 22 C-27 22.66 -27 23.32 -27 24 C-28.010625 23.95875 -29.02125 23.9175 -30.0625 23.875 C-33.96592077 23.83552991 -33.96592077 23.83552991 -37.4375 25 C-41.54408833 26.15272655 -44.75815612 26.14883663 -49 26 C-46.8328564 23.8328564 -45.89461537 23.52434639 -43.00927734 22.76318359 C-41.77822769 22.43306778 -41.77822769 22.43306778 -40.52230835 22.09628296 C-39.19255478 21.75084946 -39.19255478 21.75084946 -37.8359375 21.3984375 C-36.92872955 21.1571109 -36.02152161 20.9157843 -35.08682251 20.66714478 C-32.18453552 19.89668385 -29.27984654 19.13574746 -26.375 18.375 C-24.4086888 17.85479131 -22.4425407 17.33396573 -20.4765625 16.8125 C-15.65290609 15.53449666 -10.82707405 14.26503066 -6 13 C-5.67 11.68 -5.34 10.36 -5 9 C-5.74983154 9.19634033 -6.49966309 9.39268066 -7.2722168 9.5949707 C-10.74347925 10.50273264 -14.21548333 11.40762728 -17.6875 12.3125 C-18.86634766 12.62123047 -20.04519531 12.92996094 -21.25976562 13.24804688 C-24.83652113 14.17898324 -28.4169435 15.09363151 -32 16 C-33.2060791 16.30856934 -34.4121582 16.61713867 -35.65478516 16.93505859 C-36.80640137 17.21816895 -37.95801758 17.5012793 -39.14453125 17.79296875 C-40.17553955 18.04973389 -41.20654785 18.30649902 -42.26879883 18.57104492 C-44.93885636 18.99039694 -46.47976769 18.88752242 -49 18 C-42.1315676 15.2069546 -35.06877207 13.29469384 -27.90869141 11.41064453 C-25.87129935 10.8740253 -23.83597131 10.3300604 -21.80078125 9.78515625 C-16.22244315 8.30411144 -10.71382682 6.86928305 -5 6 C-5.495 3.525 -5.495 3.525 -6 1 C-3 0 -3 0 0 0 Z M-14.3515625 24.15234375 C-15.57351822 24.48172691 -15.57351822 24.48172691 -16.82015991 24.81776428 C-18.54043684 25.28250762 -20.2602034 25.74914361 -21.97949219 26.2175293 C-24.6203166 26.93622542 -27.26312744 27.64723018 -29.90625 28.35742188 C-31.57564521 28.80943673 -33.24492031 29.26189547 -34.9140625 29.71484375 C-35.70881989 29.92842026 -36.50357727 30.14199677 -37.32241821 30.36204529 C-40.95439541 31.11243715 -40.95439541 31.11243715 -44 33 C-44.04080783 34.99958364 -44.04254356 37.00045254 -44 39 C-43.24074219 38.91621094 -42.48148438 38.83242188 -41.69921875 38.74609375 C-40.70535156 38.64425781 -39.71148438 38.54242188 -38.6875 38.4375 C-37.70136719 38.33308594 -36.71523437 38.22867188 -35.69921875 38.12109375 C-33 38 -33 38 -30 39 C-29.67 38.01 -29.34 37.02 -29 36 C-26.48828125 35.015625 -26.48828125 35.015625 -23.3125 34.25 C-22.27738281 33.98703125 -21.24226563 33.7240625 -20.17578125 33.453125 C-16.82326734 32.97478353 -14.30345918 33.37679423 -11 34 C-8.68019054 33.17657468 -8.68019054 33.17657468 -7 32 C-7.99 31.67 -8.98 31.34 -10 31 C-6.7 30.01 -3.4 29.02 0 28 C-0.495 26.515 -0.495 26.515 -1 25 C-4.96 25.66 -8.92 26.32 -13 27 C-11.535625 26.54625 -10.07125 26.0925 -8.5625 25.625 C-6.11327425 24.90725434 -6.11327425 24.90725434 -4 24 C-3.67 23.34 -3.34 22.68 -3 22 C-6.97750275 22 -10.54317203 23.1139189 -14.3515625 24.15234375 Z " fill="#ECB140" transform="translate(1118,419)"/>
<path d="M0 0 C9.60541596 0.54858607 18.96803707 1.8454585 28.44140625 3.484375 C29.94249576 3.73955734 31.44367344 3.99422146 32.94493103 4.24841309 C36.98040671 4.93320014 41.01461585 5.62519112 45.0486145 6.31861877 C49.2856055 7.04568386 53.52372603 7.76610595 57.76171875 8.48730469 C64.86670961 9.69732317 71.97096629 10.91157098 79.07470703 12.12890625 C89.08952339 13.8450944 99.10561817 15.553725 109.12199211 17.26079559 C122.54635394 19.54909378 135.97036542 21.83948923 149.39285469 24.13874817 C150.84202625 24.38690136 152.29123765 24.63482203 153.74049187 24.88249207 C155.71968819 25.22079112 157.69871555 25.56007824 159.67773438 25.89941406 C160.78451538 26.08892639 161.89129639 26.27843872 163.03161621 26.47369385 C165.69637951 26.94616689 168.34884749 27.45686967 171 28 C168.64031256 30.09749995 167.45383006 30.96905704 164.25 31.1875 C163.5075 31.125625 162.765 31.06375 162 31 C162 30.01 162 29.02 162 28 C161.67 28.66 161.34 29.32 161 30 C156.125 29.125 156.125 29.125 155 28 C152.94603274 28.40929986 152.94603274 28.40929986 151 29 C150.67 28.01 150.34 27.02 150 26 C149.67 26.66 149.34 27.32 149 28 C144.125 27.125 144.125 27.125 143 26 C140.94603274 26.40929986 140.94603274 26.40929986 139 27 C138.67 26.01 138.34 25.02 138 24 C135.69 23.67 133.38 23.34 131 23 C131 23.66 131 24.32 131 25 C129.3745692 24.85904936 127.74965949 24.71207913 126.125 24.5625 C125.22007812 24.48128906 124.31515625 24.40007812 123.3828125 24.31640625 C121 24 121 24 119 23 C115.33534373 22.22849342 111.72690677 21.91841785 108 21.6875 C98.23099466 20.94366711 88.6090233 18.84561993 79 17 C79 16.67 79 16.34 79 16 C81.97 16 84.94 16 88 16 C83.05 15.01 83.05 15.01 78 14 C78 14.66 78 15.32 78 16 C74.96519275 16.18392771 72.75293211 15.92733297 69.8125 15.0625 C65.867798 13.96315682 62.20369827 13.55127292 58.13671875 13.24609375 C56 13 56 13 54 12 C52.29636178 11.77377919 50.58671299 11.59111527 48.875 11.4375 C47.96492187 11.35371094 47.05484375 11.26992188 46.1171875 11.18359375 C45.06917969 11.09271484 45.06917969 11.09271484 44 11 C43.505 9.515 43.505 9.515 43 8 C33.595 6.515 33.595 6.515 24 5 C24 5.66 24 6.32 24 7 C12.49354365 6.51449551 1.28315416 4.16717283 -10 2 C-10 1.67 -10 1.34 -10 1 C-6.7 1 -3.4 1 0 1 C0 0.67 0 0.34 0 0 Z M101 18 C102 20 102 20 102 20 Z M107 19 C108 21 108 21 108 21 Z " fill="#F4B741" transform="translate(681,469)"/>
<path d="M0 0 C1.85437383 3.20510517 2.36628909 5.85119387 2.68261719 9.52539062 C2.78345108 10.64959915 2.88428497 11.77380768 2.98817444 12.93208313 C3.09004562 14.1610582 3.19191681 15.39003326 3.296875 16.65625 C3.410952 17.9530217 3.52502899 19.2497934 3.64256287 20.58586121 C3.95557164 24.1450294 4.25859375 27.70498567 4.55987167 31.26516342 C4.87960195 35.0233878 5.20833902 38.78082331 5.53637695 42.53833008 C6.0158175 48.03855729 6.49232865 53.53902457 6.96548557 59.03979588 C7.82986316 69.08441835 8.72010058 79.12657141 9.62109375 89.16796875 C12.30265973 119.09583233 14.91686706 149.02320894 17 179 C16.34 179 15.68 179 15 179 C14.95101563 178.22914063 14.90203125 177.45828125 14.8515625 176.6640625 C14.73941406 175.15972656 14.73941406 175.15972656 14.625 173.625 C14.52058594 172.12839844 14.52058594 172.12839844 14.4140625 170.6015625 C14.23636036 167.84491121 14.23636036 167.84491121 12 166 C12.375 163.375 12.375 163.375 13 161 C11.71040375 161.2630896 10.4208075 161.5261792 9.09213257 161.79724121 C-3.06030014 164.27565606 -15.21396901 166.74792505 -27.3688755 169.21417999 C-33.61780772 170.48230654 -39.86628406 171.75259547 -46.11376953 173.02783203 C-52.1427535 174.25838517 -58.17286748 175.48325039 -64.20380783 176.70417786 C-66.50470527 177.17102095 -68.80518791 177.63991326 -71.10524368 178.11088562 C-74.32641308 178.77010617 -77.54897923 179.42203051 -80.77197266 180.07226562 C-82.19833038 180.36681389 -82.19833038 180.36681389 -83.65350342 180.66731262 C-88.17641134 181.57206437 -92.35902115 182.23685749 -97 182 C-97 181.67 -97 181.34 -97 181 C-30.11274537 167.18329581 -30.11274537 167.18329581 -4.875 162.125 C-4.04734131 161.95846924 -3.21968262 161.79193848 -2.36694336 161.62036133 C-0.09661957 161.16400216 2.17421859 160.71032136 4.4453125 160.2578125 C5.67781738 160.0117627 6.91032227 159.76571289 8.18017578 159.51220703 C11 159 11 159 13 159 C12.93300148 158.2643151 12.86600296 157.5286302 12.79697418 156.77065182 C11.16605168 138.85972119 9.53861069 120.94847734 7.91503143 103.03687954 C7.12979353 94.37493491 6.34338296 85.71309976 5.55419922 77.05151367 C4.86625264 69.50101015 4.18051904 61.95030945 3.49742842 54.39936501 C3.13575047 50.40220193 2.77297442 46.40514547 2.407547 42.40832329 C2.06337974 38.64364592 1.72218011 34.87871118 1.38321877 31.11356163 C1.25854141 29.73444022 1.13279588 28.35541489 1.00588036 26.97649765 C0.83217743 25.08745745 0.66276126 23.19802456 0.49353027 21.30857849 C0.3976638 20.25312552 0.30179733 19.19767256 0.20302582 18.11023617 C-0.01747457 14.73229989 -0.03361127 11.38417335 0 8 C-0.9075 8.350625 -1.815 8.70125 -2.75 9.0625 C-5.87758436 9.96468779 -7.05208081 10.13381507 -10 9 C-6.38026598 7.68373308 -3.90432869 7 0 7 C0 4.69 0 2.38 0 0 Z " fill="#EDB240" transform="translate(1339,322)"/>
<path d="M0 0 C-2.31 0.33 -4.62 0.66 -7 1 C-7 1.99 -7 2.98 -7 4 C-6.09636719 3.7834375 -5.19273438 3.566875 -4.26171875 3.34375 C-3.08222656 3.0653125 -1.90273437 2.786875 -0.6875 2.5 C0.48425781 2.2215625 1.65601563 1.943125 2.86328125 1.65625 C6 1 6 1 9 1 C9 1.66 9 2.32 9 3 C10.65 3 12.3 3 14 3 C13.67 3.66 13.34 4.32 13 5 C10.55027908 5.64419682 8.17256869 6.16936533 5.6875 6.625 C4.67139648 6.82609375 4.67139648 6.82609375 3.63476562 7.03125 C0.33686777 7.66310531 -2.62737674 8 -6 8 C-6 8.99 -6 9.98 -6 11 C-5.08710205 10.78794922 -4.1742041 10.57589844 -3.23364258 10.35742188 C0.16658412 9.57034237 3.567865 8.7881775 6.9699707 8.00927734 C8.43982154 7.67171169 9.90923045 7.33221557 11.37817383 6.99072266 C13.49446095 6.49909619 15.61226074 6.01452401 17.73046875 5.53125 C19.63928833 5.09135742 19.63928833 5.09135742 21.58666992 4.64257812 C24.50880614 4.09246994 27.04289756 3.86165603 30 4 C29.01 4.66 28.02 5.32 27 6 C29.31 6 31.62 6 34 6 C34 5.34 34 4.68 34 4 C33.34 3.67 32.68 3.34 32 3 C34.31 3 36.62 3 39 3 C39 6.63 39 10.26 39 14 C32.81382652 15.37470522 27.32844017 16.23438667 21 16 C21 15.34 21 14.68 21 14 C20.34 13.67 19.68 13.34 19 13 C27.03571429 10.72321429 27.03571429 10.72321429 31 12 C30.34 12.33 29.68 12.66 29 13 C30.98 13 32.96 13 35 13 C35 12.34 35 11.68 35 11 C34.34 10.67 33.68 10.34 33 10 C34.65 9.67 36.3 9.34 38 9 C38 8.01 38 7.02 38 6 C36.80503906 6.32484375 36.80503906 6.32484375 35.5859375 6.65625 C33.99652344 7.07390625 33.99652344 7.07390625 32.375 7.5 C31.33085938 7.7784375 30.28671875 8.056875 29.2109375 8.34375 C26.04312582 8.99118596 23.22258533 9.1161292 20 9 C20 8.34 20 7.68 20 7 C19.34 7 18.68 7 18 7 C17.67 8.32 17.34 9.64 17 11 C13.54253984 11.83698495 10.08389511 12.66896676 6.625 13.5 C5.64015625 13.73847656 4.6553125 13.97695313 3.640625 14.22265625 C2.69960937 14.44824219 1.75859375 14.67382812 0.7890625 14.90625 C-0.08024902 15.11572266 -0.94956055 15.32519531 -1.84521484 15.54101562 C-4 16 -4 16 -6 16 C-6 16.99 -6 17.98 -6 19 C-4.515 18.58427734 -4.515 18.58427734 -3 18.16015625 C3.63276937 16.33054253 10.11705055 14.56187342 17 14 C17.33 15.32 17.66 16.64 18 18 C15.43923903 18.67404284 12.87673417 19.339414 10.3125 20 C9.59126953 20.19078125 8.87003906 20.3815625 8.12695312 20.578125 C4.33149039 21.54865428 0.95384561 22.24955239 -3 22 C-3 21.34 -3 20.68 -3 20 C-4.98 20 -6.96 20 -9 20 C-9.36354039 17.58440932 -9.71610551 15.16805703 -10.0625 12.75 C-10.2181543 11.72712891 -10.2181543 11.72712891 -10.37695312 10.68359375 C-11.33217881 3.89819751 -11.33217881 3.89819751 -10 1 C-6.36961463 -0.69417984 -3.80522763 -1.46354909 0 0 Z " fill="#F2B541" transform="translate(1082,490)"/>
<path d="M0 0 C1.32 0.66 2.64 1.32 4 2 C0.04 2 -3.92 2 -8 2 C-8 2.66 -8 3.32 -8 4 C-4.7 4 -1.4 4 2 4 C2 4.33 2 4.66 2 5 C0.91407562 5.03547691 0.91407562 5.03547691 -0.19378662 5.07167053 C-8.18456019 5.51031187 -14.82703476 7.32143173 -22.265625 10.18359375 C-23.38386658 10.59916031 -24.50210815 11.01472687 -25.65423584 11.44288635 C-29.19166204 12.76023761 -32.72097892 14.09781481 -36.25 15.4375 C-39.79462232 16.76974751 -43.34081136 18.09763903 -46.88861084 19.42140198 C-49.08564214 20.24256372 -51.2806332 21.06921208 -53.47320557 21.90220642 C-58.9410702 23.96009035 -64.29664952 25.7250582 -70 27 C-70 27.66 -70 28.32 -70 29 C-69.48091064 28.79318604 -68.96182129 28.58637207 -68.42700195 28.37329102 C-66.05721303 27.43198389 -63.68490446 26.49719443 -61.3125 25.5625 C-60.08756836 25.07426758 -60.08756836 25.07426758 -58.83789062 24.57617188 C-50.73053816 21.39231281 -50.73053816 21.39231281 -47 21 C-46.34 21.33 -45.68 21.66 -45 22 C-45 21.34 -45 20.68 -45 20 C-39.8984796 17.9729466 -34.78458775 15.98244882 -29.65673828 14.02294922 C-27.89898769 13.34614578 -26.14465404 12.66039384 -24.39404297 11.96533203 C-13.89419052 7.80703353 -5.37830174 4.5291644 6 7 C6 7.33 6 7.66 6 8 C4.89205078 8.03975952 4.89205078 8.03975952 3.76171875 8.08032227 C-3.82980743 8.5089734 -9.99109914 10.07456474 -17 12.9375 C-19.07195992 13.74984037 -21.1449242 14.55962244 -23.21875 15.3671875 C-24.30542969 15.79354492 -25.39210938 16.21990234 -26.51171875 16.65917969 C-32.79930324 19.07599198 -39.15105055 21.31303171 -45.5 23.5625 C-46.74136719 24.00392334 -47.98273438 24.44534668 -49.26171875 24.90014648 C-52.17384201 25.93522533 -55.08682296 26.96789068 -58 28 C-49.42 28.66 -40.84 29.32 -32 30 C-32 30.66 -32 31.32 -32 32 C-36.10781644 31.88054877 -40.21545618 31.75624038 -44.32299805 31.62768555 C-45.71651349 31.58472646 -47.1100685 31.54302945 -48.50366211 31.50268555 C-56.04479911 31.28351364 -63.51376845 30.98655765 -71 30 C-71 29.34 -71 28.68 -71 28 C-71.69037354 28.18175781 -72.38074707 28.36351562 -73.09204102 28.55078125 C-76.24663181 29.37599491 -79.40446038 30.18808941 -82.5625 31 C-83.64853516 31.28617188 -84.73457031 31.57234375 -85.85351562 31.8671875 C-91.37315796 33.27645788 -96.29801256 34.39267632 -102 34 C-99.53876691 31.04744731 -97.35827137 30.30843652 -93.66796875 29.39453125 C-92.62189453 29.13349609 -91.57582031 28.87246094 -90.49804688 28.60351562 C-88.85932617 28.21196289 -88.85932617 28.21196289 -87.1875 27.8125 C-86.10662109 27.53986328 -85.02574219 27.26722656 -83.91210938 26.98632812 C-75.71061078 24.97748961 -75.71061078 24.97748961 -72.18933105 25.08903503 C-68.7415046 24.99278371 -66.35284072 24.2849347 -63.1340332 23.07226562 C-61.4374633 22.44161194 -61.4374633 22.44161194 -59.70661926 21.79821777 C-58.50019272 21.33886841 -57.29376617 20.87951904 -56.05078125 20.40625 C-54.78896065 19.93443096 -53.52676223 19.46362124 -52.26420593 18.99377441 C-48.9529397 17.75918166 -45.64585133 16.5137942 -42.33984375 15.26519775 C-37.03910322 13.26449375 -31.73341893 11.27705697 -26.42537498 9.29582214 C-24.57401788 8.60245258 -22.7252585 7.90215969 -20.87654114 7.20178223 C-19.75495102 6.78134644 -18.6333609 6.36091064 -17.4777832 5.92773438 C-16.48994339 5.55467163 -15.50210358 5.18160889 -14.48432922 4.79724121 C-12 4 -12 4 -9 4 C-9 3.01 -9 2.02 -9 1 C-5.55555093 -0.62654539 -3.60914864 -1.3970898 0 0 Z " fill="#EEB340" transform="translate(145,643)"/>
<path d="M0 0 C0 0.66 0 1.32 0 2 C-3.3 2.33 -6.6 2.66 -10 3 C-10 3.99 -10 4.98 -10 6 C-10.845625 5.938125 -11.69125 5.87625 -12.5625 5.8125 C-15.91854481 5.99555699 -17.90207825 6.82108228 -20.9152832 8.16918945 C-24.9225914 9.76619962 -29.12606253 10.67971033 -33.3125 11.6875 C-34.21806641 11.91244141 -35.12363281 12.13738281 -36.05664062 12.36914062 C-42.70400361 14 -42.70400361 14 -45 14 C-45 14.99 -45 15.98 -45 17 C-44.16557373 16.75403076 -43.33114746 16.50806152 -42.47143555 16.25463867 C-33.63984594 13.68663989 -24.76512734 11.4274027 -15.8125 9.3125 C-13.25608516 8.70618916 -10.70024567 8.0975465 -8.14453125 7.48828125 C-7.03440674 7.22571533 -5.92428223 6.96314941 -4.78051758 6.69262695 C-1.94165501 6.02363012 -1.94165501 6.02363012 1 5 C1 9.29 1 13.58 1 18 C-10.25 21.34821429 -10.25 21.34821429 -14 20 C-13.34 19.67 -12.68 19.34 -12 19 C-12.495 18.01 -12.495 18.01 -13 17 C-8.71 16.01 -4.42 15.02 0 14 C0 13.01 0 12.02 0 11 C-0.72445313 11.22816406 -1.44890625 11.45632813 -2.1953125 11.69140625 C-11.79789104 14.54657293 -11.79789104 14.54657293 -17 13 C-17 13.66 -17 14.32 -17 15 C-19.99764299 15.82136504 -22.99848098 16.63042488 -26 17.4375 C-26.83917969 17.66759766 -27.67835937 17.89769531 -28.54296875 18.13476562 C-33.70053321 19.51411426 -38.68685418 20.46499573 -44 21 C-44 22.32 -44 23.64 -44 25 C-44.99 25 -45.98 25 -47 25 C-47.33 23.35 -47.66 21.7 -48 20 C-46.68 19.67 -45.36 19.34 -44 19 C-45.32 18.67 -46.64 18.34 -48 18 C-48 16.35 -48 14.7 -48 13 C-40.08 11.02 -32.16 9.04 -24 7 C-24.33 6.34 -24.66 5.68 -25 5 C-23.989375 4.87625 -22.97875 4.7525 -21.9375 4.625 C-18.14737635 4.02339307 -14.67352107 3.09561155 -11 2 C-3.63945578 0 -3.63945578 0 0 0 Z " fill="#EEB340" transform="translate(1119,463)"/>
<path d="M0 0 C7.86305832 0.6188411 15.62089474 1.60690616 23.4140625 2.8125 C24.55032074 2.98628174 25.68657898 3.16006348 26.85726929 3.33911133 C29.2356715 3.70388225 31.61381274 4.07035864 33.99169922 4.43847656 C37.64857847 5.00364403 41.30663389 5.56070537 44.96484375 6.1171875 C47.28132458 6.47347379 49.59773357 6.83022753 51.9140625 7.1875 C53.56071396 7.43753784 53.56071396 7.43753784 55.2406311 7.69262695 C56.24613007 7.84948975 57.25162903 8.00635254 58.28759766 8.16796875 C59.17597321 8.30485107 60.06434875 8.4417334 60.97964478 8.58276367 C63 9 63 9 64 10 C64.04063832 11.66617115 64.042721 13.33388095 64 15 C50.08969096 13.48943202 36.27107089 11.46507786 22.4375 9.375 C20.25068791 9.04662937 18.06383916 8.71850278 15.87695312 8.390625 C10.58421051 7.59655615 5.29192452 6.79950182 0 6 C0 4.02 0 2.04 0 0 Z " fill="#FEBE42" transform="translate(670,500)"/>
<path d="M0 0 C8.2547554 0.58131187 16.37476102 1.55722379 24.546875 2.84765625 C26.25269745 3.11188637 26.25269745 3.11188637 27.99298096 3.38145447 C31.57927724 3.93788007 35.16463855 4.50008563 38.75 5.0625 C41.20046102 5.44374403 43.65098137 5.82460693 46.1015625 6.20507812 C52.06840064 7.13231803 58.03448482 8.06428853 64 9 C64 10.98 64 12.96 64 15 C50.47888907 13.23233183 36.98479452 11.28972312 23.49731445 9.28326416 C21.66334153 9.01072695 19.82919318 8.73936764 17.99487305 8.46917725 C15.38667281 8.08450828 12.77919852 7.69524923 10.171875 7.3046875 C9.37694641 7.18810791 8.58201782 7.07152832 7.76300049 6.95141602 C2.22891721 6.1144586 2.22891721 6.1144586 0 5 C0 3.35 0 1.7 0 0 Z " fill="#FEBE42" transform="translate(670,507)"/>
<path d="M0 0 C2.97 0 5.94 0 9 0 C9 0.33 9 0.66 9 1 C7.35 1 5.7 1 4 1 C4 1.66 4 2.32 4 3 C5.98 3.495 5.98 3.495 8 4 C7.44534561 4.10902649 6.89069122 4.21805298 6.31922913 4.3303833 C0.91625893 5.45250484 -4.07593961 6.9950356 -9.19140625 9.046875 C-9.93978256 9.34055969 -10.68815887 9.63424438 -11.45921326 9.93682861 C-13.82947696 10.86834975 -16.19607795 11.80876806 -18.5625 12.75 C-21.66709196 13.9761861 -24.77300079 15.19902043 -27.87890625 16.421875 C-28.6448259 16.72399399 -29.41074554 17.02611298 -30.19987488 17.33738708 C-41.0965221 21.62689002 -52.07855321 25.67902069 -63.08618164 29.67431641 C-75.96552712 34.35426117 -88.77899427 39.18956217 -101.5625 44.125 C-103.17874293 44.74809362 -104.79503568 45.37105802 -106.41137695 45.99389648 C-107.22752975 46.30840256 -108.04368256 46.62290863 -108.88456726 46.94694519 C-112.32632601 48.27309348 -115.76813527 49.59911059 -119.21002197 50.92492676 C-121.13656563 51.66728943 -123.06294715 52.41007296 -124.98919678 53.15319824 C-131.22351296 55.55779454 -137.46148558 57.95248997 -143.70431519 60.3348999 C-145.728018 61.10904972 -147.75043238 61.88657639 -149.77151489 62.6675415 C-152.58922848 63.75581145 -155.41114931 64.83237638 -158.234375 65.90625 C-159.07937057 66.23563568 -159.92436615 66.56502136 -160.79496765 66.90438843 C-161.57129044 67.1969754 -162.34761322 67.48956238 -163.14746094 67.79101562 C-163.82258728 68.04999634 -164.49771362 68.30897705 -165.19329834 68.57580566 C-167 69 -167 69 -170 68 C-146.35633851 58.83532375 -122.69361825 49.72229387 -99 40.6875 C-80.21925402 33.52566286 -61.44725299 26.34166159 -42.6875 19.125 C-41.61411377 18.71220795 -40.54072754 18.29941589 -39.43481445 17.87411499 C-36.35610333 16.68997932 -33.27762758 15.5052338 -30.19921875 14.3203125 C-28.76145584 13.76737267 -28.76145584 13.76737267 -27.29464722 13.20326233 C-22.72372132 11.44330371 -18.15750926 9.67261967 -13.60009766 7.87792969 C-12.76066116 7.54816132 -11.92122467 7.21839294 -11.05635071 6.87863159 C-9.4926634 6.26338992 -7.93007856 5.6453359 -6.36882019 5.0239563 C-1.22184245 3 -1.22184245 3 1 3 C0.67 2.01 0.34 1.02 0 0 Z " fill="#ECB140" transform="translate(608,457)"/>
<path d="M0 0 C2.97 0 5.94 0 9 0 C9 0.33 9 0.66 9 1 C6.36 1 3.72 1 1 1 C1 5.29 1 9.58 1 14 C2.65 14 4.3 14 6 14 C6 14.33 6 14.66 6 15 C4.35 15 2.7 15 1 15 C0.95210831 16.07804398 0.90421661 17.15608795 0.85487366 18.26679993 C0.4016326 28.46178328 -0.05429116 38.65664366 -0.51279354 48.85139179 C-0.74838829 54.09170598 -0.98306116 59.33205796 -1.21557617 64.57250977 C-1.44029887 69.63655226 -1.66750984 74.70047771 -1.89639473 79.76433372 C-1.98298014 81.68942546 -2.0686921 83.6145567 -2.15348625 85.53972816 C-3.00734987 104.90085759 -3.00734987 104.90085759 -4 114 C-2.02 114 -0.04 114 2 114 C2 114.33 2 114.66 2 115 C-1.96 115 -5.92 115 -10 115 C-10 115.99 -10 116.98 -10 118 C-10.66 118 -11.32 118 -12 118 C-12 116.68 -12 115.36 -12 114 C-10.02 114 -8.04 114 -6 114 C-5.98541748 113.3407251 -5.97083496 112.6814502 -5.95581055 112.00219727 C-5.45979602 90.92596177 -4.55577063 69.86745986 -3.60116959 48.80793381 C-3.49974487 46.55683736 -3.40007606 44.30566923 -3.3008728 42.05447388 C-3.14237023 38.46413547 -2.97911445 34.87404364 -2.81217003 31.28408813 C-2.72028851 29.28734087 -2.63266802 27.290399 -2.54512024 25.29345703 C-2.48833603 24.097771 -2.43155182 22.90208496 -2.37304688 21.67016602 C-2.32498901 20.61942398 -2.27693115 19.56868195 -2.22741699 18.48609924 C-2 16 -2 16 -1 14 C-0.76970044 11.62876754 -0.58880058 9.25258057 -0.4375 6.875 C-0.35371094 5.59367188 -0.26992188 4.31234375 -0.18359375 2.9921875 C-0.12300781 2.00476563 -0.06242187 1.01734375 0 0 Z " fill="#ECB140" transform="translate(339,582)"/>
<path d="M0 0 C0 1.65 0 3.3 0 5 C-5.78258518 6.71414653 -11.5666963 8.42300522 -17.35229492 10.12695312 C-19.32082422 10.70752721 -21.28892644 11.28955145 -23.2565918 11.87304688 C-26.08271395 12.71083857 -28.91032414 13.54342639 -31.73828125 14.375 C-32.61962234 14.63748535 -33.50096344 14.8999707 -34.40901184 15.17041016 C-35.22963608 15.41065918 -36.05026031 15.6509082 -36.89575195 15.8984375 C-37.61745071 16.11161621 -38.33914948 16.32479492 -39.0827179 16.54443359 C-41 17 -41 17 -44 17 C-44.33 22.61 -44.66 28.22 -45 34 C-45.33 34 -45.66 34 -46 34 C-46 26.74 -46 19.48 -46 12 C-44.2365625 11.55269531 -42.473125 11.10539063 -40.65625 10.64453125 C-28.95374403 7.65508798 -17.30916341 4.65721135 -5.84375 0.84765625 C-3 0 -3 0 0 0 Z " fill="#FDBE42" transform="translate(610,540)"/>
<path d="M0 0 C0 0.66 0 1.32 0 2 C-1.98774579 2.79509832 -3.97549231 3.59019481 -5.96324158 4.38528442 C-7.8033101 5.12132019 -9.64336692 5.85738522 -11.4834137 6.59347534 C-16.83893596 8.73583674 -22.19468025 10.87764058 -27.55078125 13.01855469 C-39.43894354 17.77117015 -51.32457098 22.52992792 -63.20472717 27.30252075 C-68.43063401 29.40184091 -73.65748096 31.4988159 -78.8845396 33.59526634 C-82.56267958 35.07067225 -86.24027125 36.54741682 -89.91671753 38.02703857 C-93.4054544 39.4311021 -96.89545432 40.83197751 -100.38642693 42.23047256 C-101.68254915 42.75039364 -102.97818717 43.27152359 -104.27331734 43.79391098 C-106.04747553 44.50932579 -107.8234934 45.22012366 -109.59960938 45.93066406 C-110.59907593 46.33222717 -111.59854248 46.73379028 -112.6282959 47.14752197 C-115 48 -115 48 -117 48 C-116.67 48.99 -116.34 49.98 -116 51 C-116.66 51 -117.32 51 -118 51 C-118.33 49.68 -118.66 48.36 -119 47 C-113.20781544 43.8625667 -107.22403445 41.53908975 -101.04980469 39.28051758 C-97.19451556 37.85857949 -93.45779713 36.34317982 -89.75 34.5625 C-85.07369965 32.36603509 -80.31539057 30.70334556 -75.4296875 29.0546875 C-62.51803814 24.61339809 -49.89911609 19.44619797 -37.24737549 14.32098389 C-32.85653699 12.54229138 -28.46456641 10.76645262 -24.07046509 8.99583435 C-21.74535177 8.05882943 -19.42154862 7.11856534 -17.09921265 6.17469788 C-16.06277618 5.75683517 -15.02633972 5.33897247 -13.95849609 4.90844727 C-12.59004044 4.35387596 -12.59004044 4.35387596 -11.19393921 3.7881012 C-9 3 -9 3 -7 3 C-6.67 2.34 -6.34 1.68 -6 1 C-3.911361 0.32624548 -2.19636905 0 0 0 Z " fill="#F2B540" transform="translate(294,568)"/>
<path d="M0 0 C0 1.65 0 3.3 0 5 C-5.14014134 6.26775129 -10.28135407 7.53103023 -15.42358398 8.7902832 C-17.17062609 9.21876027 -18.91737593 9.64843091 -20.66381836 10.0793457 C-23.18266027 10.70061695 -25.70254245 11.31750476 -28.22265625 11.93359375 C-28.99585709 12.12529648 -29.76905792 12.31699921 -30.56568909 12.51451111 C-35.03298783 13.60147165 -39.4375073 14.42671632 -44 15 C-44 13.35 -44 11.7 -44 10 C-38.21697879 8.57143685 -32.4328716 7.1473896 -26.64770508 5.72753906 C-24.67929977 5.2437578 -22.71119844 4.75873798 -20.7434082 4.27246094 C-17.91696673 3.57422231 -15.08946652 2.88042671 -12.26171875 2.1875 C-11.38037766 1.96876221 -10.49903656 1.75002441 -9.59098816 1.5246582 C-8.77036392 1.32445068 -7.94973969 1.12424316 -7.10424805 0.91796875 C-6.38254929 0.74031982 -5.66085052 0.5626709 -4.9172821 0.37963867 C-3 0 -3 0 0 0 Z " fill="#FEBE42" transform="translate(609,592)"/>
<path d="M0 0 C0 1.98 0 3.96 0 6 C-5.62213363 7.28723276 -11.24551196 8.56882501 -16.87011719 9.84521484 C-18.78323024 10.28019019 -20.69599445 10.71670286 -22.60839844 11.15478516 C-25.35781967 11.78432553 -28.10844941 12.40832071 -30.859375 13.03125 C-31.71368103 13.22811401 -32.56798706 13.42497803 -33.44818115 13.62780762 C-34.64897308 13.89808777 -34.64897308 13.89808777 -35.87402344 14.17382812 C-36.57573669 14.33371216 -37.27744995 14.49359619 -38.00042725 14.6583252 C-40 15 -40 15 -44 15 C-43.67 13.35 -43.34 11.7 -43 10 C-37.03720519 8.57441925 -31.07406555 7.15029337 -25.1105957 5.72753906 C-23.08022572 5.24291731 -21.04995204 4.75789193 -19.01977539 4.27246094 C-16.10848567 3.57642192 -13.19685731 2.88181599 -10.28515625 2.1875 C-9.3716188 1.96876221 -8.45808136 1.75002441 -7.51686096 1.5246582 C-6.67606491 1.32445068 -5.83526886 1.12424316 -4.96899414 0.91796875 C-4.22508926 0.74031982 -3.48118439 0.5626709 -2.71473694 0.37963867 C-1 0 -1 0 0 0 Z " fill="#FEBE42" transform="translate(609,598)"/>
<path d="M0 0 C0 1.65 0 3.3 0 5 C-4.0336313 6.08736031 -8.06809015 7.17158373 -12.10327148 8.25317383 C-13.46970169 8.61987075 -14.83592067 8.9873559 -16.2019043 9.35571289 C-25.09686632 11.75365594 -34.00522226 13.99870755 -43 16 C-43 14.35 -43 12.7 -43 11 C-5.97470489 0 -5.97470489 0 0 0 Z " fill="#FEBE42" transform="translate(609,566)"/>
<path d="M0 0 C6.625 -0.125 6.625 -0.125 10 1 C10 1.66 10 2.32 10 3 C10.66 2.67 11.32 2.34 12 2 C14.71760108 1.92818179 17.40859388 1.90700494 20.125 1.9375 C20.87910156 1.94201172 21.63320313 1.94652344 22.41015625 1.95117188 C24.27347127 1.96296501 26.13674555 1.98090058 28 2 C28.33 2.66 28.66 3.32 29 4 C31.52284812 4.60667176 33.9795859 5.08939668 36.53515625 5.5078125 C37.28840683 5.63815887 38.04165741 5.76850525 38.81773376 5.90280151 C41.23132073 6.31849575 43.64678726 6.72186191 46.0625 7.125 C47.69610174 7.40414034 49.32956747 7.68407794 50.96289062 7.96484375 C54.97373882 8.65250088 58.98631516 9.32910654 63 10 C63 10.33 63 10.66 63 11 C53.17286886 10.45089248 43.6533309 8.81857774 34 7 C34 7.66 34 8.32 34 9 C32.3745692 8.85904936 30.74965949 8.71207913 29.125 8.5625 C28.22007812 8.48128906 27.31515625 8.40007812 26.3828125 8.31640625 C24 8 24 8 22 7 C20.33727297 6.79777644 18.66945815 6.63588613 17 6.5 C12.22222222 6.11111111 12.22222222 6.11111111 10 5 C5.94439501 4.17044443 2.13522564 3.90154225 -2 4 C-1.34 2.68 -0.68 1.36 0 0 Z " fill="#F4B741" transform="translate(618,458)"/>
<path d="M0 0 C0.33 0 0.66 0 1 0 C1.26355874 7.71152946 1.52451161 15.42314255 1.78230286 23.13486671 C1.90213437 26.71723305 2.02280264 30.29956679 2.14550781 33.88183594 C2.26429539 37.35069505 2.3807224 40.81962665 2.49563599 44.28861618 C2.56053507 46.23027546 2.62776534 48.17185639 2.69506836 50.11343384 C2.96746312 58.41428062 3.0501853 66.69502922 3 75 C1 74 1 74 0 71 C-0.14628387 68.7777527 -0.23629329 66.55166546 -0.29711914 64.32543945 C-0.31677231 63.652005 -0.33642548 62.97857056 -0.35667419 62.284729 C-0.42049421 60.06101109 -0.47785132 57.8371758 -0.53515625 55.61328125 C-0.57816973 54.07056076 -0.62158632 52.52785146 -0.66539001 50.9851532 C-0.77955365 46.92628094 -0.88823695 42.86727967 -0.99578857 38.80822754 C-1.10651992 34.66567986 -1.22242127 30.52327721 -1.33789062 26.38085938 C-1.56366059 18.25403943 -1.78364247 10.12707595 -2 2 C-1.34 2 -0.68 2 0 2 C0 1.34 0 0.68 0 0 Z " fill="#EAB03F" transform="translate(923,432)"/>
<path d="M0 0 C0.66368088 0.03872223 1.32736176 0.07744446 2.01115417 0.11734009 C4.20326613 0.24780335 6.39407401 0.3936046 8.58520508 0.53955078 C10.10543634 0.63303568 11.62572679 0.72556258 13.14607239 0.81716919 C17.14650692 1.060797 21.14600425 1.3174419 25.14544678 1.57678223 C29.22709449 1.83914709 33.30949262 2.08922611 37.3918457 2.34033203 C45.40109611 2.83480342 53.40939829 3.34302544 61.41723633 3.85986328 C61.41723633 4.51986328 61.41723633 5.17986328 61.41723633 5.85986328 C49.868699 5.98626611 38.38856276 5.68313895 26.85668945 5.06030273 C24.25995277 4.92062678 21.66288422 4.78923259 19.06567383 4.65869141 C17.38856531 4.57128266 15.71148092 4.48340942 14.03442383 4.39501953 C12.88899612 4.33714012 12.88899612 4.33714012 11.72042847 4.27809143 C7.2338219 4.03090483 2.85646484 3.55923391 -1.58276367 2.85986328 C-1.58276367 4.50986328 -1.58276367 6.15986328 -1.58276367 7.85986328 C-1.91276367 7.85986328 -2.24276367 7.85986328 -2.58276367 7.85986328 C-2.58276367 6.20986328 -2.58276367 4.55986328 -2.58276367 2.85986328 C-3.57276367 2.85986328 -4.56276367 2.85986328 -5.58276367 2.85986328 C-5.91276367 3.84986328 -6.24276367 4.83986328 -6.58276367 5.85986328 C-6.58276367 4.86986328 -6.58276367 3.87986328 -6.58276367 2.85986328 C-7.57276367 2.52986328 -8.56276367 2.19986328 -9.58276367 1.85986328 C-5.8773856 -0.61038877 -4.39046141 -0.27592549 0 0 Z " fill="#EBB03F" transform="translate(167.582763671875,663.14013671875)"/>
<path d="M0 0 C0.33 0 0.66 0 1 0 C1 4.95 1 9.9 1 15 C2.70542969 15.07347656 2.70542969 15.07347656 4.4453125 15.1484375 C14.0790562 15.60175319 23.47506059 16.42271904 33 18 C33 18.33 33 18.66 33 19 C25.91561644 19.11819618 18.98903903 18.65844024 11.9375 18 C10.88111328 17.90460937 9.82472656 17.80921875 8.73632812 17.7109375 C6.15720414 17.47753261 3.57847201 17.24048257 1 17 C0.67 18.65 0.34 20.3 0 22 C1.07636719 22.04898438 2.15273438 22.09796875 3.26171875 22.1484375 C12.30021377 22.59802605 21.08090653 23.40231891 30 25 C30 25.33 30 25.66 30 26 C19.98573465 25.47703281 9.98744003 24.92041114 0 24 C0 25.98 0 27.96 0 30 C0.56847656 29.98839844 1.13695312 29.97679687 1.72265625 29.96484375 C6.60670484 29.90776806 11.18503965 30.18043228 16 31 C16 31.33 16 31.66 16 32 C13.89590361 32.02701408 11.79170822 32.04640223 9.6875 32.0625 C8.51574219 32.07410156 7.34398437 32.08570313 6.13671875 32.09765625 C3 32 3 32 0 31 C0 31.99 0 32.98 0 34 C0.99 34.33 1.98 34.66 3 35 C1.68 35 0.36 35 -1 35 C-1.10709533 23.27901152 -0.99140649 11.68443367 0 0 Z " fill="#F1B540" transform="translate(669,607)"/>
<path d="M0 0 C-0.66 0.66 -1.32 1.32 -2 2 C-1.29922333 2.03536362 -0.59844666 2.07072723 0.12356567 2.10716248 C6.74414232 2.44187533 13.36453991 2.7799142 19.98475838 3.12164211 C23.38786124 3.29718995 26.79101882 3.47147417 30.19433594 3.64282227 C34.11152738 3.84009909 38.02842029 4.04295901 41.9453125 4.24609375 C43.16115021 4.3065538 44.37698792 4.36701385 45.62966919 4.42930603 C46.77039886 4.48929276 47.91112854 4.54927948 49.08642578 4.61108398 C50.58533859 4.68769508 50.58533859 4.68769508 52.11453247 4.76585388 C55.11809542 5.00958305 58.03581806 5.46394503 61 6 C61.33 5.34 61.66 4.68 62 4 C62 5.65 62 7.3 62 9 C61.505 8.01 61.505 8.01 61 7 C59.92869087 7.01203209 59.92869087 7.01203209 58.83573914 7.02430725 C51.16185981 7.07240024 43.55285352 6.77263254 35.89453125 6.30859375 C33.4225393 6.16708583 30.95053367 6.02581687 28.47851562 5.88476562 C24.6340071 5.66162816 20.78967077 5.43613506 16.94555664 5.20629883 C13.19973246 4.98376753 9.45346462 4.77058612 5.70703125 4.55859375 C4.56619583 4.48781113 3.42536041 4.4170285 2.24995422 4.34410095 C-5.96419592 3.88745127 -13.28712516 3.82411036 -21 7 C-21.99 6.67 -22.98 6.34 -24 6 C-24.33 5.34 -24.66 4.68 -25 4 C-16.56884314 -0.44371561 -9.30879863 -0.44682233 0 0 Z " fill="#F1B440" transform="translate(51,678)"/>
<path d="M0 0 C-3.69846108 2.46564072 -7.28286977 3.02148723 -11.57055664 3.83178711 C-12.44560349 4.00282455 -13.32065033 4.173862 -14.22221375 4.3500824 C-16.12214242 4.7207231 -18.02266344 5.08833718 -19.9236927 5.45329094 C-22.92935914 6.0310349 -25.9330653 6.61809286 -28.93638611 7.207901 C-37.47553751 8.88329205 -46.01768667 10.54305638 -54.56176758 12.19311523 C-59.78683498 13.20287201 -65.00942661 14.2246847 -70.23068047 15.25396919 C-72.22372317 15.6442374 -74.21770725 16.02972884 -76.21260262 16.41041374 C-78.99702091 16.94194005 -81.77805958 17.48861449 -84.55883789 18.03881836 C-85.38850067 18.19320374 -86.21816345 18.34758911 -87.07296753 18.50665283 C-91.87736913 19.37139912 -91.87736913 19.37139912 -95 23 C-95 22.01 -95 21.02 -95 20 C-95.66 20 -96.32 20 -97 20 C-96.505 18.515 -96.505 18.515 -96 17 C-95.67 17.33 -95.34 17.66 -95 18 C-93.18697898 17.807039 -93.18697898 17.807039 -91.02319336 17.32250977 C-90.1699649 17.14777634 -89.31673645 16.97304291 -88.43765259 16.79301453 C-87.49787567 16.5944838 -86.55809875 16.39595306 -85.58984375 16.19140625 C-84.61107269 15.98945145 -83.63230164 15.78749664 -82.62387085 15.579422 C-80.50301473 15.14118807 -78.38269392 14.70035741 -76.2628479 14.25726318 C-72.93505592 13.56198936 -69.6058621 12.87387239 -66.27612305 12.18798828 C-61.73737462 11.25282437 -57.1990585 10.31561298 -52.66113281 9.37646484 C-43.74401757 7.53242877 -34.82421496 5.70216204 -25.89871216 3.8991394 C-24.18329138 3.55148052 -22.46833782 3.20150781 -20.75387573 2.84915161 C-18.37473251 2.36020657 -15.99423626 1.87847005 -13.61328125 1.3984375 C-12.92479095 1.25517532 -12.23630066 1.11191315 -11.52694702 0.96430969 C-7.62652099 0.18757309 -3.9744647 -0.1376205 0 0 Z " fill="#EFB340" transform="translate(1242,504)"/>
<path d="M0 0 C0.33 0.66 0.66 1.32 1 2 C2.65 2 4.3 2 6 2 C5.01 2.495 5.01 2.495 4 3 C4 3.99 4 4.98 4 6 C5.5625 5.6875 7.125 5.375 8.6875 5.0625 C12.75976562 4.24804688 12.75976562 4.24804688 16.83203125 3.43359375 C17.54746094 3.29050781 18.26289062 3.14742187 19 3 C18.34 3.66 17.68 4.32 17 5 C19.31 5 21.62 5 24 5 C24 4.34 24 3.68 24 3 C23.01 2.67 22.02 2.34 21 2 C24.465 1.505 24.465 1.505 28 1 C27.67 2.65 27.34 4.3 27 6 C22.22469395 7.16521629 17.9250259 8 13 8 C12.01 8.495 12.01 8.495 11 9 C8.54352551 10.22823725 6.7102225 10.15056792 4 10 C4 10.99 4 11.98 4 13 C4.66 13 5.32 13 6 13 C6 13.99 6 14.98 6 16 C6.99 16.33 7.98 16.66 9 17 C7.68 17 6.36 17 5 17 C5 16.34 5 15.68 5 15 C4.01 15 3.02 15 2 15 C1.67 15.66 1.34 16.32 1 17 C1.020625 16.0925 1.04125 15.185 1.0625 14.25 C1.12896342 11.19114612 1.12896342 11.19114612 0.5 9.0625 C-0.23239252 6.04138084 -0.0594895 3.09345392 0 0 Z " fill="#F1B540" transform="translate(1072,510)"/>
<path d="M0 0 C9.85260981 0.61944693 19.48081573 2.35222304 29.1875 4.0625 C30.82349743 4.34740906 32.45956471 4.6319173 34.09570312 4.91601562 C38.06462188 5.60606263 42.03255819 6.30151346 46 7 C42.3359375 10.03125 42.3359375 10.03125 39.3125 9.75 C37 9 37 9 36 8 C33.94603274 8.40929986 33.94603274 8.40929986 32 9 C31.67 8.01 31.34 7.02 31 6 C30.67 6.66 30.34 7.32 30 8 C25.125 7.125 25.125 7.125 24 6 C21.94603274 6.40929986 21.94603274 6.40929986 20 7 C19.67 6.01 19.34 5.02 19 4 C18.67 4.66 18.34 5.32 18 6 C13.125 5.125 13.125 5.125 12 4 C12 4.33 12 4.66 12 5 C8.04 4.67 4.08 4.34 0 4 C0 2.68 0 1.36 0 0 Z M5 2 C5.66 2.66 6.32 3.32 7 4 C7 3.34 7 2.68 7 2 C6.34 2 5.68 2 5 2 Z " fill="#F4B741" transform="translate(865,500)"/>
<path d="M0 0 C0.33 0 0.66 0 1 0 C1 5.61 1 11.22 1 17 C2.65 17 4.3 17 6 17 C6 16.67 6 16.34 6 16 C8.97 16.33 11.94 16.66 15 17 C14.34 17.66 13.68 18.32 13 19 C19.05308577 19.96549731 19.05308577 19.96549731 25 19 C25.99 19.33 26.98 19.66 28 20 C28 17.36 28 14.72 28 12 C28.33 12 28.66 12 29 12 C29 17.28 29 22.56 29 28 C28.34 27.01 27.68 26.02 27 25 C27.33 24.34 27.66 23.68 28 23 C25.03 23 22.06 23 19 23 C19 23.33 19 23.66 19 24 C17.08268082 23.88544319 15.1661325 23.75793742 13.25 23.625 C12.18265625 23.55539062 11.1153125 23.48578125 10.015625 23.4140625 C7.19793568 23.0271777 5.4169634 22.44313834 3 21 C3.66 20.67 4.32 20.34 5 20 C3.35 20 1.7 20 0 20 C0 13.4 0 6.8 0 0 Z M12 21 C12.66 21.66 13.32 22.32 14 23 C14 22.34 14 21.68 14 21 C13.34 21 12.68 21 12 21 Z " fill="#F2B540" transform="translate(947,496)"/>
<path d="M0 0 C0.99 0 1.98 0 3 0 C3.15365356 9.12958259 2.6769569 18.14767416 2 27.25 C1.90325487 28.5924198 1.80689859 29.93486768 1.7109375 31.27734375 C1.47775902 34.51852462 1.24071047 37.75937131 1 41 C0.34 41 -0.32 41 -1 41 C-1.11114233 28.94723146 -0.94014291 17.02039864 0 5 C-1.32 5.33 -2.64 5.66 -4 6 C-4 5.01 -4 4.02 -4 3 C-3.01 2.34 -2.02 1.68 -1 1 C-0.67 0.67 -0.34 0.34 0 0 Z " fill="#E9AF3F" transform="translate(296,659)"/>
<path d="M0 0 C0.33 0 0.66 0 1 0 C1 1.98 1 3.96 1 6 C1.99 6.33 2.98 6.66 4 7 C3.01 7.495 3.01 7.495 2 8 C0.86649466 10.01669827 0.86649466 10.01669827 0 12 C0 11.34 0 10.68 0 10 C-1.04800781 10.3609375 -2.09601563 10.721875 -3.17578125 11.09375 C-4.55460651 11.56273818 -5.93351725 12.0314751 -7.3125 12.5 C-8.00279297 12.73847656 -8.69308594 12.97695313 -9.40429688 13.22265625 C-12.38931489 14.23208263 -14.82658914 15 -18 15 C-17.67 17.31 -17.34 19.62 -17 22 C-16.10796875 21.69964844 -15.2159375 21.39929688 -14.296875 21.08984375 C-13.12640625 20.70957031 -11.9559375 20.32929687 -10.75 19.9375 C-9.58984375 19.55464844 -8.4296875 19.17179688 -7.234375 18.77734375 C-4.19922915 18.04788237 -2.84296787 17.88110918 0 19 C-2.41429769 19.84080019 -4.83103993 20.67281402 -7.25 21.5 C-8.27287109 21.85771484 -8.27287109 21.85771484 -9.31640625 22.22265625 C-12.76413003 23.39421287 -15.31702904 24 -19 24 C-19.33 18.39 -19.66 12.78 -20 7 C-19.34 7 -18.68 7 -18 7 C-18 8.98 -18 10.96 -18 13 C-17.11957031 12.6390625 -16.23914063 12.278125 -15.33203125 11.90625 C-14.17058594 11.4421875 -13.00914062 10.978125 -11.8125 10.5 C-10.66394531 10.0359375 -9.51539063 9.571875 -8.33203125 9.09375 C-5.28009923 8.09194348 -3.16884928 7.76129196 0 8 C0 5.36 0 2.72 0 0 Z " fill="#EEB340" transform="translate(250,616)"/>
<path d="M0 0 C0.598125 0.20625 1.19625 0.4125 1.8125 0.625 C-0.4975 0.955 -2.8075 1.285 -5.1875 1.625 C-2.1875 -0.375 -2.1875 -0.375 0 0 Z M-5.1875 2.625 C-5.8475 2.625 -6.5075 2.625 -7.1875 2.625 C-7.1875 3.285 -7.1875 3.945 -7.1875 4.625 C-8.5796875 4.810625 -8.5796875 4.810625 -10 5 C-13.32675235 5.44033082 -13.32675235 5.44033082 -16.1875 7.625 C-18.5181218 7.97679197 -20.85185067 8.30830179 -23.1875 8.625 C-24.8271875 9.181875 -24.8271875 9.181875 -26.5 9.75 C-29.1875 10.625 -29.1875 10.625 -31.1875 9.625 C-31.1875 10.285 -31.1875 10.945 -31.1875 11.625 C-36.50079355 13.71489546 -40.47478072 15.2362798 -46.1875 13.625 C-42.80175682 11.36783788 -39.45282197 10.34660922 -35.59765625 9.20703125 C-34.85672226 8.98552902 -34.11578827 8.76402679 -33.35240173 8.53581238 C-31.78725031 8.07008017 -30.22127297 7.60711583 -28.65454102 7.14672852 C-26.25910304 6.44018498 -23.8688841 5.71762253 -21.47851562 4.99414062 C-19.95602195 4.54328096 -18.43324432 4.09337885 -16.91015625 3.64453125 C-16.19650406 3.42690628 -15.48285187 3.20928131 -14.74757385 2.98506165 C-8.61156324 1.21185081 -8.61156324 1.21185081 -5.1875 2.625 Z " fill="#F0B440" transform="translate(1310.1875,337.375)"/>
<path d="M0 0 C-2.31 0.33 -4.62 0.66 -7 1 C-7 1.99 -7 2.98 -7 4 C-6.09636719 3.7834375 -5.19273438 3.566875 -4.26171875 3.34375 C-3.08222656 3.0653125 -1.90273437 2.786875 -0.6875 2.5 C0.48425781 2.2215625 1.65601563 1.943125 2.86328125 1.65625 C6 1 6 1 9 1 C9 1.66 9 2.32 9 3 C10.65 3 12.3 3 14 3 C13.67 3.66 13.34 4.32 13 5 C11.15820312 5.54663086 11.15820312 5.54663086 8.78125 5.96484375 C7.93175781 6.12533203 7.08226562 6.28582031 6.20703125 6.45117188 C4.40301961 6.7752692 2.59832467 7.09558594 0.79296875 7.41210938 C-0.05652344 7.57388672 -0.90601563 7.73566406 -1.78125 7.90234375 C-2.56564453 8.04148193 -3.35003906 8.18062012 -4.15820312 8.32397461 C-4.76599609 8.54706299 -5.37378906 8.77015137 -6 9 C-6.33 9.99 -6.66 10.98 -7 12 C-7.66 12 -8.32 12 -9 12 C-8.67 10.35 -8.34 8.7 -8 7 C-5.36 6.34 -2.72 5.68 0 5 C-1.64666203 5.1135629 -3.29236082 5.24117381 -4.9375 5.375 C-5.85402344 5.44460938 -6.77054688 5.51421875 -7.71484375 5.5859375 C-8.46894531 5.72257812 -9.22304687 5.85921875 -10 6 C-10.33 6.66 -10.66 7.32 -11 8 C-10.67 5.69 -10.34 3.38 -10 1 C-3.71428571 -1.42857143 -3.71428571 -1.42857143 0 0 Z " fill="#EDB240" transform="translate(1082,490)"/>
<path d="M0 0 C-0.66 0 -1.32 0 -2 0 C-2 0.66 -2 1.32 -2 2 C-2.60328125 2.12117188 -3.2065625 2.24234375 -3.828125 2.3671875 C-5.02695313 2.61855469 -5.02695313 2.61855469 -6.25 2.875 C-7.43335938 3.11863281 -7.43335938 3.11863281 -8.640625 3.3671875 C-10.9763748 3.99366344 -12.85843644 4.89610126 -15 6 C-18.0625 6.75 -18.0625 6.75 -21 7 C-21.99 6.34 -22.98 5.68 -24 5 C-20.75505307 3.9626003 -17.50340596 2.94802761 -14.25 1.9375 C-13.32960938 1.64294922 -12.40921875 1.34839844 -11.4609375 1.04492188 C-10.57148437 0.77099609 -9.68203125 0.49707031 -8.765625 0.21484375 C-7.94868164 -0.04176025 -7.13173828 -0.29836426 -6.29003906 -0.56274414 C-3.82131929 -1.03411697 -2.3580946 -0.79786936 0 0 Z M-24 7 C-25 9 -25 9 -26.625 9.5625 C-31.43515395 10.44858099 -36.09936507 11.14850409 -41 11 C-38.05276949 9.03517966 -35.88022174 8.2438783 -32.5 7.3125 C-31.5409375 7.04050781 -30.581875 6.76851563 -29.59375 6.48828125 C-27 6 -27 6 -24 7 Z " fill="#F0B440" transform="translate(1227,363)"/>
<path d="M0 0 C-4.5175924 2.80235679 -9.82322548 3.07647595 -14.9765625 3.85546875 C-19.43945775 4.45178591 -19.43945775 4.45178591 -23 7 C-26.57539179 7.83679382 -28.47955362 8.17348213 -32 7 C-34.16811196 7.31347636 -34.16811196 7.31347636 -36.4375 7.9375 C-39.54107042 8.73045962 -41.71321742 9 -45 9 C-45 8.34 -45 7.68 -45 7 C-40.7292236 6.20802599 -36.45836836 5.41647795 -32.1875 4.625 C-30.99189453 4.40328125 -29.79628906 4.1815625 -28.56445312 3.953125 C-26.18404427 3.51206832 -23.80343005 3.07211843 -21.42260742 2.63330078 C-19.21614482 2.22502887 -17.01050347 1.81228079 -14.8059082 1.39404297 C-13.35510864 1.12164795 -13.35510864 1.12164795 -11.875 0.84375 C-11.03066406 0.68326172 -10.18632812 0.52277344 -9.31640625 0.35742188 C-6.15977651 -0.12964663 -3.18646696 -0.14162075 0 0 Z " fill="#EFB340" transform="translate(354,555)"/>
<path d="M0 0 C0.66 0 1.32 0 2 0 C2.02721831 3.0000624 2.04694378 5.99987256 2.0625 9 C2.07087891 9.83917969 2.07925781 10.67835938 2.08789062 11.54296875 C2.10824033 16.79319339 1.76368207 21.80455662 1 27 C0.01 27.33 -0.98 27.66 -2 28 C-1.86100313 24.08305929 -1.71261867 20.16652898 -1.5625 16.25 C-1.52318359 15.13882813 -1.48386719 14.02765625 -1.44335938 12.8828125 C-1.40146484 11.81289063 -1.35957031 10.74296875 -1.31640625 9.640625 C-1.27974854 8.65610352 -1.24309082 7.67158203 -1.20532227 6.65722656 C-1.02401258 4.31076449 -0.65668181 2.25281588 0 0 Z " fill="#E7AE3F" transform="translate(302,603)"/>
<path d="M0 0 C0.66 0.66 1.32 1.32 2 2 C3.32 2 4.64 2 6 2 C5.67 5.96 5.34 9.92 5 14 C2.69 14 0.38 14 -2 14 C-1.85970581 11.8537974 -1.71261836 9.70803782 -1.5625 7.5625 C-1.48128906 6.36753906 -1.40007812 5.17257812 -1.31640625 3.94140625 C-1 1 -1 1 0 0 Z " fill="#FDBD42" transform="translate(118,686)"/>
<path d="M0 0 C-2.99236784 1.99491189 -4.73563359 2.53509351 -8.19140625 3.25390625 C-9.73344727 3.57584961 -9.73344727 3.57584961 -11.30664062 3.90429688 C-12.38107422 4.12150391 -13.45550781 4.33871094 -14.5625 4.5625 C-15.60986328 4.78357422 -16.65722656 5.00464844 -17.73632812 5.23242188 C-24.1436307 6.5505183 -30.47675172 7.50409118 -37 8 C-33.55828226 6.19018325 -30.37629149 5.31125738 -26.5625 4.5 C-22.49838633 3.63349141 -18.84051153 2.56742828 -15 1 C-13.34502817 0.55781221 -11.67719419 0.16104192 -10 -0.1875 C-9.175 -0.36667969 -8.35 -0.54585937 -7.5 -0.73046875 C-4.76839466 -1.02496995 -2.65145624 -0.6675988 0 0 Z " fill="#EEB340" transform="translate(1061,534)"/>
<path d="M0 0 C0.99 0 1.98 0 3 0 C4.1482685 2.296537 4.11561175 3.58313167 4.09765625 6.1328125 C4.09443359 6.93847656 4.09121094 7.74414062 4.08789062 8.57421875 C4.07951172 9.41597656 4.07113281 10.25773438 4.0625 11.125 C4.05798828 11.97449219 4.05347656 12.82398438 4.04882812 13.69921875 C4.03702874 15.79950909 4.01909306 17.8997633 4 20 C2.35 20 0.7 20 -1 20 C-0.34 19.67 0.32 19.34 1 19 C1 18.34 1 17.68 1 17 C-0.65 17 -2.3 17 -4 17 C-1 15 -1 15 3 15 C3 14.01 3 13.02 3 12 C2.01 12 1.02 12 0 12 C0.61277612 9.03824877 1.25372522 7.61941217 3 5 C-0.3 5.33 -3.6 5.66 -7 6 C-4 4 -4 4 0 4 C0 2.68 0 1.36 0 0 Z " fill="#EEB240" transform="translate(1118,514)"/>
<path d="M0 0 C0 0.66 0 1.32 0 2 C-4.80466618 3.28488939 -9.61017592 4.5665557 -14.41650391 5.84521484 C-16.05215799 6.28084784 -17.68757612 6.71736776 -19.32275391 7.15478516 C-21.67028633 7.78259704 -24.01864297 8.40723648 -26.3671875 9.03125 C-27.10057343 9.22811401 -27.83395935 9.42497803 -28.58956909 9.62780762 C-33.77225659 11 -33.77225659 11 -36 11 C-36 10.01 -36 9.02 -36 8 C-34.83210937 7.76216797 -34.83210937 7.76216797 -33.640625 7.51953125 C-25.22774391 5.76523231 -16.90196346 3.76475496 -8.57910156 1.6262207 C-7.34111816 1.31044067 -7.34111816 1.31044067 -6.078125 0.98828125 C-5.33981445 0.79790283 -4.60150391 0.60752441 -3.84082031 0.41137695 C-2 0 -2 0 0 0 Z " fill="#FABB42" transform="translate(1055,464)"/>
<path d="M0 0 C-0.33 0.66 -0.66 1.32 -1 2 C-3.475 1.505 -3.475 1.505 -6 1 C-6 1.66 -6 2.32 -6 3 C-8.475 2.505 -8.475 2.505 -11 2 C-11 2.66 -11 3.32 -11 4 C-13.475 3.505 -13.475 3.505 -16 3 C-16 3.66 -16 4.32 -16 5 C-18.475 4.505 -18.475 4.505 -21 4 C-21 4.66 -21 5.32 -21 6 C-22.65 5.67 -24.3 5.34 -26 5 C-26 5.66 -26 6.32 -26 7 C-28.66666667 7 -31.33333333 7 -34 7 C-33.67 6.34 -33.34 5.68 -33 5 C-30.18017578 4.20629883 -30.18017578 4.20629883 -26.4453125 3.45703125 C-25.78796112 3.3243132 -25.13060974 3.19159515 -24.45333862 3.05485535 C-23.0603893 2.77591654 -21.66656413 2.50132203 -20.27197266 2.23071289 C-18.13831767 1.81509417 -16.00868884 1.38224205 -13.87890625 0.94726562 C-12.52624867 0.67864304 -11.17338984 0.41103145 -9.8203125 0.14453125 C-7.96817139 -0.22128052 -7.96817139 -0.22128052 -6.07861328 -0.59448242 C-3 -1 -3 -1 0 0 Z " fill="#F2B540" transform="translate(1188,520)"/>
<path d="M0 0 C1.32 0 2.64 0 4 0 C3.67 0.99 3.34 1.98 3 3 C0.82275391 3.89135742 0.82275391 3.89135742 -2.0234375 4.60546875 C-3.044375 4.86650391 -4.0653125 5.12753906 -5.1171875 5.39648438 C-6.19226562 5.65751953 -7.26734375 5.91855469 -8.375 6.1875 C-9.44234375 6.46013672 -10.5096875 6.73277344 -11.609375 7.01367188 C-19.51486137 9 -19.51486137 9 -23 9 C-22.67 10.32 -22.34 11.64 -22 13 C-23.32 13 -24.64 13 -26 13 C-26 11.35 -26 9.7 -26 8 C-22.41896026 6.9916593 -18.83482575 5.99478914 -15.25 5 C-14.23421875 4.71382813 -13.2184375 4.42765625 -12.171875 4.1328125 C-11.1921875 3.86210937 -10.2125 3.59140625 -9.203125 3.3125 C-8.30239258 3.06113281 -7.40166016 2.80976563 -6.47363281 2.55078125 C-4 2 -4 2 0 2 C0 1.34 0 0.68 0 0 Z " fill="#E9AF3F" transform="translate(1097,461)"/>
<path d="M0 0 C1.65 0 3.3 0 5 0 C5.14285714 8.57142857 5.14285714 8.57142857 4 12 C2.68 12 1.36 12 0 12 C0 12.66 0 13.32 0 14 C1.32 13.67 2.64 13.34 4 13 C4 13.66 4 14.32 4 15 C2.35 15 0.7 15 -1 15 C-1.02693575 12.87506859 -1.04636628 10.75004088 -1.0625 8.625 C-1.07410156 7.44164062 -1.08570313 6.25828125 -1.09765625 5.0390625 C-1 2 -1 2 0 0 Z " fill="#EBB03F" transform="translate(255,685)"/>
<path d="M0 0 C1.35439668 2.70879335 1.06501451 5.00933268 1 8 C0.67 7.01 0.34 6.02 0 5 C-0.79664063 5.22816406 -1.59328125 5.45632813 -2.4140625 5.69140625 C-3.47367188 5.97886719 -4.53328125 6.26632812 -5.625 6.5625 C-6.66914062 6.85253906 -7.71328125 7.14257812 -8.7890625 7.44140625 C-12.19022902 8.03309337 -14.65448342 7.75851802 -18 7 C-18 6.01 -18 5.02 -18 4 C-15.36 3.67 -12.72 3.34 -10 3 C-10.99 3.66 -11.98 4.32 -13 5 C-9.535 4.505 -9.535 4.505 -6 4 C-6.99 3.34 -7.98 2.68 -9 2 C-2.25 0 -2.25 0 0 0 Z " fill="#EDB240" transform="translate(1120,484)"/>
<path d="M0 0 C3.3 0 6.6 0 10 0 C9.34 0.66 8.68 1.32 8 2 C5.375 1.625 5.375 1.625 3 1 C3 1.66 3 2.32 3 3 C3.6705542 3.05534912 4.3411084 3.11069824 5.03198242 3.16772461 C8.08407737 3.42134011 11.13578314 3.67937638 14.1875 3.9375 C15.24259766 4.02451172 16.29769531 4.11152344 17.38476562 4.20117188 C18.40634766 4.28818359 19.42792969 4.37519531 20.48046875 4.46484375 C21.88655396 4.58267212 21.88655396 4.58267212 23.32104492 4.70288086 C25.92565835 4.99175487 28.43997744 5.44576831 31 6 C31 6.33 31 6.66 31 7 C22.20294908 7.38064163 13.68836995 6.20731692 5 5 C4.67 6.32 4.34 7.64 4 9 C3.814375 8.071875 3.814375 8.071875 3.625 7.125 C3.12802644 4.80879168 3.12802644 4.80879168 1 3 C1.33 2.34 1.66 1.68 2 1 C1.34 0.67 0.68 0.34 0 0 Z " fill="#F2B641" transform="translate(297,578)"/>
<path d="M0 0 C-0.33 0.66 -0.66 1.32 -1 2 C-7.67186811 4.19494791 -14.11515341 5.76123983 -21 4 C-21 4.66 -21 5.32 -21 6 C-21.99 6 -22.98 6 -24 6 C-23.67 5.01 -23.34 4.02 -23 3 C-19.73172393 2.29994196 -16.46007824 1.61713756 -13.1875 0.9375 C-11.7943457 0.63875977 -11.7943457 0.63875977 -10.37304688 0.33398438 C-9.0340332 0.05844727 -9.0340332 0.05844727 -7.66796875 -0.22265625 C-6.84578857 -0.39547119 -6.0236084 -0.56828613 -5.17651367 -0.74633789 C-3 -1 -3 -1 0 0 Z " fill="#F3B641" transform="translate(1213,515)"/>
<path d="M0 0 C-0.33 0.66 -0.66 1.32 -1 2 C-1.15123831 3.5195764 -1.24881693 5.04472502 -1.31640625 6.5703125 C-1.35830078 7.46621094 -1.40019531 8.36210938 -1.44335938 9.28515625 C-1.48267578 10.22230469 -1.52199219 11.15945313 -1.5625 12.125 C-1.60568359 13.06988281 -1.64886719 14.01476562 -1.69335938 14.98828125 C-1.79959072 17.32537092 -1.90163176 19.6625683 -2 22 C-1.34 22 -0.68 22 0 22 C0 18.04 0 14.08 0 10 C0.33 10 0.66 10 1 10 C1 13.96 1 17.92 1 22 C1.66 22.33 2.32 22.66 3 23 C1.35 23 -0.3 23 -2 23 C-2.33 23.99 -2.66 24.98 -3 26 C-3 18.08 -3 10.16 -3 2 C-4.32 1.67 -5.64 1.34 -7 1 C-4.53721199 -0.231394 -2.7204945 -0.07159196 0 0 Z " fill="#F1B440" transform="translate(529,674)"/>
<path d="M0 0 C0.16682272 4.92127034 0.24828052 8.50343896 -2 13 C-2.66 13 -3.32 13 -4 13 C-4 12.34 -4 11.68 -4 11 C-4.66 10.67 -5.32 10.34 -6 10 C-5.34 9.01 -4.68 8.02 -4 7 C-4.66 6.67 -5.32 6.34 -6 6 C-5.34 6 -4.68 6 -4 6 C-4 5.34 -4 4.68 -4 4 C-4.66 3.67 -5.32 3.34 -6 3 C-3.375 0 -3.375 0 0 0 Z " fill="#ECB140" transform="translate(295,666)"/>
<path d="M0 0 C0.66 0 1.32 0 2 0 C2.33725065 3.04127817 2.66992332 6.08294191 3 9.125 C3.09539062 9.9809375 3.19078125 10.836875 3.2890625 11.71875 C3.76845209 16.17022474 4.11765458 20.51441925 4 25 C2.68 24.67 1.36 24.34 0 24 C0.66 24 1.32 24 2 24 C1.68981396 21.4372008 1.37693109 18.8747789 1.0625 16.3125 C0.97548828 15.59126953 0.88847656 14.87003906 0.79882812 14.12695312 C0.42540402 11.09806873 0.03332195 8.15005227 -0.62890625 5.16796875 C-1 3 -1 3 0 0 Z " fill="#F0B440" transform="translate(1485,385)"/>
<path d="M0 0 C1.65 0 3.3 0 5 0 C5 2 5 2 3.9296875 3.51953125 C1.1702364 5.63660001 -1.48157715 6.00953286 -4.875 6.6875 C-6.69644531 7.06455078 -6.69644531 7.06455078 -8.5546875 7.44921875 C-11.46026736 7.91371621 -14.07015416 8.11697103 -17 8 C-11.73685018 4.49123345 -7.1917174 3.62966618 -1 3 C-0.67 2.01 -0.34 1.02 0 0 Z " fill="#EDB240" transform="translate(1100,481)"/>
<path d="M0 0 C-3.09868145 2.06578763 -5.34976306 2.74691358 -8.9375 3.625 C-10.49791016 4.01558594 -10.49791016 4.01558594 -12.08984375 4.4140625 C-15 5 -15 5 -19 5 C-19 6.32 -19 7.64 -19 9 C-19.99 9 -20.98 9 -22 9 C-22.33 7.35 -22.66 5.7 -23 4 C-20.10555905 3.3267344 -17.20969987 2.66119596 -14.3125 2 C-13.49587891 1.80921875 -12.67925781 1.6184375 -11.83789062 1.421875 C-7.82760674 0.51266084 -4.14282748 -0.27000098 0 0 Z " fill="#E9AF3F" transform="translate(1094,479)"/>
<path d="M0 0 C0.66 0.33 1.32 0.66 2 1 C1.67 1.99 1.34 2.98 1 4 C8.81574297 6.62297943 8.81574297 6.62297943 17 7 C17 7.99 17 8.98 17 10 C8.3321012 8.63353125 0.25329756 5.88315195 -8 3 C-4.98968256 2.06576355 -4.13349732 1.95550089 -1 3 C-0.67 2.01 -0.34 1.02 0 0 Z " fill="#EDB240" transform="translate(1599,449)"/>
<path d="M0 0 C0.99 0 1.98 0 3 0 C3 0.99 3 1.98 3 3 C1.12922332 3.53580497 -0.7468917 4.05298887 -2.625 4.5625 C-3.66914062 4.85253906 -4.71328125 5.14257812 -5.7890625 5.44140625 C-9.19022902 6.03309337 -11.65448342 5.75851802 -15 5 C-15.33 4.01 -15.66 3.02 -16 2 C-12.535 1.505 -12.535 1.505 -9 1 C-9.99 1.495 -9.99 1.495 -11 2 C-11 2.66 -11 3.32 -11 4 C-5.555 3.01 -5.555 3.01 0 2 C0 1.34 0 0.68 0 0 Z " fill="#EEB340" transform="translate(1118,508)"/>
<path d="M0 0 C0 0.66 0 1.32 0 2 C-2.45714547 2.83698386 -4.91558857 3.66972424 -7.375 4.5 C-8.42300781 4.85771484 -8.42300781 4.85771484 -9.4921875 5.22265625 C-14.7734375 7 -14.7734375 7 -17 7 C-16.67 6.01 -16.34 5.02 -16 4 C-13.1640625 2.83203125 -13.1640625 2.83203125 -9.625 1.8125 C-8.46226562 1.46832031 -7.29953125 1.12414062 -6.1015625 0.76953125 C-3 0 -3 0 0 0 Z " fill="#FDBE42" transform="translate(157,672)"/>
<path d="M0 0 C-2.97 1.32 -5.94 2.64 -9 4 C-8.67 4.99 -8.34 5.98 -8 7 C-8.66 7 -9.32 7 -10 7 C-10 6.34 -10 5.68 -10 5 C-14.14093698 4.79029441 -14.14093698 4.79029441 -18 6 C-20.125 5.0625 -20.125 5.0625 -22 4 C-20.845 3.71125 -19.69 3.4225 -18.5 3.125 C-17.77425781 2.94324219 -17.04851562 2.76148438 -16.30078125 2.57421875 C-14.79879001 2.19935846 -13.2962081 1.82685473 -11.79296875 1.45703125 C-2.50466418 -0.83488806 -2.50466418 -0.83488806 0 0 Z " fill="#EFB340" transform="translate(378,550)"/>
<path d="M0 0 C0.66 0.33 1.32 0.66 2 1 C2 1.33 2 1.66 2 2 C2.99 2.33 3.98 2.66 5 3 C2.56686628 4.03251062 0.12943108 5.05119521 -2.3125 6.0625 C-3.34793945 6.50432617 -3.34793945 6.50432617 -4.40429688 6.95507812 C-9.66015625 9.11328125 -9.66015625 9.11328125 -13 8 C-12.34 8 -11.68 8 -11 8 C-10.67 6.68 -10.34 5.36 -10 4 C-8.68 3.67 -7.36 3.34 -6 3 C-6 3.66 -6 4.32 -6 5 C-4.35 4.67 -2.7 4.34 -1 4 C-1 3.34 -1 2.68 -1 2 C-1.66 1.67 -2.32 1.34 -3 1 C-2.01 0.67 -1.02 0.34 0 0 Z " fill="#F1B541" transform="translate(433,524)"/>
<path d="M0 0 C-0.33 0.66 -0.66 1.32 -1 2 C-3.765625 2.8515625 -3.765625 2.8515625 -7.25 3.625 C-8.38953125 3.88539063 -9.5290625 4.14578125 -10.703125 4.4140625 C-13.56912304 4.92342234 -16.10235596 5.11982739 -19 5 C-18.34 4.01 -17.68 3.02 -17 2 C-15.33391013 1.95615553 -13.66619446 1.9603287 -12 2 C-10.65022151 1.36729133 -9.31647119 0.69937532 -8 0 C-4.64057132 -0.90131013 -3.36400208 -1.12133403 0 0 Z " fill="#F3B641" transform="translate(1329,492)"/>
<path d="M0 0 C3.3 0.33 6.6 0.66 10 1 C9.01 1.66 8.02 2.32 7 3 C8.32 3.66 9.64 4.32 11 5 C9.27054347 4.85764543 7.54144346 4.71095618 5.8125 4.5625 C4.36810547 4.44068359 4.36810547 4.44068359 2.89453125 4.31640625 C0.21350398 4.02333849 -2.3662986 3.57296246 -5 3 C-5 2.67 -5 2.34 -5 2 C-3.35 1.67 -1.7 1.34 0 1 C0 0.67 0 0.34 0 0 Z " fill="#F2B640" transform="translate(854,498)"/>
<path d="M0 0 C-0.66 0 -1.32 0 -2 0 C-2 0.66 -2 1.32 -2 2 C-7.31329355 4.08989546 -11.28728072 5.6112798 -17 4 C-14.05276949 2.03517966 -11.88022174 1.2438783 -8.5 0.3125 C-7.5409375 0.04050781 -6.581875 -0.23148437 -5.59375 -0.51171875 C-3 -1 -3 -1 0 0 Z " fill="#F0B440" transform="translate(1264,352)"/>
<path d="M0 0 C-0.33 1.32 -0.66 2.64 -1 4 C-10.41002278 6.29612756 -10.41002278 6.29612756 -15 6 C-12 4 -12 4 -8.875 3.5 C-7.92625 3.335 -6.9775 3.17 -6 3 C-5.67 2.34 -5.34 1.68 -5 1 C-5.99 0.67 -6.98 0.34 -8 0 C-4.94736336 -0.98120464 -3.05263664 -0.98120464 0 0 Z " fill="#EEB340" transform="translate(1102,534)"/>
<path d="M0 0 C0 0.99 0 1.98 0 3 C-2.56076097 3.67404284 -5.12326583 4.339414 -7.6875 5 C-8.40873047 5.19078125 -9.12996094 5.3815625 -9.87304688 5.578125 C-13.66850961 6.54865428 -17.04615439 7.24955239 -21 7 C-18.63699651 4.63699651 -17.4201502 4.48566556 -14.1875 3.875 C-12.90939453 3.62363281 -12.90939453 3.62363281 -11.60546875 3.3671875 C-9.03156189 3.004448 -6.59538412 2.93476593 -4 3 C-4 2.34 -4 1.68 -4 1 C-2 0 -2 0 0 0 Z " fill="#EBB03F" transform="translate(1100,505)"/>
<path d="M0 0 C0.99 0.66 1.98 1.32 3 2 C2.67 3.98 2.34 5.96 2 8 C0.35 7.67 -1.3 7.34 -3 7 C-3 6.34 -3 5.68 -3 5 C-3.66 4.67 -4.32 4.34 -5 4 C-4.67 3.34 -4.34 2.68 -4 2 C-2.68 2 -1.36 2 0 2 C0 1.34 0 0.68 0 0 Z " fill="#F5B741" transform="translate(923,505)"/>
<path d="M0 0 C-0.66 0 -1.32 0 -2 0 C-2 0.66 -2 1.32 -2 2 C-7.31329355 4.08989546 -11.28728072 5.6112798 -17 4 C-14.04925888 2.43220483 -11.12880766 1.29925425 -7.9375 0.3125 C-7.08027344 0.04050781 -6.22304687 -0.23148437 -5.33984375 -0.51171875 C-3 -1 -3 -1 0 0 Z " fill="#F0B440" transform="translate(1247,357)"/>
<path d="M0 0 C4.95 1.98 4.95 1.98 10 4 C10 2.68 10 1.36 10 0 C10.66 0.33 11.32 0.66 12 1 C11.67 2.32 11.34 3.64 11 5 C13.97 5.495 13.97 5.495 17 6 C13.02623171 7.56393356 10.18622097 6.36145292 6.25 5.0625 C5.07953125 4.68222656 3.9090625 4.30195313 2.703125 3.91015625 C1.81109375 3.60980469 0.9190625 3.30945313 0 3 C0 2.01 0 1.02 0 0 Z " fill="#EEB340" transform="translate(1555,438)"/>
<path d="M0 0 C0.99 0 1.98 0 3 0 C3 1.98 3 3.96 3 6 C2.34 6 1.68 6 1 6 C1 6.66 1 7.32 1 8 C1.66 8 2.32 8 3 8 C3 9.32 3 10.64 3 12 C2.01 12.33 1.02 12.66 0 13 C0 8.71 0 4.42 0 0 Z " fill="#FABB42" transform="translate(287,684)"/>
<path d="M0 0 C0 0.66 0 1.32 0 2 C-8.42857143 4.28571429 -8.42857143 4.28571429 -13 4 C-10.84839889 0.77259834 -10.57842455 0.56187085 -7.0625 -0.25 C-6.37285156 -0.42015625 -5.68320313 -0.5903125 -4.97265625 -0.765625 C-3 -1 -3 -1 0 0 Z " fill="#F2B641" transform="translate(1266,488)"/>
<path d="M0 0 C0 0.66 0 1.32 0 2 C-1.43534841 2.2226746 -2.87345525 2.42761906 -4.3125 2.625 C-5.11300781 2.74101562 -5.91351562 2.85703125 -6.73828125 2.9765625 C-9 3 -9 3 -12 1 C-3.96428571 -1.27678571 -3.96428571 -1.27678571 0 0 Z " fill="#F2B641" transform="translate(1314,465)"/>
<path d="M0 0 C-0.33 0.66 -0.66 1.32 -1 2 C0.32 2.33 1.64 2.66 3 3 C-2.75 4.125 -2.75 4.125 -5 3 C-5 2.34 -5 1.68 -5 1 C-5.99 0.67 -6.98 0.34 -8 0 C-4.94736336 -0.98120464 -3.05263664 -0.98120464 0 0 Z " fill="#F2B541" transform="translate(1109,525)"/>
<path d="M0 0 C-3.03525486 2.02350324 -4.19426202 2.32124018 -7.6875 2.625 C-8.49574219 2.69976562 -9.30398438 2.77453125 -10.13671875 2.8515625 C-10.75160156 2.90054687 -11.36648438 2.94953125 -12 3 C-8.61326653 -2.08010021 -5.54065966 -0.94086673 0 0 Z " fill="#F1B541" transform="translate(1233,471)"/>
<path d="M0 0 C0.33 0.99 0.66 1.98 1 3 C-2.3 3.66 -5.6 4.32 -9 5 C-9 4.34 -9 3.68 -9 3 C-6.03 2.01 -3.06 1.02 0 0 Z " fill="#FDBE42" transform="translate(152,687)"/>
<path d="M0 0 C0 1.65 0 3.3 0 5 C-1.65 5 -3.3 5 -5 5 C-5 3.68 -5 2.36 -5 1 C-3 0 -3 0 0 0 Z " fill="#FDBD42" transform="translate(319,630)"/>
<path d="M0 0 C0.33 0.66 0.66 1.32 1 2 C2.98 1.67 4.96 1.34 7 1 C7.33 1.66 7.66 2.32 8 3 C7.01 3.495 7.01 3.495 6 4 C4.86649466 6.01669827 4.86649466 6.01669827 4 8 C4 6.68 4 5.36 4 4 C2.68 4 1.36 4 0 4 C0 2.68 0 1.36 0 0 Z " fill="#F3B641" transform="translate(254,595)"/>
<path d="M0 0 C-0.33 1.32 -0.66 2.64 -1 4 C-2.98 4.33 -4.96 4.66 -7 5 C-6.67 3.35 -6.34 1.7 -6 0 C-3 -1 -3 -1 0 0 Z " fill="#F3B641" transform="translate(1111,419)"/>
<path d="M0 0 C0.33 0 0.66 0 1 0 C1 3.3 1 6.6 1 10 C0.67 9.01 0.34 8.02 0 7 C-0.99 6.67 -1.98 6.34 -3 6 C-2.01 6 -1.02 6 0 6 C-2.475 5.01 -2.475 5.01 -5 4 C-2 2 -2 2 0 2 C0 1.34 0 0.68 0 0 Z " fill="#F2B541" transform="translate(1112,408)"/>
<path d="M0 0 C-2.31 0.33 -4.62 0.66 -7 1 C-7 2.32 -7 3.64 -7 5 C-7.99 5 -8.98 5 -10 5 C-10 3.68 -10 2.36 -10 1 C-3.71428571 -1.42857143 -3.71428571 -1.42857143 0 0 Z " fill="#E8AE3F" transform="translate(1082,490)"/>
<path d="M0 0 C2.64 0 5.28 0 8 0 C8 0.99 8 1.98 8 3 C5.69 3 3.38 3 1 3 C0.67 2.01 0.34 1.02 0 0 Z " fill="#F2B641" transform="translate(688,639)"/>
<path d="M0 0 C-2.3773161 2.3773161 -3.70285207 2.67028521 -7 3 C-7.66 2.34 -8.32 1.68 -9 1 C-5.57367167 -0.61798838 -3.61944899 -1.34053666 0 0 Z " fill="#F5B741" transform="translate(976,340)"/>
<path d="M0 0 C-0.33 0.99 -0.66 1.98 -1 3 C-4.0625 4.1875 -4.0625 4.1875 -7 5 C-6.6875 3.0625 -6.6875 3.0625 -6 1 C-3 0 -3 0 0 0 Z " fill="#F9BB42" transform="translate(125,677)"/>
<path d="M0 0 C0 0.66 0 1.32 0 2 C-2.64 2.33 -5.28 2.66 -8 3 C-7.67 2.01 -7.34 1.02 -7 0 C-4.05610218 -1.17755913 -3.10046087 -1.03348696 0 0 Z " fill="#F1B541" transform="translate(1226,484)"/>
<path d="M0 0 C0 0.66 0 1.32 0 2 C-2.64 2.33 -5.28 2.66 -8 3 C-7.67 2.01 -7.34 1.02 -7 0 C-4.05610218 -1.17755913 -3.10046087 -1.03348696 0 0 Z " fill="#F1B540" transform="translate(1240,481)"/>
<path d="M0 0 C0 0.66 0 1.32 0 2 C-2.64 2.33 -5.28 2.66 -8 3 C-7.67 2.01 -7.34 1.02 -7 0 C-4.05610218 -1.17755913 -3.10046087 -1.03348696 0 0 Z " fill="#F1B540" transform="translate(1263,476)"/>
<path d="M0 0 C0 0.99 0 1.98 0 3 C-2.64 3.33 -5.28 3.66 -8 4 C-6 1 -6 1 -4 0.3125 C-2 0 -2 0 0 0 Z " fill="#F1B541" transform="translate(1211,474)"/>
<path d="M0 0 C0 0.66 0 1.32 0 2 C-2.64 2.33 -5.28 2.66 -8 3 C-7.67 2.01 -7.34 1.02 -7 0 C-4.05610218 -1.17755913 -3.10046087 -1.03348696 0 0 Z " fill="#F1B540" transform="translate(1277,473)"/>
<path d="M0 0 C0 0.66 0 1.32 0 2 C-2.64 2.33 -5.28 2.66 -8 3 C-7.67 2.01 -7.34 1.02 -7 0 C-4.05610218 -1.17755913 -3.10046087 -1.03348696 0 0 Z " fill="#F1B540" transform="translate(1300,468)"/>
<path d="M0 0 C0 0.66 0 1.32 0 2 C-2.64 2.33 -5.28 2.66 -8 3 C-7.67 2.01 -7.34 1.02 -7 0 C-4.05610218 -1.17755913 -3.10046087 -1.03348696 0 0 Z " fill="#F1B541" transform="translate(1278,460)"/>
<path d="M0 0 C-1.75 1.5625 -1.75 1.5625 -4 3 C-6.25 2.6875 -6.25 2.6875 -8 2 C-8 1.34 -8 0.68 -8 0 C-4.94736336 -0.98120464 -3.05263664 -0.98120464 0 0 Z " fill="#F5B741" transform="translate(1481,431)"/>
<path d="M0 0 C2.64 0.33 5.28 0.66 8 1 C7.01 2.485 7.01 2.485 6 4 C3.375 4.1875 3.375 4.1875 1 4 C1.33 3.01 1.66 2.02 2 1 C1.34 0.67 0.68 0.34 0 0 Z " fill="#F4B741" transform="translate(838,414)"/>
<path d="M0 0 C0.99 0 1.98 0 3 0 C3.33 1.98 3.66 3.96 4 6 C2.68 5.67 1.36 5.34 0 5 C0 3.35 0 1.7 0 0 Z " fill="#ECB13F" transform="translate(802,404)"/>
<path d="M0 0 C0.99 0 1.98 0 3 0 C3 0.99 3 1.98 3 3 C-1.455 3.495 -1.455 3.495 -6 4 C-4.68 3.34 -3.36 2.68 -2 2 C-1.34 1.34 -0.68 0.68 0 0 Z " fill="#E9AF3F" transform="translate(1096,498)"/>
<path d="M0 0 C0.99 0 1.98 0 3 0 C3 2.31 3 4.62 3 7 C2.67 5.68 2.34 4.36 2 3 C0.02 3 -1.96 3 -4 3 C-2.68 2.67 -1.36 2.34 0 2 C0 1.34 0 0.68 0 0 Z " fill="#F0B440" transform="translate(1465,471)"/>
<path d="M0 0 C-5.41538462 3.07692308 -5.41538462 3.07692308 -8.375 2.6875 C-9.179375 2.3471875 -9.179375 2.3471875 -10 2 C-3.375 -1.125 -3.375 -1.125 0 0 Z " fill="#FBBC42" transform="translate(1114,458)"/>
</svg>
